<svg xmlns="http://www.w3.org/2000/svg" xmlns:cc="http://web.resource.org/cc/" xmlns:ns1="http://sozi.baierouge.fr" xmlns:svg="http://www.w3.org/2000/svg" xmlns:xlink="http://www.w3.org/1999/xlink" id="coyote_xA0_Image_1_" x="0" y="0" enable-background="new 0 0 221.435 361.443" version="1.1" viewBox="0 0 221.435 361.443" xml:space="preserve"><g fill-rule="evenodd" clip-rule="evenodd"><path d="m197.97 10.997c0.901 0.32 1.506 0.938 1.466 2.2-2.54 0.639-2.52-1.129-1.47-2.2z"/><path d="m191.38 14.663c-0.482 0.984-1.567 1.365-2.933 1.466 0.17-1.29 1.25-1.671 2.93-1.466z"/><path d="m199.44 15.396h1.467v1.466h-1.467v-1.466z"/><path d="m197.97 19.062c0.253-0.885 1.95-0.593 2.199 0 0.67 1.585-2.68 1.699-2.2 0z"/><path d="m193.57 21.995c-1.179 1.753-2.412 3.453-2.199 6.598-2.257-0.513-1.409-0.513-3.666 0-0.163 3.141 2.439 2.989 0.733 5.865-1.184 0.207-1.262-0.693-2.199-0.733 0.057 3.968 4.628 5.269 2.199 9.531 3.081 0.149 1.614-4.251 4.399-4.399 1.504 2.613-1.868 5.681-0.733 10.264-2.367-0.656-1.03 2.391-2.199 2.933-1.185 0.207-1.263-0.693-2.2-0.733-0.205 2.482-1.166 4.21-0.732 7.332-2.299-0.507-0.956-1.956-0.733-3.666-2.933-0.489-2.947 1.94-2.933 4.399-0.615 2.329-0.967-1.301-0.733-2.2 0.032-1.254-0.545-1.899-1.466-2.199 0.794-2.665 0.446-7.718-0.733-11.73-0.025-0.085-0.613-0.252-0.733-0.733-0.331-1.326 0.29-2.403-1.466-2.199-0.055-3.123-1.227-5.127-0.733-8.798 0.685 0.538 1.11 1.333 1.466 2.199 1.315 0.093 1.547-0.897 2.933-0.733 1.512-0.199 0.175-3.247 2.2-2.933v-5.132c1.184-0.207 1.262 0.693 2.199 0.733 2.01-1.652 2.81-4.518 7.32-3.666zm-11.73 21.261c0.176 1.046 1.208 1.236 1.467 2.199 2.797-0.38 3.738-2.615 3.666-5.865-1.457-0.009-0.933-2-2.933-1.466 1.12 3.567-2.13 2.76-2.21 5.132z"/><path d="m156.92 44.722c0.995 0.227 0.608 1.835 0.733 2.933-1.492-0.484-1.584 1.142-2.199 1.466-0.576 0.304-1.599-0.258-2.2 0-0.798 0.342-0.647 2.427-2.199 0.733-0.05-3.715 4.12-3.216 5.87-5.132z"/><path d="m164.98 60.118c1.185-0.207 1.263 0.693 2.199 0.733 1.209 0.84 0.228 2.375 0.733 4.399 0.064 0.257 0.723 0.996 0.733 0.733-0.062 1.56-2.355 2.818-1.467 5.132-1.543-0.701-0.562-2.503-0.732-3.666-0.35-2.421-1.33-4.972-1.46-7.331z"/><path d="m120.99 63.784c0.222 3.118-3.908 0.746-5.132 0.733 0.333-0.077 0.493-1.376 0.733-1.466 0.994-0.373 1.231 0.757 1.467 0.733 0.63-0.065 2.92-1.497 2.93 0z"/><path d="m189.91 64.517c1.297 1.479 2.29-0.194 3.665 0 0.341 0.048 0.491 1.363 0.733 1.466 1.146 0.489 1.674-1.197 2.933-0.733 0.01 1.457 2 0.932 1.467 2.933h-3.666c-0.25 2.693 4.208 0.679 2.933 4.399-0.652-0.57-1.656-0.789-2.933-0.733-0.218 1.928 2.844 0.577 2.199 2.933-1.742-1.139-4.387 0.479-6.599 0-0.314-0.068-0.515-1.394-0.732-1.466-0.254-0.084-1.312 0.19-1.467 0-0.617-0.754-0.705 0.028-1.466-0.733-0.489-0.489-0.902-1.053-0.733-2.2 1.184-0.207 1.262 0.693 2.199 0.733 1.356-0.11 0.45-2.483 1.467-2.933 1.729 1.076 1.363 1.547 3.665 0.733-0.942-1.898-1.516-2.304-3.665-1.466-0.01-0.978-0.01-1.955-0.01-2.933z"/><path d="m123.19 65.983h1.466v1.466h-1.466v-1.466z"/><path d="m93.866 67.45c2.028 1.637 3.516 3.815 8.064 2.933 1.143 6.185-7.813 4.826-5.132 10.264-3.615-0.635-6.804-0.993-10.264 0.733-0.82 0.409-0.86 1.002-1.466 1.466-0.509 0.389-1.667 0.279-2.2 0.733-0.248 0.212 0.233 1.233 0 1.466-0.249 0.249-1.201-0.236-1.466 0-0.938 0.833-0.593 1.065-2.199 1.466 0.028-0.007-2.148 0.67-2.2 0.733-0.499 0.61-1.833 0.695-3.666 1.466-1.879 0.792-3.036 2.479-5.132 2.2-1.954 0.734-2.417 2.959-3.666 4.399-3.14-0.452-2.989 2.387-5.865 2.199 0.02 0.713 0.897 0.569 1.466 0.733-0.743 1.945-2.929 1.818-4.399 2.933-1.238 0.938-2.409 2.617-3.666 3.666-1.363 1.137-2.182 2.476-3.666 3.666-0.255 0.205-1.265-0.246-1.466 0-0.597 0.73-0.771 2.261-2.933 2.199-0.315 2.892-0.056 2.255-2.199 4.399-0.716 0.716-1.821 1.578-2.2 2.2-0.323 0.531 0.248 1.623 0 2.199-0.268 0.625-1.411 0.424-1.466 1.466-0.025 0.483 0.235 1.79 0 2.199-0.314 0.548-1.208-0.231-1.466 0.733-0.419 1.571-2.378 4.589-4.399 5.865 1.793 3.796-1.329 6.917-3.666 8.798 0.166 1.056 2.188 0.255 2.2 1.466-0.296 2.881-3.223 3.131-3.666 5.865-2.536-0.581-3.095 0.815-4.399 1.466-0.063 1.041-0.121 2.076 0.733 2.199-0.377 1.627-1.422 0.97-2.2 2.2-1.35 2.135-1.448 4.943-3.666 6.598 0.298 2.476 2.842-1.951 2.199 1.466 0.352 2.289-0.968 0.348-1.466 0.733-1.087 0.842-0.561 2.538-2.199 3.666 0.966 2.272-2.173 4.067 0 5.132-0.166 1.056-2.188 0.256-2.2 1.466-1.062 2.772 2.015 1.407 1.466 3.666-1.122 0.146-0.866 3.301-1.466 4.399-0.148 0.271-0.516 0.193-0.733 0.733-0.422 1.049-0.206 1.903-0.733 2.933-0.191 0.374-1.36 1.168-1.466 1.466-0.418 1.181 0.008 3.129-0.733 4.399-1.085-0.207-0.489-1.863-0.733-2.933-0.164-0.718-0.787-1.085-0.733-2.2 0.098-2.019 2.45-4.855 2.933-8.064 0.503-3.351-0.461-7.023 0-9.531 0.4-2.178 1.546-3.584 2.199-5.132-0.516-4.333 0.789-7.429 2.2-10.997 0.086-0.217 0.586-0.146 0.733-0.733 0.428-1.713 1.727-2.527 2.2-5.132 3.23 0.542 3.003-2.373 5.132-2.933 0.348-3.197 2.941-5.899 3.666-8.798 0.373-1.492 0.035-1.731 0.733-3.666 0.137-0.378 1.383-1.192 1.466-1.466 0.183-0.604-0.292-1.648 0-2.199 0.343-0.646 1.754-0.896 2.199-1.467 0.941-1.208 1.251-4.75 3.666-5.132v-2.933c1.468-0.822 2.603-1.688 3.666-2.933 1.015-1.188 1.211-2.625 2.2-3.666 1.925-2.028 4.198-3.527 6.598-5.132-0.234-1.7 0.118-2.814 0.733-3.666 2.072 0.606 1.899-1.033 3.666-0.733 2.025 0.314 0.688-2.733 2.2-2.933 0.866-0.844 2.591-0.83 4.399-0.733 2.578-0.843 2.825-4.018 4.399-5.865 1.727 0.017 2.158-1.263 4.399-0.733 1.323-0.244 1.302-1.496 2.199-2.199 0.468-0.367 0.934-0.394 1.466-0.733 0.248-0.158 2.001-0.491 2.2-0.733 0.07-0.086-0.092-0.69 0-0.733 0.266-0.126 1.291 0.214 1.466 0 0.069-0.084-0.089-0.692 0-0.733 0.694-0.319 3.606-0.332 3.666-1.466 0.046-0.873 0.928-0.366 1.466-0.733 0.474-0.323 1.026-1.188 1.466-1.467 1.3-0.822 2.809-0.931 3.666-2.199 2.626-0.062 4.236-1.14 6.599-1.466 0.072-3.397-0.594-7.484 1.466-8.845z"/><path d="m111.46 68.183h2.933c-0.138 2.062-1.275 3.124-3.666 2.933 0.58-0.653 0.8-1.656 0.74-2.933z"/><path d="m200.91 69.649c1.423-0.614 1.675 1.313 2.199 1.466 1.215 0.353 2.382-1.55 3.666 0 0.599 2.798-1.561 2.838-2.933 3.666 0.119 0.853-0.162 1.305-0.733 1.466-0.571 4.726 1.083 7.227 1.467 10.997-0.653 0.325-1.312 0.644-1.467 1.466-2.316 0.117-4.425 0.026-5.132-1.466-1.571 0.873-4.097 0.792-5.132 2.2 0.097 1.807 0.11 3.532-0.733 4.399-1.387 0.812-3.464 0.935-5.132 1.466-2.116 0.572-1.83 3.546-2.933 5.132h-5.133c-0.623 2.768 2.436 3.442 0.733 5.132-1.495-0.216-1.438-1.984-2.933-2.2 0.479-3.82-0.868-6.624 0-8.798 3.255-0.566 2.951 2.425 4.399 3.666 2.613-0.808 1.922-4.92 2.933-7.332 3.631 0.161 4.43 3.543 7.331 0.733-1.215-2.489-2.936-4.24-0.733-6.598 2.146-0.191 2.253 1.658 4.399 1.466 1.09-0.621 1.061-2.36 1.466-3.666 2.146-0.191 2.253 1.658 4.399 1.466 1.727-0.62-0.609-3.216-0.733-4.399-0.456-1.987-3.063-1.824-2.933-4.398 3.59 0.455 2.7-3.615 3.63-5.861z"/><path d="m122.46 70.382c0.917 0.105 0.543 1.354 0.733 2.2 0.509 2.268 1.114 7.296 0 10.997-1.056-0.215-0.528-1.851-0.733-2.933-0.186-0.983-0.739-1.419-0.733-2.199 0.01-1.224 0.728-2.444 0.733-3.666 0.01-1.656-1.16-3.202 0-4.399z"/><path d="m106.33 74.781c-0.652-0.569-1.656-0.788-2.933-0.733 0.13-2.127 3.48-1.767 2.93 0.733z"/><path d="m118.79 73.315c1.285 1.104 0.789 4.121 0.733 6.598-0.047 2.074 0.301 4.829-0.733 5.865-1.254-1.044-0.811-4.444-0.732-6.598 0.08-2.181 0.1-4.594 0.73-5.865z"/><path d="m112.93 78.447c0.797 0.181 0.498 1.458 1.467 1.466-1.773 2.381-2.531 5.778-3.666 8.798-0.757-0.002-0.515-0.919-0.733-1.466-0.242-0.605-1.229-2.097-0.732-4.399 0.027-0.129 0.7-0.107 0.732-0.733 0.06-1.222 2.07-2.488 2.93-3.666z"/><path d="m104.13 79.913c-1.73 2.359-2.96-2.578 0 0z"/><path d="m98.265 81.38c2.12 0.323 3.342 1.545 3.666 3.666-1.905 0.439-2.638-0.294-2.199-2.2-1.247 0.269-1.383-0.572-1.466-1.466z"/><path d="m104.86 82.113c2.025-0.314 0.688 2.733 2.2 2.933-1.06 2.164-2.95-0.874-2.2-2.933z"/><path d="m114.4 83.579c0.922 0.181 0.739 1.458 0 1.466v6.598c-0.109 2.253 2.579 3.297 0.732 5.132-0.684-0.538-1.11-1.333-1.466-2.2-0.652 0.569-1.655 0.789-2.933 0.733 1.263-1.993 2.432-4.153 2.933-6.599 0.261-1.271-0.934-1.566-0.733-2.933 0.14-0.977 1.38-1.138 1.47-2.197z"/><path d="m93.133 92.377c-0.009 1.18-0.854 1.632-1.466 2.199-1.015 0.941-2.892 1.487-4.399 2.933-1.98-0.296 2.425-5.469-2.199-4.399 0.521-1.922 4.185-0.703 4.399-2.933 1.872 0.082 2.565 1.344 3.665 2.2z"/><path d="m98.998 94.576c2.463-0.611 0.891 0.829 0.733 2.2-0.122 1.059 0.088 4.454-0.733 2.199v-4.399z"/><path d="m114.4 97.509c2.605-1.14 0.442 2.49 2.199 2.2-0.866 1.089-0.635 3.275-2.933 2.933 0-1.95-0.29-4.186 0.73-5.131z"/><path d="m86.535 101.18c0.713 0.02 0.569 0.897 0.733 1.466-0.104 4.124 0.134 10.124 0 15.396-0.113 4.464 1.507 10.976-3.666 10.997 0.735-0.479-0.218-4.354 0.733-5.132 0.633-0.518 1.233-0.519 1.466-1.466 0.454-1.847-0.354-3.847 0.733-5.865 1.14-2.606-2.49-0.442-2.2-2.199-0.234-2.922-0.04-5.417 1.466-6.599 0.151-2.3-0.493-5.39 0.735-6.6z"/><path d="m60.875 108.51c1.184-0.207 1.262 0.693 2.199 0.733 0.471 0.626 0.152 2.458 0.733 2.933 1.338 1.095 0.904 4.011 1.466 6.599 0.131 0.604 0.721 0.722 0.733 1.466 0.039 2.363-2.533 5.709-1.466 10.264-3.428-3.017-0.422-8.365-0.733-12.463-0.313-4.13-1.755-6.61-2.932-9.53z"/><path d="m56.476 109.97c3.21 0.455 2.827 4.504 3.666 7.332-2.28-1.38-2.838-4.49-3.666-7.33z"/><path d="m67.473 110.71c1.892 0.063 0.771 3.139 3.666 2.2-0.651 2.534-0.311 5.704 0 8.798 0.539 5.375-1.455 12.282 2.199 14.663 2.495-0.863 1.232-4.183 1.466-6.598 0.228-2.351 0.377-3.856 0-6.599-0.25-1.819-0.11-4.03 0-5.865 0.067-1.128-1.012-4.78 1.466-4.399 0.618 9.939 0.921 19.38-0.733 28.593-1.386 0.071-0.865-1.456-1.466-2.2-0.361-0.446-2.062-0.023-1.467-1.466-2.305-0.105-2.519 1.88-2.933 3.666-2.568-1.017-1.245-4.547-1.466-6.599-0.159-1.473-0.78-3.073-0.733-4.399 0.063-1.782 1.197-3.387 1.466-5.132 0.812-5.24-0.586-9.87-1.465-14.65z"/><path d="m54.276 113.64c1.917 0.771 2.397 2.979 2.2 5.865-2.288-0.4-1.125-4.25-2.2-5.86z"/><path d="m122.46 113.64c2.276 0.552 2.957 5.305 1.466 7.332-2.04-0.89-1.37-4.5-1.47-7.33z"/><path d="m94.599 116.57c1.502 1.483 0.53 4.926 0.733 8.065 0.214 3.314 1.296 6.237 0.733 9.531-1.991 0.524 0.524-3.457-1.466-2.933 0.326-6.16-0.757-9.77 0-14.67z"/><path d="m51.343 120.24c0.853-0.119 1.305 0.162 1.466 0.733 1.856 2.573-0.005 6.497 0 9.531-0.917-0.105-0.543-1.354-0.733-2.199-0.363-1.62-1.122-4.41-0.733-8.06z"/><path d="m58.675 121.7c3.351-0.024 0.038 2.572 0.733 4.398-1.619-0.09-0.311-3.11-0.733-4.4z"/><path d="m44.012 122.44c1.056 0.166 0.256 2.188 1.466 2.2 0.429 1.309-1.343 2.31-1.466 3.666-0.107 1.178 0.568 1.695 0.733 2.933 0.541 4.048-1.064 8.942-0.733 13.197-0.569 1.337-0.788-0.439-0.733-1.466v-2.933c-0.951-2.128-0.951-5.203 0-7.332 0.133-1.6-0.6-2.333-2.2-2.2-0.347-2.302 1.974-1.937 2.2-3.666-0.097-1.81-0.112-3.54 0.733-4.4z"/><path d="m47.678 126.84c2.56 0.151 3.221 5.502-0.733 4.399-0.532-2.25 1.264-2.16 0.733-4.4z"/><path d="m128.32 126.84c1.921 0.976 1.4 3.254 0.733 5.132-1.54-0.6-2-3.87-0.73-5.13z"/><path d="m104.13 129.03c0.984 0.482 1.365 1.567 1.466 2.933-2.21 0.75-1.3-1.63-1.47-2.93z"/><path d="m131.26 129.77h1.466v1.466h-1.466v-1.47z"/><path d="m85.801 130.5c0.853-0.119 1.305 0.162 1.466 0.733v14.663c-1.055-0.216-0.528-1.851-0.733-2.933-0.186-0.983-0.74-1.419-0.733-2.2 0.012-1.471 0.811-2.192 0.733-3.666-0.105-2.01-1.151-4.09-0.733-6.59z"/><path d="m39.613 133.43c-0.282 2.407-2.144 3.232-2.933 5.132-2.497-1.551-0.275-2.129 0-4.399 1.316 0.1 1.547-0.89 2.933-0.73z"/><path d="m40.346 138.56c2.216 2.503-0.522 6.289 0 9.531-1.09-1.109-1.181-3.218-1.466-5.132-1.997 1.189-1.32 4.692-2.2 7.332-0.347 1.042-0.099 1.541-1.466 1.466 0.855-3.142-0.296-5.834-0.733-9.531 1.457-1.221 0.932 0.066 2.933 0 1.621-0.58 1.834-2.56 2.932-3.67z"/><path d="m27.149 153.23c1.554 0.23 0.159 3.475-1.466 2.933-0.534-2 1.457-1.48 1.466-2.93z"/><path d="m21.284 155.43c1.7 0.205 1.685 1.958 0.733 2.933-0.995-0.23-0.608-1.84-0.733-2.93z"/><path d="m30.815 156.16c2.077 0.764 3.055 0.764 5.132 0 1.874 2.036 2.527 5.293 2.199 9.531 0.092 1.619 3.11 0.312 4.399 0.733-0.243 3.521-0.42 4.391-0.733 8.798-1.114 0.063-0.287-1.574-0.733-2.199-0.324-0.455-1.977-0.363-2.199-0.733-0.503-0.837-0.458-2.241-0.733-2.933-0.446-1.124-0.858-2.145-1.466-3.666-0.284-0.711-1.117-1.443-0.733-3.666-4.298 0.645-1.507 5.045-1.466 7.331 0.106 5.925-0.214 10.436-1.466 15.396-0.557 2.207-0.909 4.104-1.466 5.865-0.076 0.241-0.696 0.02-0.733 0.733-0.018 0.337-0.521 1.558-0.733 2.199-0.37 1.119-1.372 2.735-1.466 4.398-0.082 1.442-0.944 2.475-1.466 3.666-3.074-2.181-0.72-5.048 0-7.331 0.036-0.115 0.607-0.229 0.733-0.733 0.471-1.884 1.467-3.808 2.199-5.865 0.497-1.396 0.23-2.947 0.733-4.399 0.131-0.38 1.383-1.19 1.466-1.466 0.204-0.673-0.181-1.52 0-2.2 0.723-2.712 1.939-5.085 1.466-8.064-0.011-2.188-1.906-2.493-2.199-4.399 0.617-1.827 0.96-3.928 0.733-6.599 0.353-2.32-2.252-1.67-1.468-4.41z"/><path d="m19.085 162.76c1.285 0.67 2.547 1.363 2.199 3.666-1.791 0.731-1.562 0.244-4.399 0.733-0.27-1.247 0.572-1.383 1.466-1.466-0.31-1.53 0.503-1.94 0.734-2.93z"/><path d="m54.276 167.16c1.359-1.782 0.495 4.833 0.733 6.598-1.359 1.78-0.494-4.84-0.733-6.6z"/><path d="m76.271 167.16c1.404 1.453 0.705 3.738 0.733 5.865 0.045 3.395 0.333 6.435 0.733 9.531 0.199 1.545 0.18 3.584 0 5.132-0.095 0.821 0.76 3.687-1.466 2.933 0.241-10.31-0.672-15.1 0-23.45z"/><path d="m28.616 168.62c2.221-0.138 1.017 2.657 1.466 5.132 0.167 0.917 0.998 4.098 0.733 6.599-0.121 1.137-0.339 3.256-0.733 4.399-0.093 0.268-0.694-0.002-0.733 0.733-0.055 1.057-1.395 1.585-1.466 2.933-0.065 1.229-0.316 1.396-1.466 1.466 1.506-6.81 3.671-13.44 2.199-21.26z"/><path d="m25.683 170.82c1.413 0.493-0.464 4.055-0.733 5.132-0.342 1.369-0.009 2.065-0.733 2.933-0.401 1.065 0.857 3.789-0.733 3.666v-4.399c0.956-2.21 0.308-6.04 2.199-7.33z"/><path d="m17.619 172.29c1.109-2.588 1.39 1.351 0.733 1.466-0.434 0.07-0.921-1.03-0.733-1.47z"/><path d="m72.604 173.76c1.038-0.021 1.051 3.285 0.733 5.132-0.441 2.568-0.59-0.09-0.733-1.466-0.17-1.64-1.239-1.75 0-3.66z"/><path d="m37.414 175.22c2.097 0.103 1.341 3.059 1.466 5.132-2.097-0.1-1.341-3.05-1.466-5.13z"/><path d="m41.079 176.69c3.274-0.342 2.572 3.293 3.666 5.132-1.315-0.093-1.546 0.897-2.933 0.733-1.133-1.06-0.645-3.75-0.733-5.86z"/><path d="m71.872 182.56c0.653 0.324 1.311 0.644 1.466 1.466 0.041 2.614-0.053 5.075 0 8.064 0.047 2.636 0.528 5.297 0 6.599-3.312 0.927-0.258-3.41-1.466-4.398-0.549-0.449-1.392-0.549-1.466-1.467-0.206-2.54 2.479-5.77 1.466-10.26z"/><path d="m19.085 185.49c0.477-2.067 0.851 1.688 0.733 2.199-0.34 1.47-1.377 0.59-0.733-2.2z"/><path d="m7.354 190.62h2.199c0.04 4.52 1.519 7.504 0.733 11.73-0.222 1.194-0.285 0.773-0.733 1.466-1.094 1.69-0.052 2.042 0 5.132 0-0.036-0.85 0.147-0.733 0.733 0.036 0.178 0.857-0.001 0.733 0.733-0.011 0.066-0.703 0.155-0.733 0.733-0.061 1.146 0.37 5.191 0.733 7.331 0.654 3.848 2.786 7.302 0.733 10.997-0.215 0.387-0.689-0.097-0.733 0.733-0.015 0.276 0.188 2.047 0 2.199-0.086 0.07-0.69-0.091-0.733 0-0.126 0.267 0.214 1.292 0 1.467-0.656 0.536-0.739 1.576-1.466 3.666-0.089 0.255 0.193 1.309 0 1.466-0.585 0.479-1.327 0.531-1.466 1.467-0.225 1.503 0.674 3.616 0.733 5.132 0.109 2.786-0.794 4.965-0.733 7.331-0.13 3.027 2.476 2.179 2.933 2.933 0.441 2.988-1.652 3.383-2.933 5.132-0.332 0.453-0.582 0.844-0.733 1.467 0.818 2.469 1.09 5.728 2.2 8.064 0.834 1.759 1.815 3.636 3.666 4.399v3.665c-0.224 1.691 2.118 0.814 2.2 2.2 0.376 1.862-0.036 3.32 0.733 5.865 0.1 0.33 0.746 0.843 0.733 0.732 0.201 1.75-0.864 3.28 0 4.399 0.875 1.084 1.888 0.886 2.933 1.466 0.674 0.375 1.085 2.488 2.933 1.467 0.522 3.271 1.008 5.712 1.466 9.53 0.026 0.22-0.15 1.344 0 1.467 0.733 0.6 0.136 1.066 0 3.666-0.178 3.372 0.129 7.198 0 11.73 0.107 1.603 1.847 1.574 3.666 1.466-0.29 5.332 0.699 11.94-0.733 16.129-2.302 0.347-1.937-1.973-3.666-2.199-0.08 2.397 0.408 5.842-1.466 7.332-1.734 1.378-0.693 7.475 1.466 10.264 4.113 0.349 5.938 1.127 7.332-2.199 0.186-2.629-2.202-2.687-2.199-5.132 2.39 0.132 3.528-1.724 3.666 1.466 2.072 0.606 1.899-1.033 3.666-0.733-1.01 3.389-3.223 5.575-5.132 8.065-3.688-0.512-5.11 1.243-8.798 0.732-0.056 2.5 2.717 2.172 5.132 2.2 1.608-0.836 2.996-1.893 5.865-1.467-0.68 0.556-1.739 1.901-2.933 2.199-1.134 0.284-1.814 0.286-2.933 0.733-0.363 0.146-2.271 0.614-2.933 1.467-3.382-1.506-7.68-2.096-8.065-6.599 1.533-1.599 2.093 0.366 4.399 0 0.872-4.293-2.287-4.556-2.933-7.332 0.304-3.117 1.282-5.561 2.933-7.331-0.541-1.659-2.794-1.604-2.933-3.666 0.364-4.279 1.624-7.662 5.865-8.064v6.599c2.164-2.201 0.763-4.457 1.466-8.798-0.64-1.071-0.582-2.839-2.933-2.199-0.431-8.123-1.981-15.127-3.666-21.995 2.389 1.033 1.513 5.33 4.399 5.865 0.375-3.062-0.409-4.968-1.466-6.599-0.119-0.858-1.337-0.618-2.2-0.732-1.205-5.394-6.74-6.457-8.064-11.73-0.097-1.808-0.111-3.532 0.733-4.399-0.784-3.859-3.839-5.446-3.666-10.264-0.14-0.594-0.736-0.731-0.733-1.467-0.507-1.447-1.956-1.954-3.666-2.199-0.644-3.247-1.654-5.939-1.466-8.798 0.199-3.023 3.091-5.285 2.199-8.798 0.012-2.188 1.906-2.492 2.2-4.398-0.218-1.493-1.469-1.953-2.2-2.933 0.855-3.924-0.253-3.648-0.733-7.332 1.457-1.221 0.932 0.066 2.933 0 0.65-3.991-2.161-5.332-0.733-8.064-0.379-2.128 1.949-2.354 2.933-3.666 0.366-0.488-0.227-1.596 0.733-1.466 0.063-7.884-1.071-14.57-1.466-21.994 0.191-2.253 1.59-3.298 2.199-5.133 0.354-2.309-2.25-1.659-1.466-4.398-0.094-1.33 0.897-1.57 0.732-2.95zm11.731 147.36c1.031-0.958 2.635-3.881 0-4.399-0.574 0.51-1.632 4.09 0 4.4z"/><path d="m18.352 192.08c0.107 0.37 1.397 1.213 1.466 1.467 0.237 0.868-0.675 0.441-0.733 0.733-0.17 0.85 0.7 0.47 0.733 0.732 0.625 5.038-0.464 13.757 0 19.795-0.058-0.234-1.46-1.388-1.466-1.466-0.042-0.587 0.817-0.729 0.733-1.467-0.479-4.2-1.127-13.01-0.733-19.78z"/><path d="m75.537 192.08c1.866 0.075 1.732 2.732 0.733 3.666-1.589 0.13-0.332-2.6-0.733-3.67z"/><path d="m13.953 195.02c1.437-1.743 0.159 5.255 1.466 6.599-2.972 0.28-0.808-4.57-1.466-6.6z"/><path d="m51.343 213.35c0.984 0.482 1.366 1.567 1.466 2.933-2.205 0.74-1.299-1.63-1.466-2.93z"/><path d="m18.352 216.28c1.134-2.241 0.646 3.18 0.733 4.398-1.134 2.24-0.646-3.18-0.733-4.4z"/><path d="m139.32 230.94c0.528 0.042 1.051-1.547 0.733-2.199-0.31-0.638-1.916-0.265-2.199-0.733-0.467-0.771-0.325-1.494-0.733-2.199-0.79-1.364-1.506-2.33-2.199-5.133h-4.399c-1.338-0.569 0.439-0.788 1.467-0.732h2.933c1.184-0.207 1.262 0.692 2.199 0.732 2.146 0.191 2.253-1.657 4.398-1.466 0.21 1.277-2.341 3.935 0.733 3.666 1.89-0.177-1.007-1.262 0-2.933 4.562 0.914 2.716 5.104 2.199 8.798-0.652 0.569-1.655 0.788-2.933 0.732 0.191 2.146-1.657 2.253-1.466 4.399-2.264-0.119-4.145 1.732-5.865 0-0.656-2.367 2.391-1.03 2.933-2.199-0.298-1.413-2.843-0.579-2.199-2.933 0.652-0.325 1.311-0.645 1.466-1.467 2.23-0.03 0.72 3.69 2.94 3.66zm0-5.13h1.467v-1.467h-1.467v1.47z"/><path d="m19.085 227.28c1.001-1.885 0.7 3.63 1.466 4.399 0.081 2.597 2.424-1.559 2.199 0.732 1.832 3.545-0.674 11.428 2.2 13.93-0.156 1.724-1.173 2.618-1.466 4.399-0.942 5.718 1.397 12.733 0.733 19.062v2.2 1.466c-0.995-0.227-0.608-1.836-0.733-2.933-2.174-9.067 1.083-23.566-2.2-31.525-1.247-0.27-1.383 0.572-1.466 1.467-3.378-1.205 0.624-2.452 0-5.133 0.413-3.36-1.299-4.58-0.733-8.08z"/><path d="m14.686 231.68c1.134 1.064 1.539 2.859 1.466 5.132-1.134-1.07-1.539-2.86-1.466-5.13z"/><path d="m30.815 232.41c1.519-0.207 0.529 2.166 1.466 2.933 1.632 1.335-0.949 1.267-0.733 4.399-1.672-1.02-0.273-5.1-0.733-7.33z"/><path d="m16.152 239.01c1.712 1.515 1.331 3.75 0.733 5.865-1.653-0.55-0.286-4.12-0.733-5.87z"/><path d="m16.152 247.8c1.675-1.863-0.209 6.032 1.466 6.599 1.873-0.082 1.455-2.455 1.466-4.399 1.362 0.992 0.793 3.115 0.733 4.399-0.059 1.248-0.544 3.062-0.733 4.398-0.1 0.707 0.151 1.503 0 2.199-0.133 0.611-0.701 0.72-0.733 1.467-0.05 1.149 0.843 1.322 0.733 2.199-0.22 1.751-1.344 3.6-1.466 5.132-0.645 2.356 2.417 1.005 2.199 2.933-0.349 7.249-0.579 11.207 0 18.329-2.828-3.391-1.862-8.322-2.199-12.464-0.69-8.49-1.769-20.1-1.466-30.8z"/><path d="m30.815 249.27c0.279-1.396 0.933 0.468 0.733 1.466-0.279 1.39-0.932-0.47-0.733-1.47z"/><path d="m31.548 253.67c1.672 1.017 0.273 5.104 0.733 7.331-0.957-0.97-2.263-5.35-0.733-7.33z"/><path d="m11.753 259.54c1.01-2.334 0.726 2.591 0.733 3.666-1.01 2.32-0.725-2.6-0.733-3.67z"/><path d="m35.947 261.73c0.844-2.372 0.83 1.969 0.733 2.933-0.844 2.38-0.829-1.96-0.733-2.93z"/><path d="m11.753 266.87c1.271 1.173 1.587 3.301 1.466 5.865-2.28-0.17-1.238-3.66-1.466-5.87z"/><path d="m11.753 273.46c0.796 0.182 0.497 1.458 1.466 1.467-0.315 2.03-2.305 0.04-1.466-1.47z"/><path d="m57.208 293.99h1.466c2.815-0.372 2.36 2.893 2.933 4.398 0.113 0.297 0.693-0.023 0.733 0.733 0.01 0.195-0.072 0.554 0 0.733 0.255 0.639 1.19 2.067 0.733 4.398-1.466 0.213-1.618-0.783-2.199-1.466-1.009-1.185-2.795-2.971-3.666-5.132v-3.66z"/><path d="m29.349 324.05c1.183-2.129 0.682 3.16 0.733 5.132 0.067 2.592-0.053 5.556 0 7.331-2.086 0.418-0.753-2.269-0.733-5.132 0.018-2.52-0.014-5.45 0-7.33z"/><path d="m33.748 323.32c0.653 0.325 1.312 0.644 1.466 1.466-0.604 1.84 1.425 6.313-1.466 5.865v-7.34z"/><path d="m24.217 348.98c0.234 1.7-0.118 2.814-0.733 3.666-1.089-0.866-3.276-0.635-2.933-2.933 0.851-0.62 1.966-0.98 3.666-0.74z"/><path d="m195.04 25.66c2.295 0.34 3.272-0.637 2.933-2.933 2.339 0.628 2.268-1.154 3.665-1.466 0.483-2.694 1.425-4.93 1.467-8.064 0.504-1.486-1.168-1.593-1.467-2.2-0.399-0.813 0.477-2.25-0.732-2.199-0.387-2.677 3.219-3.292 1.466-5.132-1.247-0.27-1.383 0.572-1.466 1.466-0.853-0.119-1.305 0.162-1.467 0.733h-2.933c-1.222 0.978-1.139 3.26-2.199 4.399-1.148 0.582-3.055 0.994-4.398 2.199-0.635 0.569-1.566 0.892-1.467 2.2-0.646 0.209-1.575-0.261-2.199 0-0.847 0.354-0.792 1.825-1.467 2.199-1.029 0.572-2.693 0.075-3.665 1.466-0.487 0.697-0.157 1.641-0.733 2.2-0.234 0.227-1.264-0.248-1.467 0-1.059 1.294-2.179 2.525-4.398 3.666-1.183 0.607-2.322 2.276-4.399 2.933-3.076-1.251-5.017 0.72-6.598-1.466-0.293 0.776-1.578 0.258-2.199 0.733-0.246 0.188 0.223 1.243 0 1.466-0.449 0.448-3.69-0.542-2.934 2.199-1.752 0.327-3.126 0.301-4.398 0.733-1.168 0.397-1.858 2.143-3.666 1.467-2.233 1.188-3.122 3.72-4.398 5.865-1.084 0.027-1.394 0.387-2.199 0.733-0.545 0.233-1.511 0.359-2.2 0.733-1.447 0.787-2.354 2.868-4.398 2.933-0.606 2.072 1.033 1.899 0.733 3.666-1.991-0.524 0.524 3.457-1.467 2.933-0.123 1.59 2.601 0.332 3.666 0.733-0.779 3.056-0.19 3.234 0 6.599 3.923 0.013 2.616-5.204 4.398-7.332 2.185 0.015 0.94 3.458 2.2 4.399 0.684-0.448 2.704-1.706 2.199 0.733 0.975-0.736 2.728-0.693 2.933-2.199 1.383 1.195-0.019 5.805-2.199 5.865 0.119 0.852-0.162 1.304-0.733 1.466-0.604 5.261-2.593 9.137-5.865 11.73 0.023 3.259-1.748 7.606-0.733 9.531 0.543 0.354 0.986 1.074 1.467 1.466 1.233 1.009 1.198 0.93 3.665 1.466 1.545 0.336 1.569 0.507 3.666 0 0.894-0.216 2.013 0.064 2.933 0 0.06-0.004 0.077-0.864 0.733-0.733 0.171 0.034-0.005 0.92 0.733 0.733 0.191-0.049 1.888-0.5 2.199-0.733 0.221-0.166 0.542-1.388 0.732-1.466 0.615-0.25 1.605 0.291 2.2 0 1.239-0.607 2.349-1.51 2.933-2.2 2.719 0.52 3.146-1.252 5.865-0.733 2.349-1.104 0.319-3.163 1.466-4.399 2.302-0.347 1.938 1.973 3.666 2.199 1.254-1.789-0.735-5.235 0-8.798 1.871-0.184 1.046 2.172 1.466 2.933 0.826 1.492 1.648 1.951 2.933 2.933 0.995-0.227 0.608-1.835 0.733-2.933 2.257 0.546 1.409-2.012 3.666-1.466v3.666c0.41 0.634 0.911 2.131 2.199 2.199 0.809 0.042 2.604 3.646 2.199 5.865-0.315-0.533-1.124-0.999-1.466-1.466-1.023-1.398-1.975-2.1-2.933 1.466-1.506-0.205-1.463-1.958-2.199-2.933-1.413 0.298-0.579 2.842-2.933 2.199 0.5 0.61 1.041 0.741 1.466 1.467 0.341 0.583-0.206 1.52 0.733 1.466v10.998c-2.945-0.771 0.097-2.979-0.733-5.865-0.231-2.797-4.167-4.647-2.199-7.332-0.32-1.088-0.938 0.289-2.199 0-0.736-0.975-0.693-2.728-2.2-2.933-3.054 2.256 0.26 7.089 2.2 8.798v4.399c0.505 1.971-1.516 1.417-2.2 2.199 0.337 1.351-0.438 2.645 0 4.399 0.08 0.321 0.739 0.904 0.733 0.733 0.035 1.093-0.888 1.395-0.733 2.199 0.274 1.421 1.212 1.915 1.467 3.666 0.415 2.272 3.448 1.928 3.666 4.399-4.187 0.457-6.506 2.781-5.865 8.064-2.001 0.534-1.477-1.457-2.933-1.466-4.467 1.154-4.975 6.268-8.064 8.798h-4.399c-2.249 0.806-1.957 3.513-2.933 5.132-0.177 0.293-1.354 0.482-1.466 0.733-0.169 0.375 0.225 1.129 0 1.466-0.182 0.271-1.359 0.495-1.467 0.733-0.488 1.083-0.817 2.455-2.199 3.666-0.465 0.407-1.517 1.43-2.199 1.466-2.062 0.108-4.049 5.084-6.599 5.865-0.688 3.019-1.258 5.763-2.199 9.531-0.317 1.267-0.874 4.604-1.467 7.332-0.134 0.614-0.63 0.73-0.733 1.466-0.471 3.372-0.431 6.211-1.466 9.531-0.339 1.086-0.886 2.947-1.467 4.399-0.344 0.86-0.112 2.199-0.732 4.399-0.059 0.207-0.697 0.047-0.733 0.733-0.011 0.195 0.071 0.554 0 0.733-0.292 0.729-0.477 1.174-0.733 2.199-0.137 0.547-0.7 0.6-0.733 0.733-0.274 1.136 0.24 3.002 0 4.399 0.018-0.103-0.648 0.395-0.732 0.732-0.618 2.473-0.928 6.04-0.733 10.265-0.859 0.118-0.618 1.337-0.733 2.199-1.269 1.175-2.147 2.74-2.933 4.399-0.073 2.272 0.896 3.502 1.467 5.132-0.002 2.931-1.465 4.4-1.467 7.331 0.623 1.088 1.846 1.576 3.666 1.467-0.234 1.721-1.158 2.752-0.733 5.132-1.971 0.505-1.417-1.516-2.199-2.199-1.85-0.468-3.031 0.636-4.399 0-0.205-0.096 0.187-1.314 0-1.467-0.729-0.597-2.261-0.771-2.199-2.933 2.001-0.066 1.476 1.222 2.933 0-0.363-4.449 2.823-6.299 0-9.531-3.412-0.234-1.282 5.072-2.933 6.599-2.307 0.366-2.865-1.598-4.398 0-1.521 0.295-1.089 3.288-2.199 4.399-1.265 1.265 1.898 2.803 1.466 4.398 2.302 0.362 1.937-2.527 3.666-0.733-0.08 1.824-1.374 2.27 0 3.666 1.944 0.233-0.687-4.107 2.199-2.933 2.603 0.374 2.081 3.349 1.466 5.132 0.547 1.654 4.112 0.287 5.865 0.733 0.685-0.537 1.111-1.333 1.467-2.199 2.244 0.444 3.819 1.557 5.865 2.199-0.43 1.525-1.541 2.369-2.199 3.666-7.771-3.47-19.466 5.23-21.262-4.399-1.559 0.415-3.387 0.184-4.399 0.733-1.621 0.881-1.987 3.051-2.933 4.399 0.32 1.088 0.938-0.29 2.2 0 0.754 2.862-2.208 3.572-4.399 4.398-0.259 0.098-1.305-0.198-1.466 0-0.358 0.438-2.109 1.166-4.399 0.733-1.906 0.293-2.211 2.188-4.399 2.199-0.72-0.99-1.956-1.465-2.933-2.199-3.064 0.433-5.156 1.083-8.798 1.466-1.152 0.122-1.266 0.628-2.2 0.733-2.936 0.333-5.08-0.013-8.064 0.733-0.794 0.198-3.97 0.931-5.865 1.466-0.247 0.07-1.318-0.181-1.466 0-0.766 0.937-1.493 0.383-2.933 0.733-5.425 1.321-9.243 3.995-15.396 2.199 0.431 1.047 0.205 1.901 0.733 2.933 0.112 0.219 1.455 1.376 1.466 1.467 0.066 0.535-1.109 1.23-0.733 2.199 0.412 1.061 0.827 1.91 1.466 2.933 0.252 0.403 0.688-0.111 0.733 0.733 0.1 1.899 2.8 2.761 4.399 4.398 1.323 1.355 1.273 4.211 3.666 3.666 1.264 5.579 2.7 10.985 6.598 13.93-0.569 0.652-0.788 1.655-0.733 2.933 1.258 1.675 2.161 3.704 3.666 5.132v8.064c-3.663-0.491-2.503-5.806-4.399-8.064-0.328-2.115-3.154-1.732-3.666-3.665-0.145-2.1-0.091-4.002 2.199-3.666-0.636-2.297-1.816-4.049-3.666-5.132-1.646 1.694-0.588 6.904 0 8.798-1.625 0.403-1.044-1.4-2.2-1.467-0.589 0.388-1.19 0.765-2.199 0.733-0.017 1.727 1.263 2.158 0.733 4.398 2.789 1.078 0.144-3.277 2.933-2.199 0.903 2.073 0.903 4.525 0 6.599-1.59 0.123-0.332-2.601-0.733-3.666-1.957 0.334-3.659 2.854-2.2 4.399 0.483 2.17 2.287-1.34 3.666 0.732-1.521 1.508 0.691 9.505-2.933 6.599 0.049 2.149 1.676 2.723 2.933 3.666 2.372 0.905 0.56-2.373 2.933-1.467-0.419 2.038 1.186 3.123 1.466 5.132 0.464 3.323-0.978 6.612 0 9.531-1.506 0.205-1.463 1.958-2.2 2.933-1.703 0.819-1.962-0.157-3.666 1.467 0.308 4.09 4.204 4.594 4.399 8.798-5.045-0.82-6.315-5.416-5.865-11.73-1.098-1.102-1.312-3.088-2.933-3.666-1.911 2.217-4.035 10.981 0 12.464-0.52 2.719 1.252 3.146 0.733 5.865 1.724-0.231 0.435-3.476 2.933-2.933-0.503 5.117-3.858 7.383-5.865 10.997-1.244-0.477-0.458-1.686 0.733-1.467-0.402-2.667 2.418-6.319-0.733-7.331-1.056 0.166-0.255 2.188-1.466 2.199 0.442 4.597-0.554 7.755-0.733 11.73-3.647 0.053-0.48-2.156-2.2-3.666-1.525 0.8-0.505 2.884-0.733 4.399-0.006 0.041-0.704 0.175-0.733 0.732-0.051 0.976 0.04 1.958 0 2.933h-2.933c-0.279 3.437 1.288 4.17-0.733 5.865-2.744-1.672-3.231-7.784-2.2-10.997-0.227-0.995-1.835-0.608-2.933-0.733-0.35-1.247 0.617-2.191 0.733-3.665 0.271-3.44-1.027-7.822 2.199-8.064 0.295 3.472-1.309 5.045-0.733 8.797 0.482 0.984 1.567 1.366 2.933 1.467 0.007 1.947-0.277 4.188 0.733 5.132 2.018-0.841-0.039-2.915 0-4.398-0.003 0.141 0.711-0.315 0.733-0.733 0.053-1-0.038-4.924 0-7.331 1.917-0.207 3.153 0.268 2.933 2.199 1.991 0.524-0.524-3.457 1.466-2.933 0.3-1.767-1.339-1.594-0.733-3.666 0.796-0.182 0.498-1.458 1.466-1.466 0.325 1.065 0.644-0.075 1.466 0-0.439-2.201-0.745-4.32-0.733-6.599 0 0.023 2.251-7.279 0.733-8.798-0.956-0.956 0.201-0.115 0-2.933-0.084-1.182-0.558-1.248-0.733-2.199-0.266-1.442 0.165-2.94 0-4.399-0.2-1.765-1.179-5.658-0.733-9.531 0.183-1.583 1.101-2.864 0.733-5.864-0.298-2.432-0.709-1.975 0-5.133 0.482-2.147 1.509-5.961 0-9.53 3.085-1.131 0.116 3.793 2.199 3.665 2.623-0.31 2.063-3.802 2.2-6.598 0.974-0.736 2.728-0.693 2.933-2.2-1.184-1.016-2.322-2.077-3.666-2.933-3.803 0.984 1.837 7.085-2.933 7.332-0.276-3.793-3.454-8.954 0.733-10.997-0.428-1.705-1.991-0.521-2.933-1.467-0.84-0.844 0.238-3.735-2.933-2.933v-5.132c-0.14-0.594-0.735-0.73-0.733-1.467-0.496-0.81-2.436-3.803-2.933-2.199-1.056-0.166-0.255-2.188-1.466-2.199-0.027-4.616 0.468-9.754-1.466-12.464 0.062-2.626 1.141-4.236 1.466-6.598-0.423-2.418-2.769-1.052-4.398-0.733 0.806-1.832-2.11-1.971-2.2-3.666-0.049-0.934-2.134-2.422-2.199-3.666-0.017-0.314-0.276-2.703-1.466-2.933-1.64 0.316-0.297 3.613-0.733 5.133 0.433 1.521 1.411 2.499 2.933 2.933-0.017 1.727 1.263 2.158 0.733 4.398-2.259-0.674-0.879-4.986-5.132-3.666 0.559-3.979-0.904-5.938-0.733-9.53 0.984-0.482 1.365-1.567 1.466-2.933 1.184-0.207 1.262 0.692 2.199 0.732 0.33-1.414 0.788-2.701 1.466-4.398 0.215-0.539 0.622-0.485 0.733-0.733 0.464-1.034 0.203-1.897 0.733-2.933 0.188-0.366 1.367-1.177 1.466-1.466 0.295-0.859 0.455-2.577 0.733-3.666 0.645-2.524 1.107-5.626 2.199-8.798 0.092-0.267 0.694 0.001 0.733-0.733 0.01-0.194-0.071-0.554 0-0.732 0.765-1.911 2.496-6.11 3.666-8.798 3.226 1.288 1.119 4.752-1.466 5.132-1.504 6.025-5.14 13.159-2.933 20.528 0.896 1.059 2.798 1.111 3.666 2.199 2.026-1.73 1.257-4.627 0.733-7.331-1.724 0.23-0.435 3.475-2.933 2.933-0.11-3.749 1.496-6.715 2.199-9.531 0.348-1.391-0.029-1.888 0.733-3.666 0.178-0.415 1.34-1.138 1.466-1.466 0.536-1.402-1.106-4.784 2.199-4.399 1.458 2.207 0.127 7.204 2.933 8.064 1.875-1.96 0.249-6.888 0-9.53 2.481 0.281 1.154-3.245 4.399-2.2 0.1 4.743-1.25 8.037-1.466 12.464 2.098 0.851 1.693-2.26 2.2-3.666 0.781-2.169 1.863-3.185 1.466-6.598-0.213-1.83-2.025-2.649-1.466-4.399 0.859-0.118 0.618-1.336 0.733-2.199 1.773 0.915 2.372 3.005 2.933 5.132 2.969-0.791-0.224-3.491 0.733-6.598 1.875-0.032 0.894 0.545 0.733 1.466 0.985 1.458 1.397 3.49 2.2 5.132 1.653-0.546 0.287-4.112 0.733-5.865 0.859-0.118 0.619-1.336 0.733-2.199 0.995 0.227 0.608 1.835 0.733 2.933 0.995 0.227 0.608 1.835 0.733 2.933 1.506-0.205 1.463-1.958 2.199-2.933-0.432-2.257-0.188-5.189-2.933-5.132 0.127-4.557-0.822-5.669 0-9.531 2.709 0.712 2.243 4.6 2.933 7.332 0.118 0.859 1.337 0.618 2.2 0.733 0.148 3.798-2.522 9.273 0 10.997-1.968 1.942-4.313 3.508-5.132 6.599-1.493-1.505-4.416-0.695-4.399 1.467-2.042-1.675 1-3.883-0.733-5.865-1.679 1.672-0.295 3.834-0.733 5.865 0.081-0.374-0.764 0.779-0.733 0.732-0.473 0.709-0.472 1.156-0.733 2.2-0.187 0.747-0.824 3.16-1.466 5.132-1.69 0.225-0.814-2.118-2.199-2.199-3.132 2.012 0.744 6.439 0.733 10.264-0.004 1.61-0.569 1.836-0.733 2.933-0.133 0.889 0.292 2.089 0 2.933-0.093 0.269-0.694-0.002-0.733 0.733-0.064 1.229-0.315 1.396-1.466 1.466-0.67-3.395 1.72-5.291-0.733-6.599-1.241 1.417-1.577 4.3-1.466 8.065-0.859 0.118-0.619 1.336-0.733 2.199-0.652 0.569-1.655 0.788-2.933 0.733 0.205 2.139-0.176 2.521-1.466 1.466 0.245 1.71 0.751 3.159 2.2 3.666 2.337 0.626 2.783-0.639 3.666-1.467 1.874-0.499 0.988 1.255 1.466 2.2 0.441 0.87 1.153 1.223 1.466 2.199 0.488-0.636 2.145-0.429 2.2-1.467 0.084-1.604 1.786 0.282 2.199 0 1.023-0.698 0.898-1.859 2.2-2.933 0.8-0.741-2.225-3.179-0.733-4.398 0.042-0.035 0.732 0.032 0.733 0 0.025-0.511-0.968-1.743 0-3.666 0.265-0.526 2.385-1.02 1.466-3.666 1.745 1.678 2.125 4.719 2.199 8.065 3.595-0.804 1.758-7.04 2.2-10.998 1.155 0.334 1.773 1.336 2.199 2.933 0.414 1.55-0.938 3.812 0.733 4.399 2.205 0.739 1.299-1.634 1.466-2.933-0.547-3.616-0.547-4.448 0-8.064 2.894 0.939 1.774-2.137 3.666-2.199-0.581-6.507-0.254-13.921-2.199-19.062-0.713-1.754 1.677-1.979 2.199-2.933 0.394-0.719 0.471-2.772 0.733-3.666 0.064-0.219 0.696-0.037 0.733-0.733 0.039-0.731-0.031-1.468 0-2.199-3.038 0.139-1.094 5.259-4.399 5.132 0.107-2.72 1.193-4.735 1.466-7.332 0.065-0.623-0.221-1.618 0-2.199 0.16-0.421 1.22-0.404 1.466-0.733 0.195-0.26-0.243-1.267 0-1.466 0.726-0.594 0.235-1.93 0.733-3.666-0.216-1.495-1.984-1.438-2.2-2.933-1.056 0.411-1.789 1.144-2.199 2.199-1.64-0.315-0.297-3.613-0.733-5.132 0.995 0.227 0.608 1.836 0.733 2.933 2.061 0.106 2.114-1.795 2.199-3.666 1.01-2.334 0.726 2.59 0.733 3.666 0.176 1.29 1.261 1.671 2.932 1.466 0.494 3.67-0.679 5.675-0.733 8.798-0.392 1.798 2.379 2.112 1.466 5.132-0.12 0.398-0.736 0.749-0.733 0.733-0.162 0.911 0.276 2.053 0 2.933-0.075 0.239-0.695 0.021-0.733 0.733-0.074 1.398-1.888 3.404-1.466 6.599 0.283 2.141 1.242 5.815 0.733 10.264 0.908 3.246 5.96 2.349 5.132 7.332h3.666c-0.664-2.874-0.894-4.573 0.733-6.599 2.263 0.895 1.555 2.927 1.466 5.132-0.04 0.984-3.18 2.896 0 3.666 1.104-0.441 0.721-2.548 1.466-3.666 0.49-0.734 1.223-1.297 1.466-2.199 0.723-2.675-0.637-6.099 1.466-8.064 3.239-0.325 0.457 2.434 0.733 3.666 0.525 2.336 2.661 3.756 3.666 5.865 1.056-0.166 0.255-2.188 1.466-2.2-0.05-2.149-1.676-2.723-2.933-3.665 0.161-2.361-1.297-3.103-0.733-5.865-0.02-0.713-0.897-0.569-1.466-0.733-2.238-2.537 2.152-0.145 2.933 0.733 1.293-0.663 2.271-1.641 2.933-2.933-1.505-5.582-2.782-11.393-3.666-17.596-0.433-1.521-1.411-2.499-2.933-2.932-0.066-2 1.221-1.476 0-2.933-0.441-0.837-0.872-1.868-2.2-2.2-0.275-0.069-1.28 0.19-1.466 0-0.49-0.5-0.186-2.565-0.733-2.933-0.495-0.333-1.645 0.238-2.2 0-0.321-0.138-1.207-1.712-2.932-1.466-1.672 1.017-0.273 5.103-0.733 7.332v3.666c-0.995-0.227-0.608-1.835-0.733-2.933-1.425-3.188 1.619-9.604-1.466-12.463-1.7 0.234-2.815-0.118-3.666-0.733-0.862-0.307-0.382 1.305-0.733 1.466-0.762 0.349-2.578-2.06-2.933 0.733-2.086-1.335-2.815-4.028-4.399-5.865-2.064 0.741 0.202 3.114 0 4.399-2.306 0.84-1.782-1.151-2.933-1.466-1.633 0.75 0.958 3.371 0 5.865-0.984 0.482-1.366 1.567-1.466 2.933-2.189 0.353-1.746-2.048-2.2-2.933-0.174-0.338-1.389-1.212-1.466-1.466-0.196-0.648 0.259-1.577 0-2.199-0.814-1.962-2.829-3.529-2.199-5.865 1.933 0.511 1.55 3.337 3.666 3.666 0.249-2.273-1.697-3.502 0-5.132 1.884 0.071 1.048 2.862 2.933 2.933 0.253-3.186-1.773-4.092-2.199-6.599 0.963 0.259 1.153 1.291 2.199 1.466 1.687-1.735 0.263-6.58 0.733-9.531 2.257 0.546 1.409-2.013 3.666-1.466-0.124 1.835 1.126 2.295 2.2 2.933v5.865c0.645 0.788 0.606 0.335 2.199 0.733 0.893 0.223 4.277 0.439 4.399-1.466 1.641-0.439 0.717 2.122 2.2 2.2 0.943 0.049 0.921 1.208 1.466 1.466 0.445 0.211 1.86-0.334 2.2 0 0.608 0.599-0.193 2.647 0.733 2.933 1.315 0.093 1.546-0.897 2.933-0.733-1.918 4.205 1.936 4.195 1.466 8.798 5.653-1.639 0.319-7.814 2.2-11.73 3.319 0.103 1.871 4.972 2.199 8.065 0.739 1.705 2.524 2.364 5.132 2.199 0.922-0.181 0.739-1.458 0-1.466-0.207-1.184 0.693-1.262 0.733-2.199 2.31-0.354 0.549 3.361 2.2 3.666 2.805 0.632 1.353-1.569 1.466-2.933 0.12-1.448 0.74-3.131 0-3.666-0.476-1.552 1.247-1.725 1.466-2.933 0.544-2.993-1.396-6.391-0.733-10.264 3.413-0.256 2.014 3.443 0.733 4.399 1.098 1.102 1.312 3.087 2.933 3.666 2.395-0.883-0.414-3.441 0-5.132 0.137-0.56 1.451-0.468 1.466-1.466 0.018-1.184-1.375-2.284-1.466-3.666 0.014 0.207 0.693-1.131 0.733-1.466 0.208-1.735 0.064-4.117 0-5.865-0.044-1.192-0.575-1.243-0.733-2.199-0.533-3.23 0.338-5.738 0.733-8.798 1.587 1.452 0.444 4.37 0.733 7.332 0.112 1.148 0.653 1.272 0.733 2.2 0.271 3.139 0.132 6.023 0.733 8.797 0.212 0.981-0.333 2.122 0.733 2.2 1.89-0.177-1.007-1.262 0-2.933 3.527 0.068 1.543 5.456 5.132 5.865 0.934-0.166 0.96-2.188 0-2.2 0.063-1.041 0.121-2.076-0.733-2.199 0.63-0.591 0.436-2.008 1.466-2.2 0.745-0.476 0.758-1.686 2.199-1.466 0.505-1.971-1.516-1.417-2.199-2.199 0.063-1.041 0.121-2.076-0.733-2.2-0.498-2.271 0.332-4.837 0.733-6.598 0.254-1.117-0.499-2.83 0.733-2.933 0.546-2.257-2.013-1.409-1.466-3.666 1.46-3.684-0.178-5.357-0.733-8.798-0.118-0.859-1.336-0.619-2.199-0.733-0.84-3.04 1.542-2.856 1.466-5.132-0.393-4.006-1.705-7.093-2.2-10.998 2.479 0.943 3.748 3.095 6.598 3.666v5.865c0.118 0.859 1.337 0.618 2.2 0.733-0.12 0.853 0.161 1.305 0.732 1.466v2.933c0.505 1.972-1.516 1.417-2.199 2.2-0.059 2.874-1.292 4.573-2.199 6.598 2.366 0.656 1.03-2.391 2.199-2.933 1.356 0.11 0.45 2.483 1.467 2.933 1.476-0.98 2.396-4.719 4.398-2.933-0.269 2.175-1.271 3.617-2.933 4.399 0.006 3.034-1.856 6.958 0 9.531 1.311-0.979 1.143-5.369 3.666-2.933 0.167-1.299-0.739-3.672 1.466-2.933 0.13 7.935 0.834 15.295 1.467 22.728h-3.666c-0.035 3.142-0.79 5.564-2.199 7.332 0.009 1.457 2 0.932 1.466 2.933 1.918 0.207 3.153-0.268 2.933-2.2 1.732 0.65-1.682 4.094 2.199 3.666 2.577-2.671 0.071-6.526 1.467-9.531 1.728 0.017 2.158-1.263 4.398-0.733 2.04-0.894 1.362-4.503 1.467-7.332 2.969 0.791-0.225 3.491 0.733 6.598 3.657-0.109 0.449-3.287 2.933-5.132 1.456-1.221 0.932 0.066 2.933 0 0.137-6.09-1.589-10.737 2.199-13.93-0.312-2.62-3.894-1.972-2.933-5.865-1.603 0.108-1.574 1.847-1.467 3.666-3.515-0.827-2.58 2.796-4.398 3.666-0.605 2.072 1.033 1.899 0.733 3.666-0.368 1.031-2.031 0.178-2.933 0.733-0.361 0.223-0.089 2.168-1.467 1.466-2.109-2.477 0.918-4.511 2.933-5.132-0.119-0.853 0.162-1.304 0.733-1.466v-5.132c2.355 0.645 1.005-2.417 2.933-2.2-0.088-2.112 0.4-4.799-0.733-5.865-1.273-0.244-1.601 1.097-2.933 0.733-0.092-0.025-0.489-2.092-0.733-2.2-1.146-0.504-1.426 2.766-2.933 0.733-1.002-0.938-1.002-3.462 0-4.399-3.083 1.759-3.079-1.462-5.864 0-0.349-2.792 0.311-4.577 2.199-5.132-0.063-1.041-0.121-2.076 0.732-2.199 0.15-2.294-0.494-5.382 0.733-6.599-0.588-2.505 1.092-4.186 0.733-0.733v5.132c0.91 2.094 2.132-3.186 3.666-0.733-0.206 2.482-1.167 4.21-0.733 7.332 1.134-1.065 1.539-2.86 1.466-5.132 2.817 0.849 0.909 6.423 1.467 9.531 2.598-0.091 1.216-4.16 2.933-5.132 2.978 1.421 0.802 7.997 1.466 11.73 2.781-0.189 2.427-4.497 2.933-7.332 3.097 2.298-0.332 7.017 0.733 11.73 0.885 1.07 3.205 0.705 2.199 3.666 0.876 1.928 2.511-3.455 4.399-0.733-0.284 3.604-5.316 5.619-2.933 9.531 4.082 0.416 3.414-7 6.599-5.132-1.486-2.203 0.151-6.351 0.732-8.798 1.022-0.251 1.066 2.333 0.733 3.666-0.083 0.333-0.74 0.886-0.733 0.733-0.049 1.088 1.383 2.438 0 4.399 1.92-0.909 2.259-3.345 2.933-5.132 0.723-1.914 1.727-3.515 1.467-5.865-0.015-2.185-3.459-0.94-4.399-2.2 0.59-4.5-1.511-6.309-2.199-9.531-1.928-0.217-0.577 2.844-2.933 2.199 0.093-1.315-0.897-1.546-0.733-2.933-0.285-0.896-1.666-0.831-2.199-1.466-0.517-0.615-0.069-2.931-1.466-2.933-0.434-3.121 0.527-4.849 0.732-7.332 2.025 0.418 4.111 0.776 3.666 3.666 1.548-1.293 2.167-1.653 4.399-0.733v-2.933c-1.271-1.251-1.922 0.116-4.399-0.733-0.955-0.486-0.278-1.875-0.733-2.933-0.588-1.367-2.714-2.005-2.199-4.399-1.192-0.835-2.094 1.36-2.933 2.2-0.874 0.874-0.252 1.495-0.733 2.932-0.042 0.126-1.438-0.123-1.466 0-0.554 2.447 0.088 5.692 1.466 7.332-0.615 0.851-0.967 1.966-0.732 3.666 0.224 1.69-2.118 0.814-2.2 2.199-0.916-0.105-0.543-1.354-0.732-2.199-0.22-0.978-0.698-1.406-0.733-2.2-0.053-1.185 0.562-1.264 0.733-2.199 0.298-1.623-0.195-3.785 0-5.132-0.021 0.145 0.656-0.425 0.732-0.733 0.115-0.46-0.088-1 0-1.466 1.472-1.165 3.866-3.833 2.2-5.865-0.746 0.477-0.759 1.686-2.2 1.466-0.091-3.024 1.274-4.591 0.733-8.064 1.185 0.207 1.263-0.693 2.199-0.733 0.225-4.663 0.834-8.942 1.467-13.197-4.07-0.495-2.486 4.829-3.666 6.599-0.177 0.266-0.476 1.989-0.733 2.199-0.599 0.49-0.506 0.56-0.732 1.466-0.242 0.967-1.304 1.15-1.467 2.2-1.565-0.458-0.687-4.513 0-5.132 1.448-0.507 1.955-1.956 2.199-3.666-1.097-2.89-3.06 3.131-3.665 0.733 0.49-3.419 3.423-4.397 2.933-8.798-1.996-0.577-2.024 2.113-3.666 2.2-0.08 0.004-1.387 0.638-1.467 0.733-0.085 0.102 1.014 1.517 0.733 2.2-0.079 0.192-1.323-0.174-1.466 0-0.232 0.284-1.384 1.286-1.467 1.466-0.122 0.265 0.932 1.384 0.733 2.199-0.193 0.793-1.449 0.5-1.467 1.466-2.449-0.659-0.77-1.77 0.733-2.199-0.738-1.705-2.523-2.364-5.132-2.2-1.881 0.075-1.179 2.732-2.199 3.666-1.827-0.617-3.928-0.96-6.599-0.733-0.547 2.991 4.748 0.14 3.666 3.666-2.994-0.018-5.101 0.328-3.666 2.933-2.553 1.113-4.547 2.784-8.064 2.933 0.852-4.518-4.017-3.315-4.399-6.599 1.799-2.499 4.905-0.85 8.064-0.733 1.783-0.6-1.453-3.865 0.733-5.132 1.677 0.767 4.422 0.465 5.865 1.466 2.133-0.637 0.825-1.098 0.733-2.933 1.735-0.708 3.602-1.286 2.933-4.399 3.112-0.18 3.947 1.918 7.331 1.466-0.942 2.295-1.516 0.378-3.665 1.466 0.507 2.298 1.955 0.956 3.665 0.733 2.296-0.943 0.378-1.516 1.467-3.666 0.717-0.565 1.478-0.886 2.199-1.466 0.71-0.57 1.184 0.327 1.467-0.733 0.121-0.457-0.094-1.002 0-1.466-0.052-1.79-1.872 0.204-2.933 0 0.069 0.013-0.37-0.643-0.733-0.733-0.951-0.238-2.449 0.036-2.199-2.199 1.756 0.443 3.345 1.054 5.865 0.733 2.521-1.389 3.729-4.092 5.132-6.598 1.306-0.405 3.045-0.377 3.666-1.466-1.703-2.442-3.838 0.397-5.865 0.733-5.194 0.862-11.046 1.061-15.396-0.733 0.269 2.175 1.271 3.617 2.933 4.399-0.08 1.824-1.374 2.27 0 3.666 0.621 1.09 2.36 1.061 3.666 1.466 1.69-0.224 0.814 2.118 2.199 2.2-0.546 1.653-4.112 0.287-5.865 0.733-0.721-0.973-1.06-2.003-2.199-2.933-0.876-0.713-2.293-0.639-2.933-1.466-0.2-0.258 0.244-1.266 0-1.466-0.255-0.208-1.293-0.48-1.467-0.733-0.182-0.265 0.239-1.271 0-1.466-0.074-0.061-0.703 0.079-0.732 0-0.499-1.303-0.155-3.362-0.733-5.132 1.254 0.032 1.898-0.545 2.199-1.467 2.031-0.095 4.375-1.226 8.064-0.733 1.25 0.167 1.601 0.796 2.933 0.733 2.278-0.107 2.32-0.437 5.132-0.733 1.601-0.168 3.947-1.268 7.332-0.733-0.138-0.022 0.339 1.226 0.733 0.733 1.317-1.647 0.742 0.71 2.933 0 2.882-0.935 4.017-3.153 5.132-5.865 6.415-0.146 11.73-5.614 18.328-7.332 2.121-0.552 5.127 0.049 7.332-0.733 3.595-1.275 7.502-4.908 9.531-8.798 3.009-0.407 5.176-2.208 7.331-3.666 0.514-0.347 0.997-1.123 1.467-1.466 1.013-0.741 3.065-1.613 4.398-2.933 0.012-2.677 2.084-3.292 2.933-5.132 3.296 0.858 6.546 1.763 8.798 3.666-0.467 2.793-1.067 5.405-0.733 8.065 0.32 2.545 0.883 3.803 0 7.332-0.126 0.504-0.717 0.654-0.732 0.733-0.189 0.927 0.245 2.021 0 2.933-0.564 2.091-2.114 4.34-2.2 6.599 1.788 1.297 2.012-0.412 3.666-1.466 0.688-0.439 2.571-0.618 4.398-1.466 0.35-0.162-0.066-0.691 0.733-0.733 0.262-0.014 1.165-0.554 1.467-0.733 0.296-0.176 0.48-1.353 0.732-1.466 1.384-0.624 2.397-0.543 3.666-1.466 2.574-0.13 2.411 2.476 4.399 2.933v5.865c-0.879-0.154-0.363 1.116-0.733 1.467-0.528 0.5-1.723 0.188-2.199 0.733-0.503 0.575-0.174 1.702-0.733 2.2-0.478 0.425-1.675 0.441-2.199 0.733-0.387 0.215 0.097 0.689-0.733 0.733-1.176 0.062-1.79 2.07-2.933 2.933-0.664 0.501-1.62 0.194-2.199 0.733-0.31 0.288-0.413 1.232-0.733 1.466-0.262 0.191-1.269-0.242-1.467 0-0.84 1.027-1.177 2.618-2.932 3.666-0.208 3.181 0.268 7.453-2.934 8.065 0.561 2.128 3.476 1.901 2.934 5.132-1.041-0.063-2.076-0.121-2.2 0.733 0.301 1.542 1.204 2.837 2.2 4.399 0.53 0.832 0.822 1.528 1.466 2.199 0.599 0.625 1.195 2.312 0 3.666-2.21 0.755-1.714-1.641-2.199-2.2-0.571-0.656-1.309-1.132-2.2-1.466-0.262-2.182-1.167-3.72-2.199-5.132-2.073 0.615-4.525 0.851-6.598 1.466-0.438-3.778 3.442-4.05 5.865-2.933-1.523-4.446 1.188-5.871 0-10.264-0.166-0.934-2.188-0.961-2.2 0-1.684-0.8 0.73-3.599 1.467-4.399-0.736-0.975-0.693-2.728-2.199-2.933-0.207-1.184 0.692-1.262 0.732-2.2-0.119-0.852 0.162-1.304 0.733-1.466 0.451-1.273-1.082-1.821-1.466-2.933-0.592-1.711 0.238-4.251-1.467-5.132 0.8-0.853 0.79-2.577 0.69-4.385zm5.13 13.93c-1.073 0.638-2.324 1.098-2.199 2.933 0.414 1.786 0.628 3.771 2.933 3.666 1.393-1.835-0.609-2.879 0.732-5.132 2.077-0.123 3.056-1.344 5.133-1.467 0.248-1.529 2.014-1.536 2.933-2.199 1.065-0.77 1.849-2.052 2.933-2.933 0.573-0.466 1.667-0.326 2.199-0.733 0.37-0.283 1.102-1.102 1.466-1.466 1.056-1.056 2.093-2.116 2.2-3.666-0.823 0.075-1.142-1.065-1.467 0-1.156-0.369-0.573-1.47-2.199-1.466-1.65 0.003-4.562 2.466-5.132 2.933-0.569 0.465-1.336 0.576-1.467 1.466 3.592 1.351 5.209-3.044 6.599-1.466-4.167 2.188-6.43 6.278-13.93 5.132-0.83 0.866-0.81 2.591-0.72 4.398zm-2.93-5.132h1.467c0.041 0.447 0.109 0.868 0.732 0.733 1-0.989 1.397-5.119-0.732-5.132-1.02 0.938-0.45 3.462-1.47 4.399zm-63.78 17.596c-0.739 2.205 1.634 1.299 2.933 1.466v-2.2c-1.28-0.054-2.28 0.164-2.93 0.734zm2.93 19.795v3.666c2.597-0.245 1.803-2.017 4.399-0.733 0.109-1.821-0.379-3.042-1.467-3.666-0.2 1.699-1.96 1.685-2.93 0.733zm44.72 5.131c0.041-0.447 0.109-0.868 0.732-0.733-0.083-0.895-0.219-1.736-1.466-1.466 0.12 0.863-0.12 2.081 0.74 2.199zm-31.52 11.731c-1.388 2.082-0.252 7.058 0 8.065 0.255 1.02 0.206 1.537 0.732 2.199 0.341 0.429 0.471 0.966 1.467 0.733 0.132-2.789-0.185-5.58 0-7.332 0.149-1.42 0.669-1.652 0-2.2-0.581-0.475-0.263-2.307-0.733-2.933 0.407 0.002 0.832-0.594 0-0.733-0.38 0.914-0.95 1.415-1.47 2.201zm5.86 2.933c0.22 1.181 0.388 2.861 1.466 3.666 0.253-2.434 1.965-6.273-1.466-6.599-0.56 1.27-0.22 1.752 0 2.933zm-11.73 4.398c0.109-1.82-0.379-3.042-1.467-3.666 0.33 1.387-0.99 4.419 1.47 3.666zm3.67 1.467c-0.443-1.511 1.184-5.093-1.466-4.399-0.15 2.107 0.18 3.724 1.47 4.399zm22.72 2.199h2.2v-2.2h-1.467c-0.03 0.938-0.93 1.016-0.73 2.2zm-15.39 3.662c-3.212-0.534 0.591 1.457-1.467 1.466-0.862 0.115-2.081-0.126-2.199 0.733-0.921-0.161-1.498-1.142-1.466 0.733-0.159 0.963 1.014 0.363 1.466 0.733 0.243 0.198-0.238 1.26 0 1.466 0.57 0.494 1.666 0.254 2.199 0.733 0.628 0.563 0.576 1.892 1.467 2.2 0.3-1.25 0.945 0.154 2.199 0 1.259 0.94 0.015 4.384 2.199 4.399 1.061-1.139 0.978-3.421 2.2-4.399 1.386-0.165 1.617 0.826 2.932 0.733-0.003-1.31 1.975-4.265 0-5.132-0.164 0.569-0.02 1.446-0.732 1.466-0.97 0.008-0.67 1.285-1.467 1.466-1.221-2.79-0.329-4.757 1.467-5.132 0.484-0.101 1.223 0.896 1.466 0.733 0.452-0.304-0.347-2.472 0-2.933 1.533 1.598 2.093-0.367 4.399 0 0.154-2.599-3.439-1.448-2.933-4.399-1.767-0.3-1.594 1.339-3.666 0.733-1.013 1.676-0.803 4.574-3.666 4.399-0.928-0.265-0.971-1.511-1.466-2.199-0.456-0.635-1.851-0.692-1.467-2.2-0.041-0.447-0.109-0.868-0.732-0.733-1.01 0.95-0.73 3.193-0.73 5.133zm13.93 8.07c3.095 0.162 2.056-3.81 3.666-5.132-3.42-0.48-4.15 1.72-3.67 5.13zm-8.8 10.26c-0.077-1.878-0.415-3.496-1.467-4.399-1.57 1.57-0.27 4 1.47 4.4zm-22.73 4.4c2.341 1.034 1.853-4.387 0.733-4.398-0.84 0.87-0.83 2.59-0.73 4.4zm10.27 3.67c-0.953-1.821 2.151-3.042 0-3.666-0.43 0.45-1.72 3.48 0 3.67zm-4.4 5.86c2.106-0.373 5.606-3.143 3.666-5.132-0.7 2.24-3.58 2.3-3.67 5.13zm-81.383 11.73c0.146-1.553-0.312-3.184-0.733-4.399-0.394-1.137-0.457-3.265-2.2-2.933-0.355 3.78 0.558 6.29 2.933 7.33zm57.183 11.73c0.614-1.585 1.898-2.501 1.467-5.132-4.85-1.34-5.84 5.18-1.47 5.13zm8.8-0.73c2.47 2.23 2.22-2.71 0 0zm-11 20.53c1.934 0.223 1.891-1.531 2.199-2.933-1.93-0.22-2.4 1.01-2.2 2.93zm-0.73 11c0.312-2.62 3.894-1.972 2.933-5.865-4.22-1.51-6.02 4.62-2.93 5.87zm-21.261-2.94c-0.745 1.152 0.043 4.312 0 5.132-0.024 0.46-0.738 0.82-0.733 0.733-0.147 2.353 2.226 4.951 0 6.599-1.156-0.066-0.574-1.87-2.2-1.467-0.617 1.827-0.959 3.929-0.733 6.599 0.632 2.923-1.095 5.417 0 6.599 1.818 0.951 3.558-1.636 3.666 0 0.46 2.229-0.938 6.314 0.733 7.331 1.62-2.778 1.64-7.158 3.666-9.531-0.863-0.114-2.081 0.127-2.199-0.732 0.048-1.22-0.064-2.447 0-3.666 0.139-2.646 0.664-3.002 0-3.666-0.725-0.724 0.014-6.694 0-7.331-0.064-2.889 0.665-5.99-0.733-7.332 0.362 0.92-1.27 0.44-1.467 0.74zm24.931 6.6c0.011-0.05-0.014-0.732 0-0.733-3.271 0.177-4.681 2.625-5.132 5.865 2.826 1.51 4.231-3.832 6.598-5.132 2.001 0.534 1.477-1.457 2.933-1.467-0.016-1.727 1.264-2.158 0.733-4.398-2-0.066-1.476 1.221-2.933 0 0.21 2.91-0.9 4.49-2.2 5.87zm-17.6 8.8c1.333-0.867 0.576-3.823 1.466-5.132-2.69-0.27-5.304 5.4-1.47 5.13zm-62.317 9.53c-2.3 1.672-1.171 4.555 0.733 5.865 2.926-2.374 0.612-6.013 0.733-9.53 0.098-2.847 1.348-5.737 0.733-8.798-1.046-0.176-1.237-1.208-2.2-1.467-0.583 4.05-1.477 10.1 0.001 13.94zm74.047-7.33c3.569 0.637 4.618-1.247 5.132-3.666-0.851-0.615-1.965-0.967-3.666-0.732 0.36 2.31-1.04 2.87-1.46 4.4zm-68.915 1.47c1.008-0.94 1.276-4.385-0.733-4.399-0.561 1.87-1.08 3.37 0.733 4.4zm25.66 2.2c-0.099-2.345 0.723-5.61-2.199-5.132 0.028 2.41-0.3 5.18 2.199 5.13zm10.997 1.46c-0.355 0.866-0.782 1.662-1.466 2.199-0.782-0.684-0.228-2.704-2.199-2.199-0.854 2.262-1.671 3.751-2.2 5.865-0.077 0.309-0.754 0.877-0.733 0.733-0.178 1.222 0.826 2.426 0.733 2.933-0.115 0.634-3.662 1.869-0.733 2.199 0.969-1.79 2.32-0.196 3.666-0.733 0.186-0.073 0.517-1.304 0.733-1.466 0.715-0.536 1.645-0.068 2.199-0.733 0.232-0.277-0.152-1.128 0-1.466 0.121-0.269 1.305-0.407 1.466-0.733 0.852-1.718 0.138-2.345 0.733-3.666 0.122-0.27 1.307-0.403 1.466-0.733 0.35-0.722 0.532-1.652 0.733-2.199 0.294-0.797 1.163-1.714 0-2.199-1.269 0.94-1.92 2.49-4.398 2.21zm32.998-1.46c-0.047 2.243-2.692 3.819-0.733 5.865 1.576 0.592 1.695-1.496 2.199-2.2 0.434-0.604 2.371-1.104 1.467-2.933-0.164-0.568-0.021-1.445-0.733-1.466-0.14 0.86-1.17 0.8-2.21 0.74zm-82.852 6.59c1.599 0.134 2.333-0.6 2.199-2.199-2.372 0.906-0.56-2.372-2.932-1.466-0.3 1.77 1.339 1.6 0.733 3.67zm58.652 0c0.205-1.671-0.176-2.756-1.466-2.933 0.167 1.3-0.739 3.67 1.466 2.93zm-21.261 5.13c0.595-1.104 5.629-5.912 1.466-6.599 0.281 2.53-3.682 4.58-1.466 6.6zm-8.798 2.94c-1.455 1.387-0.356 3.463 0 5.132 2.746 0.058 2.216-3.161 5.865-2.199 0.381-1.154 2.823-3.927 0.733-5.133-2.072 1.8-3.053 3.56-6.598 2.2zm27.86 4.4c-0.032-1.009 0.345-1.609 0.733-2.199h-1.466c-0.821 1.05-0.79 1.79 0.733 2.2zm-24.927 13.93c0.115-0.862-0.126-2.081 0.733-2.199 4.61-1.499 12.677 0.458 15.396-2.933 1.352 1.242 2.526 0.496 2.933 0 0.175-0.214 1.2 0.126 1.466 0 0.091-0.043-0.07-0.647 0-0.733 0.137-0.167 1.23 0.05 1.466 0 2.975-0.625 5.666-0.371 8.064-1.466 0.736-0.003 0.873 0.594 1.466 0.733 0.34 2.104 0.848 4.039 2.933 4.398 1.435-1.37 0.227-2.686 0-4.398-1.835-0.936-2.295 0.372-2.933-0.733 0.165-1.387-0.826-1.618-0.733-2.933-2.146 0.659-2.253 0.659-4.399 0 0.84-2.306-1.151-1.781-1.466-2.933-4.708 0.669-7.595 3.158-12.464 3.666-0.875 3.768-6.225 3.062-10.264 3.665 1.613-1.54 1.613-2.858 0-4.398-2.452-0.839-3.371 1.104-3.666 1.466-0.148 0.181-1.219-0.069-1.466 0-0.926 0.262-1.673 0.121-2.199 0.733-0.134 3.8 3.426 3.905 3.666 7.332-3.743-0.044-7.783-3.507-8.798 1.466 3.652 1.26 7.162 0.43 10.265-0.75zm52.056-9.53h1.467c0.04-0.938 0.939-1.016 0.733-2.2-1.098 0.125-2.706-0.262-2.933 0.733 0.57 0.16 0.85 0.61 0.73 1.47zm-11 4.39c-3.5-2.03-1.78 2.41 0 0zm-10.264 3.67c0.348-2.303-0.915-2.996-2.2-3.666-1.474 1.47 0.543 3.18 2.2 3.67zm-54.253 4.4c0.992 0.23 1.4 1.044 2.933 0.733v-2.199c-1.366 0.1-2.451 0.49-2.933 1.47zm6.598 0.73h1.466c0.04-0.938 0.939-1.016 0.733-2.199h-2.199v2.2zm2.933 19.8c0.505-1.972-1.516-1.417-2.2-2.199-0.132 1.6 0.6 2.33 2.2 2.2zm-2.2 32.99c1.415 1.426 4.488 0.767 3.666-2.2-1.009 0.032-1.61-0.345-2.2-0.732-0.381 1.08-1.084 1.84-1.466 2.93zm0.734 4.4c1.009-0.031 1.61 0.346 2.199 0.733-0.032-1.009 0.345-1.61 0.733-2.199-1.089-1.15-3.276-0.82-2.932 1.47zm6.598 5.13h1.466v-1.466h-1.466v1.47zm-4.399 0.73c2.391-0.132 3.529 1.724 3.666-1.466-1.821-0.1-3.043 0.39-3.666 1.47zm5.865 5.14v-2.933c-2.893-0.51-2.4 3.08 0 2.93z"/><path d="m157.65 49.121c0.423-0.889 2.769 0.478 4.398-0.733-0.243 2.932 1.308 4.07 0.733 7.332 1.169 0.542-0.167 3.589 2.199 2.933-0.531 1.668-0.653 3.746-1.466 5.132-2.581-0.79-5.056-0.022-7.332-0.733-1.285 0.67-2.547 1.363-2.199 3.666-1.493 0.218-1.953 1.468-2.933 2.199 0.943 5.343-2.491 6.307-3.666 9.531-1.632-0.309-0.573-3.891 0-4.399 0.734-0.977 1.209-2.213 2.2-2.933 0.448-3.604 1.617-5.623 3.665-8.065 2.055-2.451 3.576-5.608 5.132-9.531-0.41-1.289 0.9-4.308-0.72-4.399z"/><path d="m119.53 68.916c1.55 0.227-0.771 2.546-2.199 2.2-1.14-2.607 2.49-0.443 2.2-2.2z"/><path d="m99.731 91.644c-0.713 0.021-0.569 0.897-0.733 1.466-1.532-0.311-1.941 0.502-2.933 0.733 0.161 2.361-1.297 3.102-0.733 5.865-1.545-0.6-2.011-3.865-0.733-5.132 1.5-0.944 0.773-4.114 2.933-4.399-0.651-1.548-2.232-2.167-2.199-4.399-2.87-0.425-4.257 0.631-5.865 1.466-1.399-0.63 0.792-0.436 0.733-1.466 1.254 0.032 1.899-0.545 2.2-1.466h3.666c-0.261 1.383 1.706 0.871 2.2 1.466 0.377 0.456 0.592 2.538 0.733 2.933 0.1 0.279 0.694-0.01 0.733 0.733 0.037 0.731-0.032 1.468-0.002 2.2z"/><path d="m76.271 91.644c0.238-0.022 0.613-1.445 0.733-1.466 0.418-0.072 1.783 1.201 2.2 1.466 0.468 0.298 4.577 1.829 4.399 3.666 0.739 2.205-1.633 1.299-2.933 1.466 1.366 3.277 2.548 6.738 2.199 11.73-4.176-2.804-1.629-11.451-2.933-15.396-1.525 0.43-2.369 1.541-3.666 2.2 0.326 1.873 1.028 3.371 2.199 4.399-0.153 2.101 0.694 4.55 1.466 6.598 0.098 0.259-0.198 1.305 0 1.466 0.791 0.647 0.143 0.398 0 1.466-0.16 1.201 0.688 1.248 0.733 2.2 0.145 3.039-0.189 5.801 0 8.797 0.075 1.182 0.619 1.248 0.733 2.2 0.61 5.077-0.627 10.433 0 14.663 0.039 0.259-0.171 1.295 0 1.466 0.08 0.079 1.467-0.059 1.466 0-0.006 0.529-1.219 0.852-1.466 1.466-0.781 1.945 0.671 3.472 0 4.399-1.056-0.166-0.255-2.188-1.466-2.2-0.155-6.812 0.21-13.256 0-19.062-0.039-1.088-2.037-5.756-0.733-8.797 0.138-0.323 0.799 0.086 0.733-0.733-0.043-0.535-0.594-0.825-0.733-1.466-0.152-0.701 0.13-1.494 0-2.199-0.776-4.205-2.818-8.213-2.933-12.464-0.591-0.63-2.008-0.436-2.199-1.466-1.085 0.381-1.848 1.085-2.933 1.466 0.296 5.081 5.022 5.73 4.398 11.73-2.298-2.592-2.365-11.548-8.797-8.798 0.6 4.044 4.906 4.38 4.399 9.531-1.336-0.072-0.933-1.266-1.467-2.2-0.753-1.318-2.909-3.062-2.932-5.865h-3.666c0.25 1.472-0.15 2.294-1.466 2.2-1.112-1.477-0.146-1 0.733-2.2 0.495-0.676 1.254-1.228 1.466-2.199 3.184 0.74 3.268-1.62 4.399-2.933 2.24 0.53 2.671-0.75 4.398-0.733 1.007-1.671-1.89-2.756 0-2.933 1.791-1.858 1.562 1.546 4.399 0.733 0.653-0.325 1.312-0.644 1.466-1.466-0.115-0.871-1.334-0.631-2.196-0.745z"/><path d="m44.012 147.36c0.388-1.129 0.765-0.047 0.733 0.733v2.2c0.783 1.889 2.782 2.782 4.399 4.399 0.233 0.233 1.354 1.268 1.466 1.466 0.153 0.269-0.227 1.28 0 1.466 0.947 0.775 0.355 1.497 0.733 2.932 0.049 0.187 0.698 0.063 0.733 0.733 0.014 0.262-0.564 1.58-0.733 2.199-0.067 0.246 0.179 1.32 0 1.467-0.581 0.475-0.706 1.943-1.466 3.666-1.448-0.507-1.955-1.956-2.199-3.666-1.29 0.176-1.671 1.261-1.466 2.933-1.128-0.189-0.432-1.887-0.733-2.933-0.607-2.112-1.673-2.998-3.666-3.666v-3.666c1.703 0.215 3.436 1.842 2.933-1.466 1.703 0.496 1.962 2.436 3.666 2.933-0.913-2.264-0.603-5.751-3.666-5.865 0.16-2.35-1.298-3.09-0.734-5.86z"/><path d="m23.484 208.95c-1.364 0.225-0.121-2.431-0.733-2.932-0.052-0.043-0.725 0.048-0.733 0-0.802-4.733-0.474-14.698 0.733-19.062 0.263-0.95-0.371-2.146 0.733-2.199-0.701-3.045 2.195-0.148 0 0 0.484 2.662-0.703 5.313-0.733 8.064-0.018 1.619 0.58 2.725 0.733 4.399 0.203 2.218-0.058 4.649 0 6.598 0.059 1.99 0.93 3.5 0 5.13z"/><path d="m10.287 207.48c2.054 0.39 1.355 3.532 2.199 5.132-0.742 1.94-1.545-3.67-2.199-5.13z"/><path d="m173.05 30.792c0.653 0.325 1.312 0.644 1.467 1.467 0.324 2.768-1.446 3.441-2.199 5.132-0.289 0.87 1.283 0.373 1.466 0.733 0.555 1.093-1.824 2.559 0.733 2.933-0.569 0.652-0.788 1.655-0.733 2.932 0.388 0.59 0.765 1.19 0.733 2.2 3.262-0.818 2.948 1.939 5.132 2.199 0.354 2.799-0.208 4.68-1.466 5.865 0.233 1.722 1.158 2.752 0.732 5.132-3.693-1.194-1.467-8.308-4.398-10.264-1.729 0.226-1.364 2.546-3.666 2.199 0.124-1.835-1.126-2.295-2.199-2.933-0.347-2.302 1.974-1.937 2.199-3.666-0.456-2.772-3.062 0.792-2.933-2.933-3.29-0.113-3.06 3.294-2.933 6.598-3.309-2.644 0.898-7.01 0-11.73 3.216 0.771 2.408-2.479 5.132-2.199 1.02-1.182 2.08-2.32 2.94-3.665zm-7.33 8.798h1.466v-1.466h-1.466v1.466z"/></g><metadata/></svg>