<svg xmlns="http://www.w3.org/2000/svg" xmlns:svg="http://www.w3.org/2000/svg" id="svg2" width="560" height="1360" version="1.0"><metadata id="metadata9"/><path style="fill:#fff;stroke:#000;stroke-width:14.9333334px;stroke-linejoin:round" id="path4" d="M 73.456018,427.73405 118.00564,326.48491 C 89.84874,304.49938 39.706305,269.78539 40.477726,204.98593 40.063085,107.26868 173.23419,45.898555 277.11143,47.037278 415.19598,46.844423 519.72366,118.97238 519.53081,204.40737 519.33795,320.12068 357.72503,395.33433 192.64073,355.41324 Z"/><g id="g1964" transform="translate(-3.4989835,-7.6226891)"><path id="path1922" d="M 129.74483,619.15308 C 129.92073,539.30446 238.59009,489.1533 323.75766,490.08382 436.97134,489.92622 522.67219,548.86628 522.51407,618.6803 522.35595,713.23655 389.85168,774.69811 254.50126,742.0762 194.56442,721.93934 140.12806,683.76386 129.74483,619.15308 Z" style="fill:#fff;stroke:#000;stroke-width:14.9333353px;stroke-linejoin:round"/><path id="path1926" d="m 123.57725,752.03025 c 0.0324,-13.48846 20.03202,-21.96027 35.70638,-21.80307 20.83599,-0.0267 36.60849,9.92984 36.57939,21.7232 -0.0291,15.97296 -24.41537,26.35537 -49.32544,20.8447 -11.03085,-3.40163 -21.04939,-9.85043 -22.96033,-20.76483 z" style="fill:#fff;stroke:#000;stroke-width:14.93333912px;stroke-linejoin:round"/><path id="path1928" d="m 79.921707,800.12071 c 0.02042,-7.95841 12.630928,-12.95691 22.514193,-12.86417 13.13785,-0.0157 23.08299,5.85878 23.06464,12.81705 -0.0183,9.42431 -15.39479,15.5501 -31.101498,12.29872 -6.955357,-2.00702 -13.272415,-5.81192 -14.477335,-12.2516 z" style="fill:#fff;stroke:#000;stroke-width:14.93333721px;stroke-linejoin:round"/><path id="path1930" d="m 44.483682,836.33564 c 0.01674,-6.25688 10.353667,-10.18668 18.455053,-10.11376 10.769205,-0.0124 18.921313,4.60614 18.906275,10.0767 -0.01505,7.40935 -12.619232,12.22542 -25.494148,9.6692 -5.701356,-1.57791 -10.879493,-4.56931 -11.86718,-9.63214 z" style="fill:#fff;stroke:#000;stroke-width:14.93333912px;stroke-linejoin:round"/></g><path id="path1932" d="m 73.451748,1304.9547 72.418422,-156.2765 -66.632755,-5.7221 36.086305,-42.7012 -68.687122,-50.9185 58.340552,-17.6892 -44.378499,-54.66803 78.884359,6.96337 15.19855,-73.15747 70.66682,52.15973 27.52485,-56.72242 81.24331,62.35933 20.03053,-74.83026 57.00937,81.30267 63.17251,-62.50395 -23.11148,108.00963 57.00938,23.7801 -47.76406,66.922 52.90061,46.3781 -92.22077,-1.6681 6.38951,53.8003 -69.6226,-48.9189 -28.53498,59.9634 -42.91565,-48.9188 -38.80687,47.637 -53.18754,-32.4838 z" style="fill:#fff;stroke:#000;stroke-width:14.9333334px;stroke-linejoin:round"/></svg>