<svg xmlns="http://www.w3.org/2000/svg" xmlns:cc="http://web.resource.org/cc/" xmlns:svg="http://www.w3.org/2000/svg" id="svg2" width="525" height="1275" version="1.0"><metadata id="metadata9"/><path style="fill:#fff;stroke:#000;stroke-width:14px;stroke-linejoin:round" id="path4" d="M 68.865017,401.00067 L 110.63029,306.0796 C 84.233194,285.46817 37.224661,252.9238 37.947868,192.17431 C 37.559142,100.56439 162.40705,43.029895 259.79197,44.097448 C 389.24623,43.916647 487.24093,111.53661 487.06013,191.63191 C 486.87933,300.11314 335.36722,370.62593 180.60068,333.19991 L 68.865017,401.00067 z"/><g id="g1964" transform="translate(-3.280297,-7.146271)"><path id="path1922" d="M 121.63578,580.45601 C 121.80068,505.59793 223.67821,458.58122 303.52281,459.45358 C 409.66063,459.30583 490.00518,514.56214 489.85694,580.01278 C 489.7087,668.65927 365.48595,726.27948 238.59493,695.69644 C 182.40414,676.81813 131.37006,641.02862 121.63578,580.45601 z" style="fill:#fff;stroke:#000;stroke-width:14.00000191px;stroke-linejoin:round"/><path id="path1926" d="M 115.85367,705.02836 C 115.88402,692.38293 134.63369,684.44061 149.3284,684.58798 C 168.86214,684.56302 183.64886,693.89721 183.62158,704.95348 C 183.59429,719.92813 160.73217,729.66164 137.37898,724.49539 C 127.03756,721.30636 117.64518,715.26061 115.85367,705.02836 z" style="fill:#fff;stroke:#000;stroke-width:14.00000572px;stroke-linejoin:round"/><path id="path1928" d="M 74.9266,750.11317 C 74.945736,742.65216 86.768095,737.96606 96.033655,738.05301 C 108.35039,738.03828 117.67396,743.54561 117.65676,750.06899 C 117.63955,758.90428 103.22414,764.64721 88.499102,761.59904 C 81.978455,759.71746 76.056213,756.15037 74.9266,750.11317 z" style="fill:#fff;stroke:#000;stroke-width:14.00000381px;stroke-linejoin:round"/><path id="path1930" d="M 41.703452,784.06466 C 41.719141,778.19884 51.410015,774.51465 59.005064,774.58301 C 69.101194,774.57143 76.743795,778.90127 76.729697,784.02992 C 76.715587,790.97618 64.899167,795.49125 52.828933,793.09479 C 47.483912,791.6155 42.629408,788.81107 41.703452,784.06466 z" style="fill:#fff;stroke:#000;stroke-width:14.00000572px;stroke-linejoin:round"/></g><path id="path1932" d="M 68.861014,1223.395 L 136.75328,1076.8858 L 74.285077,1071.5213 L 108.11599,1031.489 L 43.721811,983.75289 L 98.416077,967.16928 L 56.811235,915.91797 L 130.76532,922.44613 L 145.01396,853.861 L 211.26411,902.76075 L 237.06865,849.58348 L 313.23426,908.04535 L 332.01288,837.89198 L 385.45916,914.11324 L 444.68339,855.51578 L 423.01638,956.77481 L 476.46267,979.06861 L 431.68387,1041.808 L 481.27819,1085.2875 L 394.82122,1083.7237 L 400.81138,1134.1614 L 335.54019,1088.3 L 308.78865,1144.5157 L 268.55523,1098.6543 L 232.17379,1143.314 L 182.31047,1112.8604 L 68.861014,1223.395 z" style="fill:#fff;stroke:#000;stroke-width:14px;stroke-linejoin:round"/></svg>