<?xml version="1.0" encoding="UTF-8" standalone="no"?>
<!-- Created with Inkscape (http://www.inkscape.org/) -->

<svg
   xmlns:dc="http://purl.org/dc/elements/1.1/"
   xmlns:cc="http://creativecommons.org/ns#"
   xmlns:rdf="http://www.w3.org/1999/02/22-rdf-syntax-ns#"
   xmlns:svg="http://www.w3.org/2000/svg"
   xmlns="http://www.w3.org/2000/svg"
   xmlns:sodipodi="http://sodipodi.sourceforge.net/DTD/sodipodi-0.dtd"
   xmlns:inkscape="http://www.inkscape.org/namespaces/inkscape"
   id="svg2985"
   version="1.1"
   inkscape:version="0.92.1 r15371"
   width="1365.3334"
   height="768"
   xml:space="preserve"
   sodipodi:docname="loading.svg.2015_03_16_21_02_04.0.svg"
   inkscape:export-filename="loading.png"
   inkscape:export-xdpi="90"
   inkscape:export-ydpi="90"><sodipodi:namedview
     pagecolor="#000000"
     bordercolor="#8cffff"
     borderopacity="1"
     objecttolerance="10"
     gridtolerance="10"
     guidetolerance="10"
     inkscape:pageopacity="1"
     inkscape:pageshadow="2"
     inkscape:window-width="1909"
     inkscape:window-height="1024"
     id="namedview2987"
     showgrid="false"
     inkscape:zoom="0.99348958"
     inkscape:cx="682.66669"
     inkscape:cy="384"
     inkscape:window-x="1920"
     inkscape:window-y="0"
     inkscape:window-maximized="1"
     inkscape:current-layer="g2993"
     inkscape:snap-path-clip="true"
     inkscape:snap-path-mask="true" /><title
     id="title3400">Beaver Waiving</title><metadata
     id="metadata2991"><rdf:RDF><cc:Work
         rdf:about=""><dc:format>image/svg+xml</dc:format><dc:type
           rdf:resource="http://purl.org/dc/dcmitype/StillImage" /><dc:title>Beaver Waiving</dc:title><cc:license
           rdf:resource="http://creativecommons.org/publicdomain/zero/1.0/" /><dc:rights><cc:Agent><dc:title>Public Domain</dc:title></cc:Agent></dc:rights><dc:contributor><cc:Agent><dc:title>http://www.clker.com/clipart-156719.html</dc:title></cc:Agent></dc:contributor><dc:description>http://www.clker.com/clipart-156719.html</dc:description><dc:source>http://www.clker.com/clipart-156719.html</dc:source></cc:Work><cc:License
         rdf:about="http://creativecommons.org/publicdomain/zero/1.0/"><cc:permits
           rdf:resource="http://creativecommons.org/ns#Reproduction" /><cc:permits
           rdf:resource="http://creativecommons.org/ns#Distribution" /><cc:permits
           rdf:resource="http://creativecommons.org/ns#DerivativeWorks" /></cc:License></rdf:RDF></metadata><defs
     id="defs2989"><clipPath
       id="clipPath3001"
       clipPathUnits="userSpaceOnUse"><path
         inkscape:connector-curvature="0"
         id="path3003"
         d="M 0,0 H 946.13333 V 964.26667 H 0 Z"
         style="stroke-width:1.06666672" /></clipPath></defs><g
     transform="matrix(1.25,0,0,-1.25,0,768)"
     inkscape:label="Beaver_Waving"
     inkscape:groupmode="layer"
     id="g2993"><rect
       transform="scale(1,-1)"
       y="-614.33081"
       x="-0.00077440974"
       height="614.33258"
       width="1092.1196"
       id="rect3421"
       style="opacity:1;fill:#000000;fill-opacity:1;fill-rule:nonzero;stroke:none;stroke-width:5.12000036;stroke-linecap:round;stroke-linejoin:round;stroke-miterlimit:4;stroke-dasharray:none;stroke-dashoffset:0;stroke-opacity:1" /><g
       transform="matrix(0.60918293,0,0,0.60918293,258.83474,13.645431)"
       id="g2995"><g
         id="g2997"><g
           clip-path="url(#clipPath3001)"
           id="g2999"><path
             inkscape:connector-curvature="0"
             id="path3005"
             style="fill:#231f20;fill-opacity:1;fill-rule:nonzero;stroke:none;stroke-width:1.06666672"
             d="M 189.3664,1.420832 C 179.99573,3.0291627 171.15413,9.5916693 164.192,6.1083307 134.99627,4.9041707 99.37504,20.033387 99.37504,51.904213 c 40.44149,67.754457 88.11616,71.637117 164.05003,65.612587 42.72106,8.1664 9.91253,20.0832 -10.9792,33.4752 -8.57067,9.23733 -13.9296,16.06613 -18.74987,25.9744 -22.096,2.4128 -21.96267,23.4336 -27.72053,41.37493 -2.4128,0.13334 -4.688,0.40427 -7.1008,0.40427 -2.00747,2.2752 -2.00747,2.2752 -3.21174,5.488 -0.5376,0.13333 -1.07093,0.27093 -1.4752,0.27093 -18.47893,-18.34666 -39.90826,85.82934 -40.84586,93.05814 -1.60427,32.00426 -1.60427,32.00426 -2.14187,33.34186 -17.008,-5.62133 -15.93707,-10.30826 -20.08747,11.11254 -8.1664,-1.3376 -18.47893,-10.4416 -20.48746,3.216 -2.00854,0.4 -3.88374,0.67093 -5.7584,0.9376 -10.04587,15.1296 -15.133337,38.0256 -19.68747,54.096 -12.858347,5.22133 -9.508373,16.0672 -8.037547,26.77866 -5.891626,-1.33653 -5.891626,-1.33653 -9.508266,-1.33653 -32.408427,10.71253 23.8416,106.04907 11.116586,118.77013 -20.758293,4.01707 -20.6208,19.01227 -23.43328,34.8128 C 39.7792,614.6912 0.67500053,598.48747 0.67500053,627.14133 4.962496,642.80853 3.7541653,646.8288 20.495787,648.5664 c 0,0.5376 0,1.07093 0,1.4752 -28.1249497,4.01707 -6.962454,46.46293 30.4,26.77973 0,14.9952 -18.21248,8.704 -6.162454,32.66987 25.045867,17.1424 64.016537,-30.1248 70.711997,-55.16587 8.8384,2.2752 17.00907,29.99574 30.4,9.37494 12.05014,-39.09974 -15.26613,-56.64214 -8.70826,-97.48374 2.14613,-8.5664 10.04586,-36.42026 17.00906,-39.89973 6.16214,6.69547 28.5248,9.37067 40.0416,19.6832 10.85014,16.4704 20.3584,28.3872 34.28267,42.1792 -0.8,2.54187 -3.88267,3.07947 -4.82027,3.47947 -6.4256,8.03733 -7.49973,15.26613 -8.57066,23.2992 -14.59627,-3.21174 -12.72107,5.22133 -14.19627,16.87146 -4.9536,-1.3376 -4.9536,-5.088 -10.9792,-5.088 -7.3664,7.5008 -1.8752,21.9584 -0.5376,29.72587 -16.4704,-2.94613 -4.016,18.8832 -2.00853,23.56587 -33.21174,-13.2544 -8.03307,29.45813 -1.87414,38.42986 31.60427,27.31627 39.37494,53.29494 38.1664,95.20427 -77.8048,0 -36.15893,132.56213 24.50774,109.12853 8.30506,-9.504 10.84586,-11.64586 11.5168,-26.512 5.49226,1.60747 9.37493,2.00747 15.93813,2.54507 -20.08747,32.27093 14.86613,7.5008 19.41653,8.57173 3.216,6.15787 5.22454,14.32427 12.0544,15.3952 4.14934,-3.47946 4.42027,-6.42453 4.68694,-13.38773 7.22986,3.7504 14.46293,9.90827 20.89173,15.26293 0,34.14614 9.2416,40.03734 46.20053,36.95787 23.70347,-9.23733 42.98667,-24.50347 53.16587,-50.61653 3.48373,-22.896 -2.27413,-42.5792 -27.9872,-45.79094 0,-7.63413 23.16693,-51.4208 32.54187,-64.00426 34.82026,-18.08 109.5456,-70.16747 85.70773,-119.57547 -6.56213,-7.7664 -9.10827,-3.2128 -14.99947,-0.9376 -0.66666,-8.97067 -3.34613,-16.8704 -13.65866,-16.33707 -2.54507,-9.37066 -5.75787,-22.09173 -17.008,-23.02933 -1.07094,-2.2752 -1.07094,-2.2752 -1.3376,-6.29547 14.05866,-8.03413 28.65813,-11.51253 42.58346,-23.296 0.5376,0 0.9376,-0.27093 1.60854,-0.40426 3.616,-14.45867 31.47093,-23.16267 44.9952,-37.49227 0.5376,0 0.9376,0 1.60853,0 31.3376,79.9424 51.1584,135.77493 134.4544,169.52107 97.22453,29.05386 158.69547,10.30826 218.02027,-74.3168 C 984.44587,550.1504 903.5584,422.80853 809.81653,347.9584 787.18293,331.62453 784.50453,330.41707 779.2832,326.26667 742.32107,310.4672 707.23307,275.1168 670.00427,259.18293 646.29973,242.31253 609.8752,220.4832 593.93707,196.6496 c -27.72054,-10.9792 -49.41654,-61.72907 -79.1456,-67.48693 -0.4,-2.54187 -0.53334,-5.22134 -0.67094,-7.89974 2.4128,-0.53333 24.77547,-13.2544 28.92907,-15.39626 C 595.67893,90.2 677.904,119.92533 700.67093,46.81664 c -0.13333,-1.474987 -0.26666,-2.945813 -0.4,-4.287467 -12.0544,-8.033386 -7.63306,-13.520853 -16.608,-26.108373 -5.488,-3.883307 -18.48,-7.2333013 -21.5584,-11.383296 -9.50826,0.2666667 -26.51733,8.170816 -29.8624,7.766656 -9.7792,-19.5499947 -59.86346,-3.483328 -72.4544,9.104213 -42.45013,8.43744 -80.88746,-5.620906 -122,1.070827 -66.55893,-5.487573 -31.60426,40.4416 -38.43306,47.40416 0.4,0.133333 0.93653,0.266667 1.46986,0.533333 0.80427,13.658347 0.80427,13.658347 0.40427,21.558294 -0.9376,0.537493 -1.87413,1.070826 -2.6784,1.474986 -0.13333,1.470827 -0.13333,2.945814 -0.13333,4.283414 C 383.2832,96.62496 401.89973,48.154133 385.5584,33.02496 344.31253,13.341653 312.17067,23.916693 270.79147,23.516693 241.0624,20.57088 219.7664,2.8958293 189.3664,1.420832 Z M 332.25813,909.408 c 6.69654,2.40853 6.69654,2.40853 7.49974,3.2128 -0.26667,3.07947 -0.26667,3.07947 -1.2032,4.55467 -3.7504,-0.67094 -5.49227,-3.88374 -6.29654,-7.76747 z M 111.1584,375.008 c 1.8752,-1.87413 4.28693,21.28747 4.28693,25.44213 -0.66986,-0.27093 -1.3408,-0.40426 -1.87413,-0.67093 -3.88373,-7.89973 -4.55467,-14.7296 -2.4128,-24.7712" /><path
             inkscape:connector-curvature="0"
             id="path3007"
             style="fill:#c0973c;fill-opacity:1;fill-rule:nonzero;stroke:none;stroke-width:1.06666672"
             d="M 185.21707,9.7250027 C 181.6,10.929173 179.99573,12 178.3872,12.133333 c 0,7.100054 33.0752,60.658347 16.2048,60.658347 -22.76693,-22.895893 -11.92107,-82.6166827 -67.09653,-50.479147 -20.08747,23.83328 21.02506,47.4 35.89226,57.979094 0,3.212586 0,3.212586 -0.80426,5.087573 C 144.23787,86.716693 123.34613,59 114.64213,45.20832 c -1.60853,-10.5792 -1.60853,-10.5792 -2.27946,-10.9792 -15.266883,17.94176 12.32106,43.516693 23.9744,54.229227 26.91733,16.066663 54.23786,4.01664 83.02933,-5.2208 18.8832,-8.304214 18.8832,-8.304214 20.48747,-8.304214 0.13333,0.270827 0.27093,0.670827 0.40426,0.80416 -12.4544,12.454187 -51.1584,19.683307 -66.15786,23.433387 -0.13334,0.670827 -0.26667,1.07083 -0.4,1.60832 27.0496,0 52.22933,-12.58752 79.1456,-16.737493 -5.4912,13.925013 -60.93334,19.545813 -78.07467,21.420803 0,0.67082 0,1.07082 0,1.60842 29.59573,5.08694 54.50347,7.3664 85.9744,2.54614 36.15893,5.3536 28.92907,29.59146 53.83787,-15.133763 1.8752,-0.666667 1.8752,-0.666667 4.1504,-0.533334 -0.67094,7.766717 -6.0256,15.129497 -9.2384,21.020697 6.55893,-1.3376 23.70026,-6.2912 27.98826,-12.04982 7.09547,0 8.03307,3.34582 4.68694,7.90048 -37.36214,6.15787 -63.87947,23.6992 -79.27894,55.43254 -1.0752,0.13333 -2.14613,0.27093 -3.08373,0.5376 -5.62453,-5.75787 -1.47093,-3.48267 0.13333,-12.4544 -0.66666,0 -1.20426,0 -1.7376,-0.13334 -17.14133,14.99627 -20.49173,27.584 -23.4368,46.8672 -1.8752,3.74614 -3.61706,2.54187 -6.0256,2.94614 -3.08266,-4.688 1.20427,-14.19627 -0.27093,-21.42507 -0.26667,-0.13333 -0.66667,-0.26667 -0.8,-0.40427 -13.3952,10.71254 -12.8576,39.37067 -19.68747,51.95414 -1.60746,0.13333 -2.94506,0.27093 -4.42026,0.27093 -1.07094,-1.07093 -1.8752,-0.9376 -2.2752,-0.80427 0,8.97067 3.07946,22.36267 -6.02454,23.296 -4.42133,-7.22986 -5.49226,-13.78773 -6.96746,-23.296 -0.26667,-0.13333 -0.66667,-0.26666 -0.9376,-0.40426 -60.12907,90.2496 -22.22827,199.78346 26.91733,283.7376 10.7168,21.42506 22.2336,40.17066 24.7744,63.47093 -2.67413,1.20427 -2.81173,0.53333 -4.82027,0.4 -1.47093,-6.29227 -3.07946,-12.58773 -4.688,-18.87893 -29.72906,-67.21707 -73.25013,-123.4592 -77.13706,-200.3168 -1.8752,-5.6256 -7.89974,-5.22134 -12.8544,-5.89227 -2.67947,5.89227 0,13.12533 -3.2128,17.5424 -8.304,1.33653 -8.70827,-7.09653 -17.27467,-8.03413 0,2.67946 11.24587,63.33333 -11.52107,37.09226 -3.88298,-10.71253 -4.54965,-13.9296 -5.35381,-14.3296 -6.295893,13.92534 -5.891733,45.52534 -19.4208,42.85014 0.40416,9.104 5.22496,27.04533 3.483307,32.5376 -2.274987,0.80426 -2.274987,0.80426 -5.491734,0.80426 -34.149973,-46.73386 -0.4,61.99574 0.133334,65.34187 2.279253,13.6576 6.429226,27.8496 7.77088,39.77067 -22.900054,4.016 -21.295787,11.51253 -24.37504,29.99146 -13.658347,28.9248 -66.5583043,-3.88373 -54.237462,38.16214 15.400022,18.61333 57.583382,-20.08747 67.229142,-12.58667 -0.137494,1.87413 -0.270827,3.616 -0.40416,5.35787 -17.40832,11.3792 -61.870827,23.8336 -63.074987,34.67946 6.962453,34.94507 65.083307,-13.65866 73.78752,-25.97973 1.20832,-0.66667 2.145813,-1.60427 5.758293,-1.07093 10.983357,17.5424 -78.070826,61.72906 -36.691626,70.83413 24.104106,-2.40853 53.033283,-43.11253 55.308483,-68.55467 -0.9376,-20.08746 -17.812697,-34.14613 -17.812697,-50.34986 0.133334,-0.13334 0.537494,-0.26667 0.80416,-0.4 0.266667,2.40853 0.670827,4.82026 0.937494,7.2288 0.266666,-0.13334 0.670826,-0.4 1.070826,-0.53334 1.475094,7.63307 5.225067,12.18347 13.258347,11.3792 6.0288,7.3664 15.2672,76.99627 32.00853,51.14987 7.63307,-31.32907 -14.60053,-55.56587 -14.60053,-91.32053 -0.53333,-3.34614 -5.62027,-15.39627 -4.9536,-18.87894 6.4288,4.28694 3.08267,16.33707 7.3664,21.42507 5.088,-14.7296 11.78347,-29.7248 17.008,-46.19627 8.57173,-10.44586 -17.9456,-28.52053 -8.704,-47.1328 0.66667,0 1.47093,0 2.2752,-0.26666 4.688,7.63306 8.17067,36.42026 16.20373,41.10826 0.13334,-0.13333 0.40427,-0.27093 0.80427,-0.40426 -1.7408,-10.84587 -9.37493,-32.67094 -0.5376,-44.0544 0.9376,0 1.8752,-0.26667 2.8128,-0.4 1.20853,2.2752 -0.13333,5.4912 -0.26667,6.69546 0,49.27574 11.92107,38.5632 40.0416,61.8624 5.49227,11.11254 30.9376,47.93814 41.24587,47.93814 10.31253,-8.97494 8.43733,-3.08374 18.8832,-3.08374 2.94613,-5.08693 5.35893,-6.2912 12.592,-6.2912 5.488,5.4912 18.61227,-15.2672 20.88747,-3.47946 -11.9168,4.28373 -11.65014,10.57493 -16.73707,18.208 -3.2128,0 -3.61707,-0.53654 -5.2256,-0.93654 0,-3.88373 1.20853,-6.69653 -3.6128,-7.5008 -4.95787,6.82987 -4.82027,12.58774 -6.69547,18.07894 -10.85013,6.82986 -0.9376,-13.2576 -11.25013,-14.9952 -7.904,7.2288 -8.97493,12.3168 -12.18773,20.75413 -3.88267,0 -3.74934,0.66667 -6.02454,-1.07093 0,-2.54614 0.26667,-12.18774 -4.28693,-12.18774 -11.1168,12.72107 -2.94613,35.3504 -6.82987,39.23307 -1.4752,-0.13333 -2.8128,-0.26667 -4.28693,-0.4 -1.3376,-5.4912 -2.94613,-11.24907 -6.82987,-15.5328 -6.42453,3.7504 1.34187,24.63787 1.34187,29.3248 -7.3664,7.49653 -11.38347,-13.92533 -18.07893,-15.26613 0,8.57066 7.09546,30.2624 5.75786,34.94933 -6.56213,0 -6.0288,-1.34187 -10.44586,-5.4912 0,11.25013 12.18773,20.6208 12.18773,27.71627 -0.80427,0.80426 -1.4752,1.60853 -2.27947,2.27946 -7.7664,-1.34186 -12.85333,-8.83733 -21.42506,-10.5792 0,32.9376 30.53333,37.35787 37.89653,59.85387 14.59947,24.3712 13.3952,46.19627 15.26613,72.8416 4.15467,3.7504 6.69654,5.35893 6.02987,10.0416 -3.21707,0 -2.94613,-0.4 -5.2256,-1.87413 -62.67093,-16.20054 -49.6832,89.17866 3.21707,96.00746 29.8624,-3.0784 10.44586,-20.35413 20.08746,-33.3408 3.88374,-0.13333 7.7664,-2.8128 12.4544,-2.8128 0.67094,1.07094 1.20427,2.00854 2.00747,2.94614 -1.87413,3.0784 -2.27413,4.28693 -2.00747,6.02453 5.22027,1.07093 23.8368,-5.088 23.8368,2.4128 -6.8288,5.4912 -13.2576,8.43307 -14.32853,15.12853 14.72853,-0.9376 13.2576,-13.25333 21.29173,-14.32426 4.42027,6.96213 1.3408,17.94133 10.5792,20.6208 -3.6128,-30.12907 0.13334,-8.83734 20.08747,-3.21707 -1.7376,-3.6128 -6.15893,-8.29973 -3.88373,-12.98773 0.80426,0 1.74186,0 2.67946,-0.26667 4.28694,4.28373 20.08747,4.95467 21.296,13.2544 -27.18826,49.14133 26.24534,51.8208 53.83254,27.0496 33.07946,-21.42507 35.488,-68.1536 -13.2576,-68.1536 -0.13334,-0.9376 -0.26667,-1.8752 -0.26667,-2.94613 19.14987,-17.808 30.4,-39.09974 36.15787,-67.08694 24.10453,-20.75413 119.5872,-67.48373 92.40426,-118.10026 -0.80426,0 -1.60853,-0.13334 -2.4128,-0.26667 -6.42453,7.89973 -5.62453,10.30827 -6.02453,19.1456 -9.90827,6.16213 -7.23307,-21.9584 -9.104,-29.59147 -0.67093,0 -1.0752,-0.13333 -1.60853,-0.26666 -0.40427,2.8128 -0.9376,5.62453 -1.34187,8.29973 -2.8128,1.8752 -2.8128,1.8752 -4.41707,1.8752 -4.9536,-4.82133 -2.6784,-29.7248 -10.9824,-33.8752 -0.66666,8.704 2.2784,10.30827 -4.28373,11.9168 -3.21707,-3.2128 -6.69547,-20.35413 -9.10827,-26.64533 -0.53333,-0.13334 -1.20426,-0.27094 -1.74186,-0.5376 0,3.0784 0.13333,6.02453 0.27093,8.97066 -2.4128,2.00854 -2.67947,2.00854 -4.42133,2.00854 -3.34934,-4.01707 -3.34934,-15.80054 -6.4288,-17.67574 -1.07094,7.23414 -0.53334,8.43734 -5.22027,9.10827 -6.96747,-9.6416 -9.10827,-23.16587 -19.68747,-31.7376 0.13334,-0.53333 0.26667,-1.06987 0.53654,-1.6032 1.07093,0 2.14186,0 3.34613,-0.13333 3.88373,3.34506 12.32107,16.06613 15.2672,16.46613 0,-3.34613 -1.07093,-6.55787 4.82027,-6.55787 3.21706,3.21174 4.55466,7.2288 6.29653,10.9792 1.6032,0 2.6784,-0.9376 6.29547,-0.9376 1.20426,1.60854 3.74613,4.28267 4.1504,6.02454 22.76586,-8.97067 38.03306,-14.05867 53.16586,-36.95787 15.13387,-6.9632 27.7216,-8.03413 37.49654,-26.1088 2.81173,0 11.51573,-17.14133 14.46186,-21.5584 16.7424,-11.65013 42.98774,-14.9952 49.2832,-40.43733 3.7504,-3.2128 10.71254,-0.9376 16.47147,-3.7504 0,-14.72854 -17.40907,-23.2992 7.904,-21.1584 0.53333,-0.26667 0.9376,-0.53334 1.60427,-0.93654 0,-13.6544 -18.21227,-23.42933 -12.58774,-32.13333 2.94614,0 6.8288,0.4 10.5792,-0.9376 0,-27.71733 -67.22453,-14.19627 -31.06666,-32.27093 0.13333,-0.80427 0.53333,-1.74187 0.8,-2.67947 -11.9168,-5.8912 -31.3376,1.60853 -36.42454,-1.8752 -0.13333,-0.9376 -0.26666,-1.8752 -0.26666,-2.81173 5.08693,-5.35467 10.44586,-9.90934 12.58666,-18.74667 -1.87413,-1.47093 -4.5536,-0.13333 -6.02453,-2.40853 -18.07893,0.53333 -37.63307,5.088 -48.7456,18.34666 -49.95413,20.75414 -20.22507,-52.3584 -22.36693,-69.49653 -22.6336,-18.07893 -26.11307,60.1216 -26.2464,60.79253 -1.60747,1.06987 -1.60747,1.06987 -4.02027,1.46987 -6.56213,-5.3536 -9.77493,-45.52427 -10.71253,-59.72053 -0.4,-0.26667 -0.80427,-0.66667 -1.07094,-0.9376 -18.61653,26.2464 -5.22453,40.17066 -5.22453,62.13333 -2.8128,2.2752 -3.34613,1.7376 -5.35467,2.00853 -11.38346,-11.25013 -16.87466,-33.6128 -27.85386,-47.6704 -0.80427,0.13334 -1.4752,0.40427 -2.0128,0.40427 -32.94187,65.60747 87.72053,109.52853 117.4496,146.35413 0.67093,0 1.20426,0 2.00853,-0.13333 3.48373,-8.0384 6.15893,-11.5168 7.63413,-22.6336 0.13334,-0.13333 0.4,-0.4 0.8032,-0.53333 10.17494,11.65013 -5.0912,23.96693 -7.904,34.0128 16.07147,-1.0752 23.30454,-6.29654 32.54614,-21.42507 0.80426,0 1.7376,-0.13333 2.6752,-0.27093 12.4576,15.5328 -41.64587,31.60426 -44.72534,32.94186 -12.0544,12.58667 -22.76693,22.49494 -27.99146,37.0912 -1.20427,0 -2.40854,0 -3.48374,0 -5.08693,-10.1792 25.85067,-37.6288 33.88374,-49.27466 -4.95467,-26.784 -61.33334,-53.296 -79.54987,-64.2752 -25.8464,-23.30027 -59.05813,-58.37974 -38.43307,-96.80854 11.92,-6.0288 11.51574,5.488 18.74987,7.2288 4.416,-3.21173 6.02453,-4.14933 13.12,-5.4912 2.54613,-7.09546 5.35893,-18.61226 13.9296,-22.3584 13.52533,0 4.42133,29.32054 11.1168,38.56214 8.43733,-11.78347 0.9376,-34.01174 24.10453,-38.9664 36.42454,2.4128 -18.21333,72.70826 18.8832,72.70826 15.1328,-11.24586 38.57067,-18.34133 58.79147,-20.35413 16.87467,-64.94187 -5.75893,-133.36213 -41.25013,-189.2 -33.0752,-37.4912 -34.41707,-41.2416 -39.63734,-42.5792 2.54187,10.9792 6.4288,24.63787 3.2128,33.74187 -1.3376,0.13333 -2.54613,0.13333 -3.7504,0.13333 -9.37493,-11.78347 -7.7664,-23.4336 -22.76693,-36.55467 -4.54933,4.5504 9.10827,13.2544 6.02987,19.55094 -1.4752,0.13333 -2.8128,0.4 -4.15467,0.4 -11.78347,-17.40907 -28.39147,-33.74187 -44.05867,-46.7296 0,6.55786 5.89227,9.504 4.95467,14.86293 -9.50827,3.21173 -26.11307,-24.10453 -36.96213,-26.78379 -0.26667,1.34166 -0.66667,2.54592 -0.8,3.61686 -10.58347,2.00853 -21.696,-8.16683 -30,-12.72107 -0.26667,-0.666667 -0.4,-1.20416 -0.4,-1.874987 1.33653,-1.337493 2.67413,-1.470826 5.48693,-1.60416 0.9376,-10.445866 2.14613,-46.466666 -5.75787,-53.02496 -23.16693,-6.029226 -42.3168,-14.462506 -65.08373,-9.108373 -15.6672,0.40416 -15.6672,0.40416 -64.0128,0 C 238.91627,16.954133 201.0208,9.7250027 185.21707,9.7250027" /><path
             inkscape:connector-curvature="0"
             id="path3009"
             style="fill:#c0973c;fill-opacity:1;fill-rule:nonzero;stroke:none;stroke-width:1.06666672"
             d="m 597.15413,11.333333 c -14.99946,4.41664 -28.39146,12.720854 -42.0544,17.941654 -37.2288,2.00832 -72.3168,-2.141654 -107.39946,-0.670827 -11.6544,1.60832 -14.8672,9.241707 -16.60907,-1.874987 -0.53333,-0.266666 -1.2032,-0.533333 -1.87413,-0.937493 -51.0208,25.57504 -13.25867,23.43328 -22.36267,69.362453 7.2288,5.487577 18.8832,16.200537 27.0496,18.878937 -0.67093,-3.88267 -0.67093,-3.88267 -0.4,-7.89974 8.704,-5.89162 31.2,29.3248 41.9168,32.00427 0.66667,-15.2672 24.23787,13.92533 27.18293,14.592 -6.42453,-33.60853 -4.68693,-32 -34.14933,-51.01291 -0.13333,-0.80416 -0.26667,-1.60832 -0.26667,-2.54581 10.1792,-10.17504 34.54934,15.66645 36.56214,29.05845 1.20426,-0.27093 2.40853,-0.40426 3.74613,-0.67093 0,-10.5792 -10.71253,-19.01653 -12.18347,-29.325013 6.42454,0.937493 10.84587,10.308483 14.19627,15.266343 5.8912,0 42.1824,-17.408103 55.5744,-21.29141 21.1584,-1.070827 21.1584,-1.070827 40.44587,-1.337493 -0.40427,-0.80416 -44.32854,-18.883307 -48.3456,-21.42496 17.54133,0 43.65866,22.62912 66.82453,19.81664 -7.89973,-9.908374 -51.1584,-11.650027 -53.03253,-32.00416 1.87413,0.670826 2.94506,2.545813 3.88266,4.154133 16.33814,14.59168 42.72107,24.500053 64.81707,26.241707 0,-0.4 0,-0.937494 0,-1.470827 -3.34613,-0.40416 -8.1664,-2.545813 -10.0416,-4.420907 -0.40427,0.266667 -0.80427,0.5376 -1.07093,0.804267 -1.4752,-0.804267 -2.67947,-1.74176 -3.88374,-2.679253 -0.67093,0.133333 -1.34186,0.270826 -1.74186,0.40416 -1.20747,-4.554134 -49.6832,-20.6208 -37.89974,-27.720747 7.89974,4.687467 14.3296,16.337493 27.32054,18.079147 2.2752,7.499946 29.86346,12.454186 37.7632,12.854186 0.13333,0.537494 0.27093,1.20416 0.67093,1.874987 13.6576,-1.741653 38.43307,-20.083413 41.11253,-36.55424 -0.80426,-0.80416 -1.60853,-1.60832 -2.40853,-2.545813 -6.4288,3.883306 -10.04587,23.033386 -22.50027,24.37088 -7.7664,-9.77504 34.95467,-27.050027 4.82134,-50.21248 -10.31254,-5.625067 -17.27574,-7.500054 -28.52587,-5.220907 0,0.666667 0,1.20416 0,1.60416 -17.408,7.76672 -13.6576,33.20832 -26.51627,32.00416 -2.40853,-28.65408 25.98294,-35.083307 -20.6208,-37.491627" /><path
             inkscape:connector-curvature="0"
             id="path3011"
             style="fill:#c0973c;fill-opacity:1;fill-rule:nonzero;stroke:none;stroke-width:1.06666672"
             d="m 166.8704,100.10837 c -1.60747,0.13334 -3.08267,0.13334 -4.68693,0.13334 0.80426,3.07914 2.94613,3.61664 6.69546,3.21248 0.53334,-1.07083 0.80427,-1.87499 3.2128,-2.81248 -0.53333,-0.53334 -0.53333,-0.53334 -5.22133,-0.53334" /><path
             inkscape:connector-curvature="0"
             id="path3013"
             style="fill:#876b43;fill-opacity:1;fill-rule:nonzero;stroke:none;stroke-width:1.06666672"
             d="m 514.12053,137.33333 c -0.13333,0.53334 -0.26666,1.20427 -0.26666,1.8752 0.9376,0.66667 1.8752,1.07094 2.94613,1.60427 -0.13333,-0.8 -0.26667,-1.7376 -0.26667,-2.6752 -1.8752,-1.20853 -1.8752,-1.20853 -2.4128,-0.80427" /><path
             inkscape:connector-curvature="0"
             id="path3015"
             style="fill:#876b43;fill-opacity:1;fill-rule:nonzero;stroke:none;stroke-width:1.06666672"
             d="m 522.02453,140.4128 c -0.53653,2.40853 -0.93653,4.68693 -1.3408,7.09547 0.67094,0 1.3408,0 2.00747,0 0.5376,-1.07094 0.5376,-1.07094 0.5376,-6.69547 -0.80427,-0.66667 -0.80427,-0.66667 -1.20427,-0.4" /><path
             inkscape:connector-curvature="0"
             id="path3017"
             style="fill:#876b43;fill-opacity:1;fill-rule:nonzero;stroke:none;stroke-width:1.06666672"
             d="m 527.78347,144.69547 c -0.80427,1.74186 -0.80427,1.74186 -1.34187,9.10826 1.34187,1.47094 1.34187,1.47094 2.94613,1.60427 0,-3.34507 0,-6.55787 0.1376,-9.90827 -1.20853,-1.07093 -1.20853,-1.07093 -1.74186,-0.80426" /><path
             inkscape:connector-curvature="0"
             id="path3019"
             style="fill:#876b43;fill-opacity:1;fill-rule:nonzero;stroke:none;stroke-width:1.06666672"
             d="m 533.67467,150.72107 c -0.9376,4.68693 -0.9376,4.68693 -1.07094,9.90826 0.4,0 0.9376,0 1.47094,-0.13333 0.80426,-1.47093 0.80426,-1.47093 1.34186,-8.69973 -0.5376,-0.5376 -0.9376,-0.9376 -1.34186,-1.60854 -0.13334,0.13334 -0.26667,0.26667 -0.4,0.53334" /><path
             inkscape:connector-curvature="0"
             id="path3021"
             style="fill:#876b43;fill-opacity:1;fill-rule:nonzero;stroke:none;stroke-width:1.06666672"
             d="m 538.896,157.8208 c -0.26667,3.07947 -0.4,6.02453 -0.4,9.104 0.80427,0.13333 1.60853,0.13333 2.4128,0.13333 0.13333,-1.74186 2.00747,-9.23733 -2.0128,-9.23733" /><path
             inkscape:connector-curvature="0"
             id="path3023"
             style="fill:#876b43;fill-opacity:1;fill-rule:nonzero;stroke:none;stroke-width:1.06666672"
             d="m 545.19147,164.37867 c -0.4,6.42986 -1.74187,7.5008 1.4752,12.0544 0.53333,0 1.20426,0 1.7376,-0.1376 0.27093,-3.61174 2.27946,-10.70827 -3.2128,-11.9168" /><path
             inkscape:connector-curvature="0"
             id="path3025"
             style="fill:#876b43;fill-opacity:1;fill-rule:nonzero;stroke:none;stroke-width:1.06666672"
             d="m 552.95787,171.6128 c -0.66667,8.5664 -0.66667,8.5664 -0.26667,11.65013 0.9376,0.26667 1.8752,0.66667 2.94613,0.93334 0.67094,-5.62134 1.74187,-7.9008 1.74187,-9.37174 -1.4752,-1.06986 -2.94613,-2.1408 -4.42133,-3.21173" /><path
             inkscape:connector-curvature="0"
             id="path3027"
             style="fill:#876b43;fill-opacity:1;fill-rule:nonzero;stroke:none;stroke-width:1.06666672"
             d="m 560.45867,178.57493 c -0.4,4.688 -1.3376,9.104 0,12.98774 0.5376,0.26666 1.20426,0.4 2.00853,0.5376 0.13333,-1.8752 0.53653,-3.7504 0.8032,-5.6256 1.20427,-0.80427 1.20427,-0.80427 2.8128,-0.80427 3.2128,6.42987 -1.60853,10.0416 4.42133,17.40907 0.66667,0.13333 1.20427,0.13333 1.87414,0.13333 0.26666,-4.1504 0.8,-8.43733 1.3376,-12.72107 -2.94507,-3.3504 -9.6416,-10.84586 -13.2576,-11.9168" /><path
             inkscape:connector-curvature="0"
             id="path3029"
             style="fill:#876b43;fill-opacity:1;fill-rule:nonzero;stroke:none;stroke-width:1.06666672"
             d="m 577.73333,195.84533 c -0.13333,4.95467 -0.26666,9.776 -0.26666,14.59627 0.5376,0.26667 1.20426,0.40427 1.8752,0.5376 0.26666,-4.288 0.80426,-8.704 1.20426,-13.12533 -0.9376,-0.53334 -1.8752,-1.20427 -2.8128,-2.00854" /><path
             inkscape:connector-curvature="0"
             id="path3031"
             style="fill:#876b43;fill-opacity:1;fill-rule:nonzero;stroke:none;stroke-width:1.06666672"
             d="m 584.0288,201.47093 c -0.67093,9.37494 -3.48267,15.5328 4.688,19.54987 -0.13333,-5.3536 -0.26667,-10.84587 -0.26667,-16.33707 -1.60853,-0.9376 -2.9504,-2.00853 -4.42133,-3.2128" /><path
             inkscape:connector-curvature="0"
             id="path3033"
             style="fill:#876b43;fill-opacity:1;fill-rule:nonzero;stroke:none;stroke-width:1.06666672"
             d="m 592.8672,209.23733 c -0.53333,4.688 -2.00853,13.92534 0,16.87147 0.66987,0 1.47413,-0.13333 2.1408,-0.26667 0.40427,-4.95466 0.80427,-9.77493 1.34187,-14.86293 -1.34187,-0.9376 -2.4128,-1.74187 -3.48267,-1.74187" /><path
             inkscape:connector-curvature="0"
             id="path3035"
             style="fill:#876b43;fill-opacity:1;fill-rule:nonzero;stroke:none;stroke-width:1.06666672"
             d="m 600.2336,215.80053 c -1.07093,8.83734 -3.7504,15.9328 4.28267,19.41227 0.27093,-5.22133 0.80426,-10.4416 1.20853,-15.80053 -1.4752,-1.47094 -3.616,-4.016 -5.4912,-3.61174" /><path
             inkscape:connector-curvature="0"
             id="path3037"
             style="fill:#8c6f42;fill-opacity:1;fill-rule:nonzero;stroke:none;stroke-width:1.06666672"
             d="m 574.65387,218.7456 c -0.5376,0.4 -0.80427,0.66667 -1.20427,1.07093 9.77493,21.29174 16.73813,42.31254 23.83787,63.6 5.088,31.60427 5.4912,57.57974 0.66666,88.77974 -1.60426,5.22026 -1.60426,5.22026 -1.60426,6.8288 3.07946,2.00853 3.07946,2.00853 5.22133,4.1504 -0.53333,8.1664 -5.75893,13.2576 -6.0256,17.27466 13.392,0.26667 37.09653,-0.80426 27.184,17.808 12.99093,0 47.9456,23.30027 25.71627,33.4752 0,12.8544 21.69173,27.98294 -0.94187,34.14614 -1.87093,19.27893 4.288,19.27893 -15.5328,23.16266 -13.65867,27.18294 -44.32533,30.12907 -60.8,55.57014 C 600.36693,687.1296 690.76267,772.69547 821.87093,743.904 888.56213,714.31253 905.5712,642.54187 897.53387,572.912 884.94613,501.008 857.0912,445.44213 805.1296,393.62133 730.5376,332.15787 646.704,283.41653 574.65387,218.7456" /><path
             inkscape:connector-curvature="0"
             id="path3039"
             style="fill:#876b43;fill-opacity:1;fill-rule:nonzero;stroke:none;stroke-width:1.06666672"
             d="m 609.74187,224.2336 c -0.40427,4.9536 -0.67094,10.0416 -0.80427,15.1328 2.14187,2.14187 1.74187,2.6752 5.08693,3.07947 0.40427,-4.688 1.07094,-9.37494 1.60854,-14.19627 -4.28267,-3.74507 -4.28267,-3.74507 -5.8912,-4.016" /><path
             inkscape:connector-curvature="0"
             id="path3041"
             style="fill:#876b43;fill-opacity:1;fill-rule:nonzero;stroke:none;stroke-width:1.06666672"
             d="m 619.1168,231.73333 c -0.80427,5.488 -0.80427,5.488 -0.80427,16.0672 2.40854,2.41174 3.2128,3.34934 6.69547,4.1536 0,-4.1536 0.4,-8.03733 3.34613,-13.12533 -8.704,-7.36213 -8.704,-7.36213 -9.23733,-7.09547" /><path
             inkscape:connector-curvature="0"
             id="path3043"
             style="fill:#876b43;fill-opacity:1;fill-rule:nonzero;stroke:none;stroke-width:1.06666672"
             d="m 630.22933,240.83733 c -0.26666,11.25014 -3.2128,17.94134 7.77067,20.6208 -0.27093,-5.48693 -0.40427,-9.23733 0.26667,-15.79946 -2.67947,-1.60427 -5.35787,-3.2128 -8.03734,-4.82134" /><path
             inkscape:connector-curvature="0"
             id="path3045"
             style="fill:#876b43;fill-opacity:1;fill-rule:nonzero;stroke:none;stroke-width:1.06666672"
             d="m 641.6128,248.73707 c -0.13333,5.49226 -0.26667,10.9792 -0.26667,16.33813 95.08267,72.03733 192.57494,115.69173 242.79574,230.30827 1.60853,-1.60427 3.34933,-3.2128 6.96213,-4.95467 0,4.42133 -3.2128,6.42987 -5.08693,8.03413 0.5376,3.616 0.5376,3.616 2.41173,8.97494 0.8,0.13333 1.7376,0.4 2.6752,0.53333 0.40427,-1.07093 3.7504,-8.43413 8.03733,-7.49653 0,12.3168 -10.31253,8.03413 -4.42026,24.7712 5.0912,0 10.71253,-13.392 15.93706,-12.0544 -1.34186,10.98346 -13.7952,12.32106 -12.72106,21.5584 1.07093,0.1376 2.2752,0.27093 3.6128,0.27093 2.00853,-1.74187 6.83306,-8.83733 11.25013,-8.17067 0,12.8544 -15.39947,6.96214 -10.1792,27.85387 0.40427,0.13333 0.9376,0.26667 1.60853,0.26667 2.27947,-3.616 7.7664,-13.92534 13.66187,-15.1328 -1.7408,8.304 -7.09973,13.7952 -10.84907,19.54986 -0.9376,0.1376 -1.8752,0.40427 -2.8128,0.40427 -0.4,-0.40427 -0.67093,-0.67093 -0.80426,-0.9376 0.40426,7.36213 0.40426,7.36213 1.8752,13.6576 4.5536,-0.8032 11.92106,-12.45333 15.39946,-17.408 0.67094,0 1.20854,0 1.8752,-0.13333 0,15.80053 -16.4704,16.47146 -15.66613,38.02986 3.74933,0 15.66613,-12.8544 17.67893,-18.21333 0.53334,0.26667 1.20427,0.40427 1.7376,0.40427 -2.2752,16.87146 -18.08,17.13813 -19.41653,39.3664 6.4288,-1.3408 16.74133,-15.39947 19.8208,-23.16587 0.53333,0.13333 1.20427,0.26667 1.87413,0.4 -2.2784,17.67467 -20.62506,21.96267 -22.8992,42.04587 2.5408,0 15.79947,-16.0672 18.8832,-20.0832 1.20427,0 1.20427,0 1.60427,0.8032 -7.9008,11.51253 -26.65067,29.8592 -24.64213,43.38346 1.60853,-2.00746 25.31306,-31.6 27.45386,-32.40426 C 955.6544,515.06667 884.54187,417.05387 802.8544,352.1088 759.19573,322.11627 713.79627,294.26667 668.39573,267.08373 c -2.6752,-3.2128 -24.63786,-17.9424 -26.78293,-18.34666" /><path
             inkscape:connector-curvature="0"
             id="path3047"
             style="fill:#231f20;fill-opacity:1;fill-rule:nonzero;stroke:none;stroke-width:1.06666672"
             d="m 654.33707,261.19147 c -1.60747,1.60426 -1.60747,1.60426 -4.1536,2.67946 -0.13334,0.8 -0.26667,1.60427 -0.26667,2.2752 1.4752,1.07094 1.4752,1.07094 3.3504,1.3376 1.06987,-0.9376 4.016,-8.16746 1.06987,-6.29226" /><path
             inkscape:connector-curvature="0"
             id="path3049"
             style="fill:#231f20;fill-opacity:1;fill-rule:nonzero;stroke:none;stroke-width:1.06666672"
             d="m 213.4752,284.35413 c -6.69653,10.1792 -7.09973,19.8208 -7.49973,29.99574 0.26666,0.67093 0.8032,1.20426 1.2032,1.60853 0.4,-0.27093 7.36746,-28.12053 6.82986,-31.87093 -0.13333,0.13333 -0.4,0.26666 -0.53333,0.26666" /><path
             inkscape:connector-curvature="0"
             id="path3051"
             style="fill:#231f20;fill-opacity:1;fill-rule:nonzero;stroke:none;stroke-width:1.06666672"
             d="m 199.27893,301.09547 c -3.08266,9.90826 -5.4912,23.42933 -2.00853,31.73333 0.53333,0 0.9376,0 1.60427,0 2.4128,-5.75787 -0.66667,-21.29173 1.74186,-31.46667 -0.80426,-0.67093 -0.80426,-0.67093 -1.3376,-0.26666" /><path
             inkscape:connector-curvature="0"
             id="path3053"
             style="fill:#231f20;fill-opacity:1;fill-rule:nonzero;stroke:none;stroke-width:1.06666672"
             d="m 190.97493,314.34987 c 0.5376,10.44586 -6.02453,34.67946 1.60854,40.97493 0.8,-0.40427 0.8,-40.97493 -1.60854,-40.97493" /><path
             inkscape:connector-curvature="0"
             id="path3055"
             style="fill:#231f20;fill-opacity:1;fill-rule:nonzero;stroke:none;stroke-width:1.06666672"
             d="m 183.60853,327.60427 c -1.60426,11.25013 -1.8752,37.76213 3.08267,45.12533 0.8,-1.7376 -1.87413,-38.69653 -1.87413,-45.25867 -0.80427,-0.4 -0.80427,-0.4 -1.20854,0.13334" /><path
             inkscape:connector-curvature="0"
             id="path3057"
             style="fill:#231f20;fill-opacity:1;fill-rule:nonzero;stroke:none;stroke-width:1.06666672"
             d="m 174.7712,342.33707 c 0.26667,13.38773 1.7408,23.02933 5.22453,35.07946 1.07094,-8.43306 -3.48373,-23.4336 -4.02026,-34.67946 -0.4,-0.13334 -0.9376,-0.26667 -1.20427,-0.4" /><path
             inkscape:connector-curvature="0"
             id="path3059"
             style="fill:#c0973c;fill-opacity:1;fill-rule:nonzero;stroke:none;stroke-width:1.06666672"
             d="m 458.67947,353.58293 c -10.9792,6.29227 -6.5632,9.50827 -2.00854,18.61334 0.4,0 1.07094,0 1.74187,0 0.4,-10.9792 0.4,-10.9792 1.47093,-18.48 -0.66666,-0.4 -0.66666,-0.4 -1.20426,-0.13334" /><path
             inkscape:connector-curvature="0"
             id="path3061"
             style="fill:#231f20;fill-opacity:1;fill-rule:nonzero;stroke:none;stroke-width:1.06666672"
             d="m 168.87893,355.3248 c 0,18.87893 4.01707,34.4128 9.50827,50.87893 0.53333,0.1376 0.9376,0.40427 1.60853,0.5376 -1.74186,-6.15786 -10.58346,-51.8208 -11.1168,-51.41653" /><path
             inkscape:connector-curvature="0"
             id="path3063"
             style="fill:#231f20;fill-opacity:1;fill-rule:nonzero;stroke:none;stroke-width:1.06666672"
             d="m 674.6912,429.63733 c -2.00747,21.1584 -1.87413,42.1792 -3.616,61.72907 -3.07947,-0.4 -3.07947,-0.4 -6.29227,0 -0.13333,0.80427 -0.27093,1.60853 -0.27093,2.4128 3.48373,2.40853 3.48373,2.40853 6.1632,3.47947 0,8.03306 0,16.0704 0,23.97013 -7.23307,-0.5376 -13.25867,-4.28693 -18.8832,-6.16213 -1.20427,0.80426 -1.20427,0.80426 -1.4752,2.8128 0.80427,0.9376 0.80427,0.9376 19.28747,8.17066 1.8752,9.63734 0.9376,20.6208 1.47093,29.45387 -7.3632,-1.07093 -13.392,-7.2288 -19.95413,-8.29973 -0.13334,0.67093 -0.26667,1.4752 -0.26667,2.14186 5.62453,3.48267 13.92853,6.4288 19.8208,10.44587 1.20427,10.0416 1.20427,10.0416 1.60853,20.0832 -9.37493,-3.07947 -28.12586,-11.51253 -34.688,-17.0048 -0.80426,0.13333 -1.60853,0.26667 -2.2752,0.53333 -0.13333,0.5376 -0.27093,1.20854 -0.27093,1.74187 7.36747,7.3664 25.984,13.392 36.5632,18.21227 4.016,17.67573 0.13333,50.21333 10.5792,62.66666 -1.74187,-8.97493 -6.0256,-21.424 -4.82133,-32.13653 4.42133,23.56587 4.42133,23.56587 5.22133,24.2368 1.07093,-14.5952 -8.16747,-36.1536 -5.22133,-51.4208 2.67946,0.27093 2.67946,0.27093 17.54133,6.29653 3.3504,26.10774 5.49227,81.9456 19.15093,101.2288 0.40427,-0.9376 -3.47946,-14.7296 -3.07946,-16.2048 0.26666,0.13334 0.67093,0.27094 1.07093,0.40427 1.74187,-23.16587 -9.23733,-55.8368 -12.05013,-82.75413 18.87893,6.29653 17.54133,2.27946 20.7584,18.8832 1.07093,12.58346 1.47093,60.1216 12.72106,71.23413 0.66667,-0.26667 1.20427,-0.53333 1.87414,-1.07093 -3.88267,-26.77974 -9.10827,-52.2208 -12.32,-80.20907 3.34506,0.5376 13.12426,4.82133 16.20373,4.15467 0.80427,3.6128 26.51627,10.30826 31.60427,10.84586 0.40426,0.80427 0.9376,1.47094 1.4752,2.14187 3.47946,0 23.8368,4.54933 25.30773,6.42453 3.3504,0 7.63413,1.20854 12.0544,0.67094 -1.8752,-3.2128 -37.89973,-10.5792 -47.27467,-13.2544 -0.13333,-0.5376 -0.26666,-1.07414 -0.4,-1.7408 -6.29653,-2.27947 -12.4544,-4.688 -18.8832,-5.2256 -2.8128,-3.47947 -16.2048,-6.02454 -20.35413,-7.76214 -0.9376,-6.9664 -1.8752,-14.3296 -2.8128,-21.5584 7.49973,0 17.808,7.2288 27.18293,8.03307 -0.80426,-1.34187 -22.63253,-8.304 -27.18293,-9.77493 -5.89547,-27.18294 9.6416,-66.9504 2.54187,-91.05387 -2.94614,8.43733 -4.01707,17.94133 -4.1504,25.70773 -7.49974,-0.53333 -12.4544,-4.14933 -19.14987,-6.8288 -0.26667,-16.60373 -0.67093,-33.4752 -2.4128,-50.87893 -0.66667,16.19947 -1.20427,32.26667 -1.8752,48.33707 -7.09547,0 -12.98667,-5.08694 -19.01653,-7.89974 0,-20.35413 -1.47094,-43.38346 2.67946,-64.54186 -1.3376,-0.13334 -2.54613,-0.26667 -3.88373,-0.67094" /><path
             inkscape:connector-curvature="0"
             id="path3065"
             style="fill:#8c6f42;fill-opacity:1;fill-rule:nonzero;stroke:none;stroke-width:1.06666672"
             d="m 675.89547,434.99627 c -0.80427,7.89973 -0.80427,7.89973 -0.4,12.58666 0.53333,-2.6784 0.53333,-2.6784 0.4,-12.58666" /><path
             inkscape:connector-curvature="0"
             id="path3067"
             style="fill:#231f20;fill-opacity:1;fill-rule:nonzero;stroke:none;stroke-width:1.06666672"
             d="m 891.104,473.1584 c -0.8,0.26667 -1.60427,0.66667 -2.2752,0.9376 -0.13333,1.20427 -0.26667,2.40853 -0.26667,3.47947 2.94614,1.87413 2.94614,1.87413 4.1504,1.87413 0.9376,-1.07093 0.9376,-1.07093 1.20427,-4.5536 -2.40853,-2.00853 -2.40853,-2.00853 -2.8128,-1.7376" /><path
             inkscape:connector-curvature="0"
             id="path3069"
             style="fill:#8c6f42;fill-opacity:1;fill-rule:nonzero;stroke:none;stroke-width:1.06666672"
             d="m 673.75467,484.27093 c 0,1.47094 0,2.94614 0.13333,4.28374 0.53653,-3.7504 0.53653,-3.7504 -0.13333,-4.28374" /><path
             inkscape:connector-curvature="0"
             id="path3071"
             style="fill:#8c6f42;fill-opacity:1;fill-rule:nonzero;stroke:none;stroke-width:1.06666672"
             d="m 675.36213,500.0704 c -0.13333,8.03413 -0.13333,16.0672 -0.13333,24.10453 6.0256,2.94614 12.05013,6.96214 19.01653,7.36214 0,-7.89974 0,-15.66614 0.13334,-23.56587 -6.4288,-2.54187 -12.72427,-5.22133 -19.01654,-7.9008" /><path
             inkscape:connector-curvature="0"
             id="path3073"
             style="fill:#8c6f42;fill-opacity:1;fill-rule:nonzero;stroke:none;stroke-width:1.06666672"
             d="m 701.0752,509.84533 c -0.67093,0.13334 -1.07093,0.13334 -1.60853,0.13334 0,8.16746 0,16.2048 0,24.23786 1.07093,0.67094 2.14186,1.07094 3.3504,1.60427 0,0.67093 0.13333,1.0752 0.26666,1.60853 1.60747,0.13334 3.21174,0.26667 4.68694,0.4 -0.13334,0.67094 -0.26667,1.0752 -0.40427,1.60854 -5.8912,-1.74187 -6.2912,-2.40854 -8.43307,-2.67947 0,32.00427 -9.10826,28.3872 15.1296,38.43307 -0.53333,-10.31254 -0.9376,-21.29174 -0.8,-33.0752 -0.5376,-0.26667 -1.0752,-0.67094 -1.4752,-1.07094 0,-0.4032 0.13334,-0.66986 0.26667,-1.20746 0.67093,0.40426 1.20853,0.5376 2.00853,0.67093 5.22454,-20.75413 5.4912,-28.65493 -12.98773,-30.66347" /><path
             inkscape:connector-curvature="0"
             id="path3075"
             style="fill:#8c6f42;fill-opacity:1;fill-rule:nonzero;stroke:none;stroke-width:1.06666672"
             d="m 675.36213,528.85867 c 0.13334,5.62453 0.26667,11.38346 0.53334,16.87466 -0.53334,-0.80426 -0.80427,-1.74186 -1.20427,-2.67946 -0.26667,1.60426 -0.26667,1.60426 0.67093,15.80053 9.90827,4.54933 9.90827,4.54933 17.80907,7.36213 0.80427,-24.10026 0.80427,-24.10026 0.40427,-30.1248 -4.95467,0 -12.992,-5.8912 -18.21334,-7.23306" /><path
             inkscape:connector-curvature="0"
             id="path3077"
             style="fill:#231f20;fill-opacity:1;fill-rule:nonzero;stroke:none;stroke-width:1.06666672"
             d="m 111.82933,545.19573 c 4.14934,7.2288 7.63307,13.92534 10.84587,21.0208 0.13333,-0.13333 0.40427,-0.4 0.80427,-0.53333 0,-5.22027 -6.69654,-16.4704 -11.25014,-21.02507 -0.13333,0.27094 -0.26666,0.40427 -0.4,0.5376" /><path
             inkscape:connector-curvature="0"
             id="path3079"
             style="fill:#231f20;fill-opacity:1;fill-rule:nonzero;stroke:none;stroke-width:1.06666672"
             d="m 675.89547,547.74187 c 0.13333,1.47093 0.27093,2.80853 0.40426,4.28266 0,-4.28266 0,-4.28266 -0.40426,-4.28266" /><path
             inkscape:connector-curvature="0"
             id="path3081"
             style="fill:#8c6f42;fill-opacity:1;fill-rule:nonzero;stroke:none;stroke-width:1.06666672"
             d="m 675.36213,561.93387 c 0.66667,17.00373 -1.07093,25.84106 19.41654,27.8496 -1.87414,-12.98774 -1.87414,-12.98774 -2.40747,-20.4832 -3.48373,-1.74187 -7.1008,-3.88374 -10.1792,-3.88374 -0.4,-0.67093 -0.67093,-1.34186 -0.80427,-1.8752 -0.4,0.26667 -0.67093,0.4 -0.80426,0.53334 -1.74187,-0.53334 -3.47947,-1.3376 -5.22134,-2.1408" /><path
             inkscape:connector-curvature="0"
             id="path3083"
             style="fill:#8c6f42;fill-opacity:1;fill-rule:nonzero;stroke:none;stroke-width:1.06666672"
             d="m 698.93333,572.512 c -3.888,21.82507 1.47094,19.95093 19.01654,26.2464 -0.40427,-2.54613 -2.14614,-19.8208 -4.95787,-22.62933 -0.26667,0.4 -0.66667,0.8 -0.9376,1.07093 -4.1504,-2.94613 -6.5632,-0.40427 -7.3632,-3.61707 -1.87413,-0.26666 -3.74933,-0.67093 -5.75787,-1.07093" /><path
             inkscape:connector-curvature="0"
             id="path3085"
             style="fill:#231f20;fill-opacity:1;fill-rule:nonzero;stroke:none;stroke-width:1.06666672"
             d="m 338.55467,588.04587 c -7.9008,3.2128 -17.5424,35.07946 -19.95414,40.97066 -8.70506,3.48374 -21.1584,20.08747 -25.97973,26.91734 -21.96267,0.93653 -20.7584,7.49546 -27.45387,25.17013 -0.67093,0.1376 -1.20426,0.27093 -1.74186,0.27093 -5.088,-5.4912 -22.36267,-17.408 -20.48747,-2.00853 0.66667,0 1.3376,0 2.00853,0 0.4,-0.27093 0.66667,-0.67093 1.20427,-1.07093 16.33707,2.6752 13.39093,29.05493 27.85387,25.43786 0.40426,-0.66666 0.9376,-1.60426 1.60853,-2.6752 -24.5088,-34.68266 21.82933,-48.608 48.7456,-21.69173 12.72533,19.27893 10.71253,22.3584 11.5168,46.3296 -25.71307,-1.60853 -59.05813,-4.55467 -62.5376,27.31627 -5.2256,0 -17.27893,-25.44107 -18.07893,-32.00427 -1.0752,-0.5376 -2.27947,-0.9376 -3.3504,-1.60747 0.80426,12.99094 8.17066,22.22827 13.52533,33.20747 -8.97067,0 -22.36267,-22.62933 -27.184,-21.5584 3.07947,16.07147 29.99573,28.1216 40.4416,39.36747 12.18773,32.27093 90.53013,56.64106 108.47573,16.60373 8.83734,-2.40853 42.72107,-7.7664 41.65014,-22.896 -11.1168,8.03307 -19.4208,14.59627 -31.07094,16.20053 0.13334,-0.53333 0.26667,-0.9376 0.40427,-1.60426 8.704,-4.288 21.82827,-8.304 23.97013,-21.5584 -0.80426,-0.40427 -25.17866,18.208 -30.66666,18.208 -0.80427,-1.3376 -0.80427,-1.3376 -2.81174,-13.52107 -9.7792,-21.82827 -24.91306,-28.65813 -47.5424,-34.01173 7.3632,-27.31734 17.00907,-38.42987 47.13814,-45.25867 16.608,-16.60373 33.61173,30.39573 34.68693,38.4288 -6.0288,1.74187 -11.78773,5.088 -11.78773,10.0416 3.07946,3.07947 31.60426,-1.87413 34.1504,-7.89973 -4.1504,-4.14934 -9.2416,-2.8128 -13.792,-2.8128 -3.08267,-9.77494 -27.99147,-72.43734 -34.5536,-76.99094 -7.49974,-52.89173 5.0912,-55.30026 -58.3872,-55.30026" /><path
             inkscape:connector-curvature="0"
             id="path3087"
             style="fill:#231f20;fill-opacity:1;fill-rule:nonzero;stroke:none;stroke-width:1.06666672"
             d="m 749.8208,588.1792 c 2.2752,0.80427 3.7504,2.2752 6.29547,1.60427 -2.6784,-1.20427 -2.6784,-1.20427 -6.29547,-1.60427" /><path
             inkscape:connector-curvature="0"
             id="path3089"
             style="fill:#ffffff;fill-opacity:1;fill-rule:nonzero;stroke:none;stroke-width:1.06666672"
             d="m 344.1792,594.87467 c -18.07893,12.58346 -28.25813,46.86293 -30.8,67.3504 12.72107,6.8288 19.95413,15.9328 27.18293,27.8496 0.5376,0 0.9376,0 1.60854,0 3.61706,-16.46614 4.82133,-34.6784 9.90826,-52.6208 0,20.0832 -6.4288,39.904 -4.68693,57.3088 2.2784,-6.0256 34.5536,-20.6208 42.85333,-21.9584 2.4128,-15.6672 -2.67413,-44.85867 -3.21173,-61.4624 -3.7504,-20.21654 -27.05067,-15.93387 -42.8544,-16.4672" /><path
             inkscape:connector-curvature="0"
             id="path3091"
             style="fill:#876b43;fill-opacity:1;fill-rule:nonzero;stroke:none;stroke-width:1.06666672"
             d="m 924.18347,636.2496 c -7.89974,12.8544 -24.77547,26.24213 -28.9248,36.95467 0.53333,0.27093 1.3376,0.40426 2.14186,0.40426 10.9824,-10.31253 33.34507,-34.0128 26.78294,-37.35893" /><path
             inkscape:connector-curvature="0"
             id="path3093"
             style="fill:#8c6f42;fill-opacity:1;fill-rule:nonzero;stroke:none;stroke-width:1.06666672"
             d="m 703.08373,638.1248 c 0.80427,4.28373 1.7408,8.5664 2.6784,12.58347 -1.47413,-10.9792 -1.47413,-10.9792 -2.14506,-12.58347 -0.26667,0 -0.4,0 -0.53334,0" /><path
             inkscape:connector-curvature="0"
             id="path3095"
             style="fill:#8c6f42;fill-opacity:1;fill-rule:nonzero;stroke:none;stroke-width:1.06666672"
             d="m 705.76213,651.64587 c 0.80427,6.96213 0.80427,6.96213 2.00854,10.5792 0.4,-1.07094 0.4,-1.07094 -2.00854,-10.5792" /><path
             inkscape:connector-curvature="0"
             id="path3097"
             style="fill:#876b43;fill-opacity:1;fill-rule:nonzero;stroke:none;stroke-width:1.06666672"
             d="m 906.9088,669.99147 c -7.09653,6.42986 -22.096,18.21226 -23.5712,26.91306 0.40427,0.40427 0.67093,0.80427 1.20427,1.07414 4.95786,-2.00747 22.90346,-22.3616 22.90346,-27.85387 -0.26986,0 -0.4032,0 -0.53653,-0.13333" /><path
             inkscape:connector-curvature="0"
             id="path3099"
             style="fill:#231f20;fill-opacity:1;fill-rule:nonzero;stroke:none;stroke-width:1.06666672"
             d="m 290.208,699.18293 c -0.80427,0.80427 -0.80427,0.80427 -0.80427,3.47947 0.9376,0.9376 0.9376,0.9376 3.88374,1.34187 1.4752,-1.4752 0.40426,-2.94614 -1.07094,-4.82134 -0.8,0 -1.3376,0 -2.00853,0" /><path
             inkscape:connector-curvature="0"
             id="path3101"
             style="fill:#231f20;fill-opacity:1;fill-rule:nonzero;stroke:none;stroke-width:1.06666672"
             d="m 309.49547,704.00427 c -1.07414,1.07093 -2.14507,2.00853 -3.08267,2.94613 2.00853,2.00747 3.74933,1.87413 7.49973,0.9376 -0.53333,-3.61707 -1.47093,-3.48373 -4.41706,-3.88373" /><path
             inkscape:connector-curvature="0"
             id="path3103"
             style="fill:#876b43;fill-opacity:1;fill-rule:nonzero;stroke:none;stroke-width:1.06666672"
             d="m 876.9088,705.87947 c -2.54187,2.54186 -2.54187,3.0784 -3.07947,4.68266 1.4752,0 2.8128,-0.9376 5.35787,-3.21173 -0.26667,-0.53333 -0.26667,-1.20427 -0.26667,-1.8752 -0.67093,0.26667 -1.34186,0.40427 -2.01173,0.40427" /><path
             inkscape:connector-curvature="0"
             id="path3105"
             style="fill:#231f20;fill-opacity:1;fill-rule:nonzero;stroke:none;stroke-width:1.06666672"
             d="m 291.81653,714.98347 c -0.26666,1.20426 -0.4,2.40853 -0.4,3.47946 0.8,0.80427 0.8,0.80427 3.07947,0.80427 0.4,-0.66667 0.9376,-1.3376 1.47093,-1.8752 -0.53333,-0.80427 -1.07093,-1.60427 -1.47093,-2.40853 -0.9376,0 -1.8752,0 -2.67947,0" /><path
             inkscape:connector-curvature="0"
             id="path3107"
             style="fill:#231f20;fill-opacity:1;fill-rule:nonzero;stroke:none;stroke-width:1.06666672"
             d="m 388.9088,715.65013 c -3.88373,1.8752 -1.3376,4.68694 2.00747,4.68694 0.80426,-0.8032 1.74186,-2.67414 0.5376,-4.68694 -0.9376,0 -1.74187,0 -2.54507,0" /><path
             inkscape:connector-curvature="0"
             id="path3109"
             style="fill:#231f20;fill-opacity:1;fill-rule:nonzero;stroke:none;stroke-width:1.06666672"
             d="m 375.65013,722.8832 c -1.74186,1.74187 -1.20426,2.54613 -1.20426,3.88373 0.80426,0.67094 1.60426,1.07094 2.40853,1.60854 0.40427,-0.27094 1.07093,-0.67094 1.74187,-1.0752 0,-2.54187 0,-2.54187 -1.07094,-4.1504 -0.5376,0 -1.20426,-0.13334 -1.8752,-0.26667" /><path
             inkscape:connector-curvature="0"
             id="path3111"
             style="fill:#4f4c4c;fill-opacity:1;fill-rule:nonzero;stroke:none;stroke-width:1.06666672"
             d="m 309.49547,731.85387 c -54.2368,8.97066 -22.0992,48.7424 10.17493,64.00426 21.82933,6.15894 44.3296,9.37494 59.86347,-10.84586 11.92,-42.04587 -39.37174,-53.1584 -70.0384,-53.1584" /><path
             inkscape:connector-curvature="0"
             id="path3113"
             style="fill:#231f20;fill-opacity:1;fill-rule:nonzero;stroke:none;stroke-width:1.06666672"
             d="m 388.9088,732.9248 c -2.4128,1.60853 -1.74187,2.4128 -1.8752,3.7504 1.20427,0.9376 1.20427,0.9376 3.48267,0.9376 0.13333,-0.26667 0.4,-6.15893 -1.60747,-4.688" /><path
             inkscape:connector-curvature="0"
             id="path3115"
             style="fill:#231f20;fill-opacity:1;fill-rule:nonzero;stroke:none;stroke-width:1.06666672"
             d="m 302.2624,808.98347 c -12.58773,6.2912 -4.68693,16.46613 -0.26667,24.90453 1.07094,0.13333 2.2752,0.26667 3.47947,0.26667 1.07093,-4.688 18.07893,-20.88747 -3.2128,-25.1712" /><path
             inkscape:connector-curvature="0"
             id="path3117"
             style="fill:#231f20;fill-opacity:1;fill-rule:nonzero;stroke:none;stroke-width:1.06666672"
             d="m 329.58293,814.20373 c -22.23253,7.3632 -1.87413,38.42987 11.78347,13.38774 0,-10.70827 -1.07093,-12.8544 -11.78347,-13.38774" /><path
             inkscape:connector-curvature="0"
             id="path3119"
             style="fill:#ffffff;fill-opacity:1;fill-rule:nonzero;stroke:none;stroke-width:1.06666672"
             d="m 301.7248,814.73707 c -3.34613,2.67946 -0.13333,8.70506 1.07093,10.71253 1.8752,0 2.14614,1.20853 4.688,-0.8 0,-4.95787 -0.13333,-8.97493 -5.75893,-9.91253" /><path
             inkscape:connector-curvature="0"
             id="path3121"
             style="fill:#ffffff;fill-opacity:1;fill-rule:nonzero;stroke:none;stroke-width:1.06666672"
             d="m 329.98293,819.96267 c -6.69546,4.9536 -6.29546,6.96213 -1.47413,12.18346 2.6784,0 4.1536,-1.74186 7.3664,-4.28373 0,-2.8128 0.13333,-5.22453 -1.60427,-7.89973 -1.34186,0 -2.8128,0 -4.288,0" /><path
             inkscape:connector-curvature="0"
             id="path3123"
             style="fill:#231f20;fill-opacity:1;fill-rule:nonzero;stroke:none;stroke-width:1.06666672"
             d="m 227.6704,842.0544 c -23.70347,13.52427 -36.56213,33.87947 -10.9824,54.6336 4.9536,0.26667 9.77493,0.66987 16.33707,-1.60853 0.26666,-0.80427 0.67093,-1.60854 0.9376,-2.54187 0.67093,-0.1376 1.4752,-0.27093 2.2752,-0.5376 4.28693,-21.42507 -35.488,-28.92053 -4.28374,-46.3296 0,-0.8032 0,-1.60747 0.13334,-2.41173 -1.74187,-1.7376 -3.2128,-1.07094 -4.41707,-1.20427" /><path
             inkscape:connector-curvature="0"
             id="path3125"
             style="fill:#c0973c;fill-opacity:1;fill-rule:nonzero;stroke:none;stroke-width:1.06666672"
             d="m 214.14187,858.25813 c -9.50827,11.51254 -2.40854,31.33334 13.12533,30.25814 0,-9.63734 -7.76747,-14.86187 -12.992,-22.09174 0.5376,-7.89973 0.5376,-7.89973 -0.13333,-8.1664" /><path
             inkscape:connector-curvature="0"
             id="path3127"
             style="fill:#231f20;fill-opacity:1;fill-rule:nonzero;stroke:none;stroke-width:1.06666672"
             d="m 376.8544,887.17867 c -6.29227,6.29226 4.5536,9.10506 5.8912,14.86293 -16.20373,14.46293 -40.17493,19.01653 -9.104,29.19147 24.10453,0 44.99627,-40.43734 29.8624,-40.43734 -4.68693,15.1296 -16.73707,37.2256 -34.14933,30.79574 0,-3.88267 19.28746,-8.29974 19.28746,-21.5584 -2.4128,-4.28267 -5.89653,-12.45014 -11.78773,-12.8544" /></g></g></g><text
       transform="scale(1,-1)"
       id="text4223"
       y="-140.62161"
       x="551.80981"
       style="font-style:normal;font-variant:normal;font-weight:800;font-stretch:normal;font-size:12.80000019px;line-height:0%;font-family:ALEWISDODI;-inkscape-font-specification:'ALEWISDODI Ultra-Bold';text-align:center;letter-spacing:0px;word-spacing:0px;writing-mode:lr-tb;text-anchor:middle;fill:#ff2a2a;fill-opacity:1;stroke:none;stroke-width:1.06666672px;stroke-linecap:butt;stroke-linejoin:miter;stroke-opacity:1"
       xml:space="preserve"><tspan
         y="-140.62161"
         x="551.80981"
         id="tspan4225"
         sodipodi:role="line"
         style="font-size:261.24539185px;line-height:1;stroke-width:1.06666672px">!</tspan></text>
<g
       id="g4613"
       inkscape:label="Cube:x0.00:x0.00:x0.00:x0.00:x0.00:x0.00"
       transform="translate(676.95247,324.61171)"><path
         id="path4615"
         inkscape:label="Face:0"
         style="fill:#cd0000;fill-opacity:1;stroke:#000000;stroke-width:2.13333344;stroke-linejoin:round;stroke-opacity:1"
         d="M 53.333333,-53.333333 H -53.333333 V 53.333333 H 53.333333 Z"
         inkscape:connector-curvature="0" /></g></g></svg>