<?xml version="1.0" encoding="UTF-8" standalone="no"?>
<!-- Created with Inkscape (http://www.inkscape.org/) -->

<svg
   xmlns:dc="http://purl.org/dc/elements/1.1/"
   xmlns:cc="http://creativecommons.org/ns#"
   xmlns:rdf="http://www.w3.org/1999/02/22-rdf-syntax-ns#"
   xmlns:svg="http://www.w3.org/2000/svg"
   xmlns="http://www.w3.org/2000/svg"
   xmlns:sodipodi="http://sodipodi.sourceforge.net/DTD/sodipodi-0.dtd"
   xmlns:inkscape="http://www.inkscape.org/namespaces/inkscape"
   id="svg2985"
   version="1.1"
   inkscape:version="0.91 r"
   width="266.25"
   height="271.25"
   xml:space="preserve"
   sodipodi:docname="13201689121405101835Beaver Waving.svg"><title
     id="title3400">Beaver Waiving</title><metadata
     id="metadata2991"><rdf:RDF><cc:Work
         rdf:about=""><dc:format>image/svg+xml</dc:format><dc:type
           rdf:resource="http://purl.org/dc/dcmitype/StillImage" /><dc:title>Beaver Waiving</dc:title><cc:license
           rdf:resource="http://creativecommons.org/publicdomain/zero/1.0/" /><dc:rights><cc:Agent><dc:title>Public Domain</dc:title></cc:Agent></dc:rights><dc:contributor><cc:Agent><dc:title>http://www.clker.com/clipart-156719.html</dc:title></cc:Agent></dc:contributor><dc:description>http://www.clker.com/clipart-156719.html</dc:description><dc:source>http://www.clker.com/clipart-156719.html</dc:source></cc:Work><cc:License
         rdf:about="http://creativecommons.org/publicdomain/zero/1.0/"><cc:permits
           rdf:resource="http://creativecommons.org/ns#Reproduction" /><cc:permits
           rdf:resource="http://creativecommons.org/ns#Distribution" /><cc:permits
           rdf:resource="http://creativecommons.org/ns#DerivativeWorks" /></cc:License></rdf:RDF></metadata><defs
     id="defs2989"><clipPath
       clipPathUnits="userSpaceOnUse"
       id="clipPath3001"><path
         d="M 0,0 887,0 887,904 0,904 0,0 z"
         id="path3003" /></clipPath></defs><sodipodi:namedview
     pagecolor="#ffffff"
     bordercolor="#666666"
     borderopacity="1"
     objecttolerance="10"
     gridtolerance="10"
     guidetolerance="10"
     inkscape:pageopacity="0"
     inkscape:pageshadow="2"
     inkscape:window-width="1614"
     inkscape:window-height="984"
     id="namedview2987"
     showgrid="false"
     inkscape:zoom="1.0728111"
     inkscape:cx="-85.925679"
     inkscape:cy="135.625"
     inkscape:window-x="186"
     inkscape:window-y="40"
     inkscape:window-maximized="0"
     inkscape:current-layer="g2993" /><g
     id="g2993"
     inkscape:groupmode="layer"
     inkscape:label="Beaver_Waving"
     transform="matrix(1.25,0,0,-1.25,0,271.25)"><g
       id="g2995"
       transform="scale(0.24,0.24)"><g
         id="g2997"><g
           id="g2999"
           clip-path="url(#clipPath3001)"><path
             d="M 177.531,1.33203 C 168.746,2.83984 160.457,8.99219 153.93,5.72656 126.559,4.59766 93.1641,18.7813 93.1641,48.6602 131.078,112.18 175.773,115.82 246.961,110.172 c 40.051,7.656 9.293,18.828 -10.293,31.383 -8.035,8.66 -13.059,15.062 -17.578,24.351 -20.715,2.262 -20.59,21.969 -25.988,38.789 -2.262,0.125 -4.395,0.379 -6.657,0.379 -1.882,2.133 -1.882,2.133 -3.011,5.145 -0.504,0.125 -1.004,0.254 -1.383,0.254 -17.324,-17.2 -37.414,80.465 -38.293,87.242 -1.504,30.004 -1.504,30.004 -2.008,31.258 -15.945,-5.27 -14.941,-9.664 -18.832,10.418 -7.656,-1.254 -17.324,-9.789 -19.207,3.015 -1.883,0.375 -3.641,0.629 -5.3985,0.879 -9.418,14.184 -14.1875,35.649 -18.457,50.715 -12.0547,4.895 -8.9141,15.063 -7.5352,25.105 -5.5234,-1.253 -5.5234,-1.253 -8.914,-1.253 -30.3829,10.043 22.3515,99.421 10.4218,111.347 -19.4609,3.766 -19.332,17.824 -21.9687,32.637 -14.5664,14.437 -51.226587,-0.754 -51.226587,26.109 4.019527,14.688 2.886717,18.457 18.581987,20.086 0,0.504 0,1.004 0,1.383 -26.36714,3.766 -6.5273,43.559 28.5,25.106 0,14.058 -17.0742,8.16 -5.7773,30.628 23.4805,16.071 60.0155,-28.242 66.2925,-51.718 8.286,2.133 15.946,28.121 28.5,8.789 11.297,-36.656 -14.312,-53.102 -8.164,-91.391 2.012,-8.031 9.418,-34.144 15.946,-37.406 5.777,6.277 26.742,8.785 37.539,18.453 10.172,15.441 19.086,26.613 32.14,39.543 -0.75,2.383 -3.64,2.887 -4.519,3.262 -6.024,7.535 -7.031,14.312 -8.035,21.843 -13.684,-3.011 -11.926,4.895 -13.309,15.817 -4.644,-1.254 -4.644,-4.77 -10.293,-4.77 -6.906,7.032 -1.758,20.586 -0.504,27.868 -15.441,-2.762 -3.765,17.703 -1.883,22.093 -31.136,-12.426 -7.531,27.617 -1.757,36.028 29.629,25.609 36.914,49.964 35.781,89.254 -72.942,0 -33.899,124.277 22.976,102.308 7.786,-8.91 10.168,-10.918 10.797,-24.855 5.149,1.507 8.789,1.882 14.942,2.386 -18.832,30.254 13.937,7.032 18.203,8.036 3.015,5.773 4.898,13.429 11.301,14.433 3.89,-3.262 4.144,-6.023 4.394,-12.551 6.778,3.516 13.559,9.289 19.586,14.309 0,32.012 8.664,37.535 43.313,34.648 22.222,-8.66 40.3,-22.972 49.843,-47.453 3.266,-21.465 -2.132,-39.918 -26.238,-42.929 0,-7.157 21.719,-48.207 30.508,-60.004 32.644,-16.95 102.699,-65.782 80.351,-112.102 -6.152,-7.281 -8.539,-3.012 -14.062,-0.879 -0.625,-8.41 -3.137,-15.816 -12.805,-15.316 -2.386,-8.785 -5.398,-20.711 -15.945,-21.59 -1.004,-2.133 -1.004,-2.133 -1.254,-5.902 13.18,-7.532 26.867,-10.793 39.922,-21.84 0.504,0 0.879,-0.254 1.508,-0.379 3.39,-13.555 29.504,-21.715 42.183,-35.149 0.504,0 0.879,0 1.508,0 29.379,74.946 47.961,127.289 126.051,158.926 91.148,27.238 148.777,9.664 204.394,-69.672 61.77,-111.472 -14.062,-230.855 -101.945,-301.027 -21.219,-15.313 -23.73,-16.445 -28.625,-20.336 -34.652,-14.812 -67.547,-47.953 -102.449,-62.891 -22.223,-15.816 -56.371,-36.281 -71.313,-58.625 -25.988,-10.293 -46.328,-57.871 -74.199,-63.269 -0.375,-2.383 -0.5,-4.895 -0.629,-7.406 2.262,-0.5 23.227,-12.426 27.121,-14.434 49.34,-14.6875 126.426,13.18 147.77,-55.3594 -0.125,-1.3828 -0.25,-2.7617 -0.375,-4.0195 -11.301,-7.5313 -7.156,-12.6758 -15.57,-24.4766 -5.145,-3.6406 -17.325,-6.78122 -20.211,-10.67184 -8.914,0.25 -24.86,7.66014 -27.996,7.28124 -9.168,-18.32812 -56.122,-3.26562 -67.926,8.5352 -39.797,7.9101 -75.832,-5.2696 -114.375,1.0039 -62.399,-5.1446 -29.629,37.914 -36.031,44.4414 0.375,0.125 0.878,0.25 1.378,0.5 0.754,12.8047 0.754,12.8047 0.379,20.2109 -0.879,0.5039 -1.757,1.0039 -2.511,1.3828 -0.125,1.3789 -0.125,2.7617 -0.125,4.0157 C 359.328,90.5859 376.781,45.1445 361.461,30.9609 322.793,12.5078 292.66,22.4219 253.867,22.0469 225.996,19.2852 206.031,2.71484 177.531,1.33203 l 0,0 z M 311.492,852.57 c 6.278,2.258 6.278,2.258 7.031,3.012 -0.25,2.887 -0.25,2.887 -1.128,4.27 -3.516,-0.629 -5.149,-3.641 -5.903,-7.282 l 0,0 z m -207.281,-501 c 1.758,-1.757 4.019,19.957 4.019,23.852 -0.628,-0.254 -1.257,-0.379 -1.757,-0.629 -3.641,-7.406 -4.27,-13.809 -2.262,-23.223"
             style="fill:#231f20;fill-opacity:1;fill-rule:nonzero;stroke:none"
             id="path3005" /><path
             d="m 173.641,9.11719 c -3.391,1.12891 -4.895,2.13281 -6.403,2.25781 0,6.6563 31.008,56.8672 15.192,56.8672 -21.344,-21.4649 -11.176,-77.45314 -62.903,-47.3242 -18.832,22.3437 19.711,44.4375 33.649,54.3554 0,3.0118 0,3.0118 -0.754,4.7696 -17.199,1.2539 -36.785,-24.7305 -44.945,-37.6602 -1.508,-9.918 -1.508,-9.918 -2.137,-10.293 -14.3127,16.8204 11.551,40.7969 22.476,50.8399 25.235,15.0625 50.848,3.7656 77.84,-4.8945 17.703,-7.7852 17.703,-7.7852 19.207,-7.7852 0.125,0.2539 0.254,0.6289 0.379,0.7539 -11.676,11.6758 -47.961,18.4531 -62.023,21.9688 -0.125,0.6289 -0.25,1.0039 -0.375,1.5078 25.359,0 48.965,-11.8008 74.199,-15.6914 -5.148,13.0547 -57.125,18.3242 -73.195,20.082 0,0.6289 0,1.0039 0,1.5079 27.746,4.769 51.097,6.906 80.601,2.387 33.899,5.019 27.121,27.742 50.473,-14.1879 1.758,-0.625 1.758,-0.625 3.891,-0.5 -0.629,7.2813 -5.649,14.1839 -8.661,19.7069 6.149,-1.254 22.219,-5.898 26.239,-11.2967 6.652,0 7.531,3.1367 4.394,7.4067 -35.027,5.773 -59.887,22.218 -74.324,51.968 -1.008,0.125 -2.012,0.254 -2.891,0.504 -5.273,-5.398 -1.379,-3.265 0.125,-11.676 -0.625,0 -1.129,0 -1.629,-0.125 -16.07,14.059 -19.211,25.86 -21.972,43.938 -1.758,3.512 -3.391,2.383 -5.649,2.762 -2.89,-4.395 1.129,-13.309 -0.254,-20.086 -0.25,-0.125 -0.625,-0.25 -0.75,-0.379 -12.558,10.043 -12.054,36.91 -18.457,48.707 -1.507,0.125 -2.761,0.254 -4.144,0.254 -1.004,-1.004 -1.758,-0.879 -2.133,-0.754 0,8.41 2.887,20.965 -5.648,21.84 -4.145,-6.778 -5.149,-12.926 -6.532,-21.84 -0.25,-0.125 -0.625,-0.25 -0.879,-0.379 -56.371,84.609 -20.839,187.297 25.235,266.004 10.047,20.086 20.844,37.66 23.226,59.504 -2.507,1.129 -2.636,0.5 -4.519,0.375 -1.379,-5.899 -2.887,-11.801 -4.395,-17.699 -27.871,-63.016 -68.672,-115.743 -72.316,-187.797 -1.758,-5.274 -7.406,-4.895 -12.051,-5.524 -2.512,5.524 0,12.305 -3.012,16.446 -7.785,1.253 -8.164,-6.653 -16.195,-7.532 0,2.512 10.543,59.375 -10.801,34.774 -3.6403,-10.043 -4.2653,-13.059 -5.0192,-13.434 -5.9024,13.055 -5.5235,42.68 -18.207,40.172 0.3789,8.535 4.8984,25.355 3.2656,30.504 -2.1328,0.754 -2.1328,0.754 -5.1485,0.754 -32.0156,-43.813 -0.375,58.121 0.125,61.258 2.1368,12.804 6.0274,26.109 7.2852,37.285 -21.4688,3.765 -19.9648,10.793 -22.8516,28.117 -12.8047,27.117 -62.39841,-3.641 -50.84762,35.777 14.43752,17.45 53.98442,-18.832 63.02732,-11.8 -0.1289,1.757 -0.2539,3.39 -0.3789,5.023 -16.3203,10.668 -58.0039,22.344 -59.1328,32.512 6.5273,32.761 61.0156,-12.805 69.1758,-24.356 1.1328,-0.625 2.0117,-1.504 5.3984,-1.004 10.2969,16.446 -73.1914,57.871 -34.3984,66.407 22.5976,-2.258 49.7187,-40.418 51.8517,-64.27 -0.879,-18.832 -16.6994,-32.012 -16.6994,-47.203 0.125,-0.125 0.5039,-0.25 0.7539,-0.375 0.25,2.258 0.6289,4.519 0.8789,6.777 0.25,-0.125 0.6289,-0.375 1.0039,-0.5 1.3829,7.156 4.8985,11.422 12.4297,10.668 5.652,6.906 14.313,72.184 30.008,47.953 7.156,-29.371 -13.688,-52.093 -13.688,-85.613 -0.5,-3.137 -5.269,-14.434 -4.644,-17.699 6.027,4.019 2.89,15.316 6.906,20.086 4.77,-13.809 11.047,-27.867 15.945,-43.309 8.036,-9.793 -16.824,-26.738 -8.16,-44.187 0.625,0 1.379,0 2.133,-0.25 4.395,7.156 7.66,34.144 15.191,38.539 0.125,-0.125 0.379,-0.254 0.754,-0.379 -1.632,-10.168 -8.789,-30.629 -0.504,-41.301 0.879,0 1.758,-0.25 2.637,-0.375 1.133,2.133 -0.125,5.148 -0.25,6.277 0,46.196 11.176,36.153 37.539,57.996 5.149,10.418 29.004,44.942 38.668,44.942 9.668,-8.414 7.91,-2.891 17.703,-2.891 2.762,-4.769 5.024,-5.898 11.805,-5.898 5.145,5.148 17.449,-14.313 19.582,-3.262 -11.172,4.016 -10.922,9.914 -15.691,17.07 -3.012,0 -3.391,-0.503 -4.899,-0.878 0,-3.641 1.133,-6.278 -3.387,-7.032 -4.648,6.403 -4.519,11.801 -6.277,16.949 -10.172,6.403 -0.879,-12.429 -10.547,-14.058 -7.41,6.777 -8.414,11.547 -11.426,19.457 -3.64,0 -3.515,0.625 -5.648,-1.004 0,-2.387 0.25,-11.426 -4.019,-11.426 -10.422,11.926 -2.762,33.141 -6.403,36.781 -1.383,-0.125 -2.637,-0.25 -4.019,-0.375 -1.254,-5.148 -2.762,-10.546 -6.403,-14.562 -6.023,3.516 1.258,23.098 1.258,27.492 -6.906,7.028 -10.672,-13.055 -16.949,-14.312 0,8.035 6.652,28.371 5.398,32.765 -6.152,0 -5.652,-1.258 -9.793,-5.148 0,10.547 11.426,19.332 11.426,25.984 -0.754,0.754 -1.383,1.508 -2.137,2.137 -7.281,-1.258 -12.05,-8.285 -20.086,-9.918 0,30.879 28.625,35.023 35.528,56.113 13.687,22.848 12.558,43.309 14.312,68.289 3.895,3.516 6.278,5.024 5.653,9.414 -3.016,0 -2.762,-0.375 -4.899,-1.757 -58.754,-15.188 -46.578,83.605 3.016,90.007 27.996,-2.886 9.793,-19.082 18.832,-31.257 3.641,-0.125 7.281,-2.637 11.676,-2.637 0.629,1.004 1.129,1.883 1.882,2.762 -1.757,2.886 -2.132,4.019 -1.882,5.648 4.894,1.004 22.347,-4.77 22.347,2.262 -6.402,5.148 -12.429,7.906 -13.433,14.183 13.808,-0.879 12.429,-12.425 19.961,-13.429 4.144,6.527 1.257,16.82 9.918,19.332 -3.387,-28.246 0.125,-8.285 18.832,-3.016 -1.629,-3.387 -5.774,-7.781 -3.641,-12.176 0.754,0 1.633,0 2.512,-0.25 4.019,4.016 18.832,4.645 19.965,12.426 -25.489,46.07 24.605,48.582 50.468,25.359 31.012,-20.086 33.27,-63.894 -12.429,-63.894 -0.125,-0.879 -0.25,-1.758 -0.25,-2.762 17.953,-16.695 28.5,-36.656 33.898,-62.894 22.598,-19.457 112.113,-63.266 86.629,-110.719 -0.754,0 -1.508,-0.125 -2.262,-0.25 -6.023,7.406 -5.273,9.664 -5.648,17.949 -9.289,5.777 -6.781,-20.586 -8.535,-27.742 -0.629,0 -1.008,-0.125 -1.508,-0.25 -0.379,2.637 -0.879,5.273 -1.258,7.781 -2.637,1.758 -2.637,1.758 -4.141,1.758 -4.644,-4.52 -2.511,-27.867 -10.296,-31.758 -0.625,8.16 2.136,9.664 -4.016,11.172 -3.016,-3.012 -6.277,-19.082 -8.539,-24.98 -0.5,-0.125 -1.129,-0.254 -1.633,-0.504 0,2.886 0.125,5.648 0.254,8.41 -2.262,1.883 -2.512,1.883 -4.145,1.883 -3.14,-3.766 -3.14,-14.813 -6.027,-16.571 -1.004,6.782 -0.5,7.91 -4.894,8.539 -6.532,-9.039 -8.539,-21.718 -18.457,-29.754 0.125,-0.5 0.25,-1.003 0.503,-1.503 1.004,0 2.008,0 3.137,-0.125 3.641,3.136 11.551,15.062 14.313,15.437 0,-3.137 -1.004,-6.148 4.519,-6.148 3.016,3.011 4.27,6.777 5.903,10.293 1.503,0 2.511,-0.879 5.902,-0.879 1.129,1.508 3.512,4.015 3.891,5.648 21.343,-8.41 35.656,-13.18 49.843,-34.648 14.188,-6.528 25.989,-7.532 35.153,-24.477 2.636,0 10.796,-16.07 13.558,-20.211 15.696,-10.922 40.301,-14.058 46.203,-37.91 3.516,-3.012 10.043,-0.879 15.442,-3.516 0,-13.808 -16.321,-21.843 7.41,-19.836 0.5,-0.25 0.879,-0.5 1.504,-0.878 0,-12.801 -17.074,-21.965 -11.801,-30.125 2.762,0 6.402,0.375 9.918,-0.879 0,-25.985 -63.023,-13.309 -29.125,-30.254 0.125,-0.754 0.5,-1.633 0.75,-2.512 -11.172,-5.523 -29.379,1.508 -34.148,-1.758 -0.125,-0.879 -0.25,-1.758 -0.25,-2.636 4.769,-5.02 9.793,-9.29 11.8,-17.575 -1.757,-1.379 -4.269,-0.125 -5.648,-2.258 -16.949,0.5 -35.281,4.77 -45.699,17.2 -46.832,19.457 -18.961,-49.086 -20.969,-65.153 -21.219,-16.949 -24.481,56.364 -24.606,56.993 -1.507,1.003 -1.507,1.003 -3.769,1.378 -6.152,-5.019 -9.164,-42.679 -10.043,-55.988 -0.375,-0.25 -0.754,-0.625 -1.004,-0.879 -17.453,24.606 -4.898,37.66 -4.898,58.25 -2.637,2.133 -3.137,1.629 -5.02,1.883 -10.672,-10.547 -15.82,-31.512 -26.113,-44.691 -0.754,0.125 -1.383,0.379 -1.887,0.379 -30.883,61.507 82.238,102.683 110.109,137.207 0.629,0 1.129,0 1.883,-0.125 3.266,-7.536 5.774,-10.797 7.157,-21.219 0.125,-0.125 0.375,-0.375 0.753,-0.5 9.539,10.922 -4.773,22.469 -7.41,31.887 15.067,-1.008 21.848,-5.903 30.512,-20.086 0.754,0 1.629,-0.125 2.508,-0.254 11.679,14.562 -39.043,29.629 -41.93,30.883 -11.301,11.8 -21.344,21.089 -26.242,34.773 -1.129,0 -2.258,0 -3.266,0 -4.769,-9.543 24.235,-35.277 31.766,-46.195 -4.645,-25.11 -57.5,-49.965 -74.578,-60.258 -24.231,-21.844 -55.367,-54.731 -36.031,-90.758 11.175,-5.652 10.796,5.145 17.578,6.777 4.14,-3.011 5.648,-3.89 12.3,-5.148 2.387,-6.652 5.024,-17.449 13.059,-20.961 12.68,0 4.145,27.488 10.422,36.152 7.91,-11.047 0.879,-31.886 22.598,-36.531 34.148,2.262 -17.075,68.164 17.703,68.164 14.187,-10.543 36.16,-17.195 55.117,-19.082 15.82,-60.883 -5.399,-125.027 -38.672,-177.375 -31.008,-35.148 -32.266,-38.664 -37.16,-39.918 2.383,10.293 6.027,23.098 3.012,31.633 -1.254,0.125 -2.387,0.125 -3.516,0.125 -8.789,-11.047 -7.281,-21.969 -21.344,-34.27 -4.265,4.266 8.539,12.426 5.653,18.329 -1.383,0.125 -2.637,0.375 -3.895,0.375 -11.047,-16.321 -26.617,-31.633 -41.305,-43.809 0,6.148 5.524,8.91 4.645,13.934 -8.914,3.011 -24.481,-22.598 -34.652,-25.1098 -0.25,1.2578 -0.625,2.3868 -0.75,3.3908 -9.922,1.883 -20.34,-7.6564 -28.125,-11.926 -0.25,-0.625 -0.375,-1.1289 -0.375,-1.7578 1.253,-1.2539 2.507,-1.3789 5.144,-1.5039 0.879,-9.793 2.012,-43.5625 -5.398,-49.7109 -21.719,-5.6524 -39.672,-13.5586 -61.016,-8.5391 -14.688,0.3789 -14.688,0.3789 -60.012,0 C 223.984,15.8945 188.457,9.11719 173.641,9.11719"
             style="fill:#c0973c;fill-opacity:1;fill-rule:nonzero;stroke:none"
             id="path3007" /><path
             d="m 559.832,10.625 c -14.062,4.1406 -26.617,11.9258 -39.426,16.8203 -34.902,1.8828 -67.797,-2.0078 -100.687,-0.6289 -10.926,1.5078 -13.938,8.6641 -15.571,-1.7578 -0.5,-0.25 -1.128,-0.5 -1.757,-0.8789 -47.832,23.9766 -12.43,21.9687 -20.965,65.0273 6.777,5.1446 17.703,15.188 25.359,17.699 -0.629,-3.64 -0.629,-3.64 -0.375,-7.406 8.16,-5.5234 29.25,27.492 39.297,30.004 0.625,-14.313 22.723,13.055 25.484,13.68 -6.023,-31.508 -4.394,-30 -32.015,-47.8246 -0.125,-0.7539 -0.25,-1.5078 -0.25,-2.3867 9.543,-9.5391 32.39,14.6873 34.277,27.2423 1.129,-0.254 2.258,-0.379 3.512,-0.629 0,-9.918 -10.043,-17.828 -11.422,-27.4922 6.023,0.8789 10.168,9.6642 13.309,14.3122 5.523,0 39.546,-16.3201 52.101,-19.9607 19.836,-1.0039 19.836,-1.0039 37.918,-1.2539 -0.379,-0.7539 -41.558,-17.7031 -45.324,-20.0859 16.445,0 40.93,21.2148 62.648,18.5781 -7.406,-9.2891 -47.961,-10.9219 -49.718,-30.0039 1.757,0.6289 2.761,2.3867 3.64,3.8945 15.317,13.6797 40.051,22.9688 60.766,24.6016 0,-0.375 0,-0.8789 0,-1.3789 -3.137,-0.3789 -7.656,-2.3867 -9.414,-4.1446 -0.379,0.25 -0.754,0.504 -1.004,0.754 -1.383,-0.754 -2.512,-1.6329 -3.641,-2.5118 -0.629,0.125 -1.258,0.2539 -1.633,0.3789 -1.132,-4.2695 -46.578,-19.332 -35.531,-25.9882 7.406,4.3945 13.434,15.3164 25.613,16.9492 2.133,7.0312 27.997,11.6758 35.403,12.0508 0.125,0.5039 0.254,1.1289 0.629,1.7578 12.804,-1.6328 36.031,-18.8282 38.543,-34.2696 -0.754,-0.7539 -1.508,-1.5078 -2.258,-2.3867 -6.027,3.6406 -9.418,21.5938 -21.094,22.8477 -7.281,-9.1641 32.77,-25.3594 4.52,-47.0742 -9.668,-5.2735 -16.196,-7.0313 -26.743,-4.8946 0,0.625 0,1.1289 0,1.5039 -16.32,7.2813 -12.804,31.1328 -24.859,30.0039 -2.258,-26.8632 24.359,-32.8906 -19.332,-35.1484"
             style="fill:#c0973c;fill-opacity:1;fill-rule:nonzero;stroke:none"
             id="path3009" /><path
             d="m 156.441,93.8516 c -1.507,0.125 -2.89,0.125 -4.394,0.125 0.754,2.8867 2.762,3.3906 6.277,3.0117 0.5,-1.0039 0.754,-1.7578 3.012,-2.6367 -0.5,-0.5 -0.5,-0.5 -4.895,-0.5"
             style="fill:#c0973c;fill-opacity:1;fill-rule:nonzero;stroke:none"
             id="path3011" /><path
             d="m 481.988,128.75 c -0.125,0.5 -0.25,1.129 -0.25,1.758 0.879,0.625 1.758,1.004 2.762,1.504 -0.125,-0.75 -0.25,-1.629 -0.25,-2.508 -1.758,-1.133 -1.758,-1.133 -2.262,-0.754"
             style="fill:#876b43;fill-opacity:1;fill-rule:nonzero;stroke:none"
             id="path3013" /><path
             d="m 489.398,131.637 c -0.503,2.258 -0.878,4.394 -1.257,6.652 0.629,0 1.257,0 1.882,0 0.504,-1.004 0.504,-1.004 0.504,-6.277 -0.754,-0.625 -0.754,-0.625 -1.129,-0.375"
             style="fill:#876b43;fill-opacity:1;fill-rule:nonzero;stroke:none"
             id="path3015" /><path
             d="m 494.797,135.652 c -0.754,1.633 -0.754,1.633 -1.258,8.539 1.258,1.379 1.258,1.379 2.762,1.504 0,-3.136 0,-6.148 0.129,-9.289 -1.133,-1.004 -1.133,-1.004 -1.633,-0.754"
             style="fill:#876b43;fill-opacity:1;fill-rule:nonzero;stroke:none"
             id="path3017" /><path
             d="m 500.32,141.301 c -0.879,4.394 -0.879,4.394 -1.004,9.289 0.375,0 0.879,0 1.379,-0.125 0.754,-1.379 0.754,-1.379 1.258,-8.156 -0.504,-0.504 -0.879,-0.879 -1.258,-1.508 -0.125,0.125 -0.25,0.25 -0.375,0.5"
             style="fill:#876b43;fill-opacity:1;fill-rule:nonzero;stroke:none"
             id="path3019" /><path
             d="m 505.215,147.957 c -0.25,2.887 -0.375,5.648 -0.375,8.535 0.754,0.125 1.508,0.125 2.262,0.125 0.125,-1.633 1.882,-8.66 -1.887,-8.66"
             style="fill:#876b43;fill-opacity:1;fill-rule:nonzero;stroke:none"
             id="path3021" /><path
             d="m 511.117,154.105 c -0.375,6.028 -1.633,7.032 1.383,11.301 0.5,0 1.129,0 1.629,-0.129 0.254,-3.386 2.137,-10.039 -3.012,-11.172"
             style="fill:#876b43;fill-opacity:1;fill-rule:nonzero;stroke:none"
             id="path3023" /><path
             d="m 518.398,160.887 c -0.625,8.031 -0.625,8.031 -0.25,10.922 0.879,0.25 1.758,0.625 2.762,0.875 0.629,-5.27 1.633,-7.407 1.633,-8.786 -1.383,-1.003 -2.762,-2.007 -4.145,-3.011"
             style="fill:#876b43;fill-opacity:1;fill-rule:nonzero;stroke:none"
             id="path3025" /><path
             d="m 525.43,167.414 c -0.375,4.395 -1.254,8.535 0,12.176 0.504,0.25 1.129,0.375 1.883,0.504 0.125,-1.758 0.503,-3.516 0.753,-5.274 1.129,-0.754 1.129,-0.754 2.637,-0.754 3.012,6.028 -1.508,9.414 4.145,16.321 0.625,0.125 1.129,0.125 1.757,0.125 0.25,-3.891 0.75,-7.91 1.254,-11.926 -2.761,-3.141 -9.039,-10.168 -12.429,-11.172"
             style="fill:#876b43;fill-opacity:1;fill-rule:nonzero;stroke:none"
             id="path3027" /><path
             d="m 541.625,183.605 c -0.125,4.645 -0.25,9.165 -0.25,13.684 0.504,0.25 1.129,0.379 1.758,0.504 0.25,-4.02 0.754,-8.16 1.129,-12.305 -0.879,-0.5 -1.758,-1.129 -2.637,-1.883"
             style="fill:#876b43;fill-opacity:1;fill-rule:nonzero;stroke:none"
             id="path3029" /><path
             d="m 547.527,188.879 c -0.629,8.789 -3.265,14.562 4.395,18.328 -0.125,-5.019 -0.25,-10.168 -0.25,-15.316 -1.508,-0.879 -2.766,-1.883 -4.145,-3.012"
             style="fill:#876b43;fill-opacity:1;fill-rule:nonzero;stroke:none"
             id="path3031" /><path
             d="m 555.813,196.16 c -0.5,4.395 -1.883,13.055 0,15.817 0.628,0 1.382,-0.125 2.007,-0.25 0.379,-4.645 0.754,-9.164 1.258,-13.934 -1.258,-0.879 -2.262,-1.633 -3.265,-1.633"
             style="fill:#876b43;fill-opacity:1;fill-rule:nonzero;stroke:none"
             id="path3033" /><path
             d="m 562.719,202.313 c -1.004,8.285 -3.516,14.937 4.015,18.199 0.254,-4.895 0.754,-9.789 1.133,-14.813 -1.383,-1.379 -3.39,-3.765 -5.148,-3.386"
             style="fill:#876b43;fill-opacity:1;fill-rule:nonzero;stroke:none"
             id="path3035" /><path
             d="m 538.738,205.074 c -0.504,0.375 -0.754,0.625 -1.129,1.004 9.164,19.961 15.692,39.668 22.348,59.625 4.77,29.629 5.148,53.981 0.625,83.231 -1.504,4.894 -1.504,4.894 -1.504,6.402 2.887,1.883 2.887,1.883 4.895,3.891 -0.5,7.656 -5.399,12.429 -5.649,16.195 12.555,0.25 34.778,-0.754 25.485,16.695 12.179,0 44.949,21.844 24.109,31.383 0,12.051 20.336,26.234 -0.883,32.012 -1.754,18.074 4.02,18.074 -14.562,21.715 -12.805,25.484 -41.555,28.246 -57,52.097 27.371,114.86 112.117,195.078 235.031,168.086 62.523,-27.742 78.469,-95.027 70.934,-160.305 C 829.637,469.695 803.523,417.602 754.809,369.02 684.879,311.398 606.285,265.703 538.738,205.074"
             style="fill:#8c6f42;fill-opacity:1;fill-rule:nonzero;stroke:none"
             id="path3037" /><path
             d="m 571.633,210.219 c -0.379,4.644 -0.629,9.414 -0.754,14.187 2.008,2.008 1.633,2.508 4.769,2.887 0.379,-4.395 1.004,-8.789 1.508,-13.309 -4.015,-3.511 -4.015,-3.511 -5.523,-3.765"
             style="fill:#876b43;fill-opacity:1;fill-rule:nonzero;stroke:none"
             id="path3039" /><path
             d="m 580.422,217.25 c -0.754,5.145 -0.754,5.145 -0.754,15.063 2.258,2.261 3.012,3.14 6.277,3.894 0,-3.894 0.375,-7.535 3.137,-12.305 -8.16,-6.902 -8.16,-6.902 -8.66,-6.652"
             style="fill:#876b43;fill-opacity:1;fill-rule:nonzero;stroke:none"
             id="path3041" /><path
             d="m 590.84,225.785 c -0.25,10.547 -3.012,16.82 7.285,19.332 -0.254,-5.144 -0.379,-8.66 0.25,-14.812 -2.512,-1.504 -5.023,-3.012 -7.535,-4.52"
             style="fill:#876b43;fill-opacity:1;fill-rule:nonzero;stroke:none"
             id="path3043" /><path
             d="m 601.512,233.191 c -0.125,5.149 -0.25,10.293 -0.25,15.317 89.14,67.535 180.539,108.461 227.621,215.914 1.508,-1.504 3.14,-3.012 6.527,-4.645 0,4.145 -3.012,6.028 -4.769,7.532 0.504,3.39 0.504,3.39 2.261,8.414 0.75,0.125 1.629,0.375 2.508,0.5 0.379,-1.004 3.516,-7.907 7.535,-7.028 0,11.547 -9.668,7.532 -4.144,23.223 4.773,0 10.043,-12.555 14.941,-11.301 -1.258,10.297 -12.933,11.551 -11.926,20.211 1.004,0.129 2.133,0.254 3.387,0.254 1.883,-1.633 6.406,-8.285 10.547,-7.66 0,12.051 -14.437,6.527 -9.543,26.113 0.379,0.125 0.879,0.25 1.508,0.25 2.137,-3.39 7.281,-13.055 12.808,-14.187 -1.632,7.785 -6.656,12.933 -10.171,18.328 -0.879,0.129 -1.758,0.379 -2.637,0.379 -0.375,-0.379 -0.629,-0.629 -0.754,-0.879 0.379,6.902 0.379,6.902 1.758,12.804 4.269,-0.753 11.176,-11.675 14.437,-16.32 0.629,0 1.133,0 1.758,-0.125 0,14.813 -15.441,15.442 -14.687,35.653 3.515,0 14.687,-12.051 16.574,-17.075 0.5,0.25 1.129,0.379 1.629,0.379 -2.133,15.817 -16.95,16.067 -18.203,36.906 6.027,-1.257 15.695,-14.437 18.582,-21.718 0.5,0.125 1.129,0.25 1.757,0.375 -2.136,16.57 -19.336,20.59 -21.468,39.418 2.382,0 14.812,-15.063 17.703,-18.828 1.129,0 1.129,0 1.504,0.753 -7.407,10.793 -24.985,27.993 -23.102,40.672 1.508,-1.882 23.731,-29.625 25.738,-30.379 24.985,-103.566 -41.683,-195.453 -118.265,-256.339 -40.93,-28.118 -83.492,-54.227 -126.055,-79.711 -2.508,-3.012 -23.098,-16.821 -25.109,-17.2"
             style="fill:#876b43;fill-opacity:1;fill-rule:nonzero;stroke:none"
             id="path3045" /><path
             d="m 613.441,244.867 c -1.507,1.504 -1.507,1.504 -3.894,2.512 -0.125,0.75 -0.25,1.504 -0.25,2.133 1.383,1.004 1.383,1.004 3.141,1.254 1.003,-0.879 3.765,-7.657 1.003,-5.899"
             style="fill:#231f20;fill-opacity:1;fill-rule:nonzero;stroke:none"
             id="path3047" /><path
             d="m 200.133,266.582 c -6.278,9.543 -6.656,18.582 -7.031,28.121 0.25,0.629 0.753,1.129 1.128,1.508 0.375,-0.254 6.907,-26.363 6.403,-29.879 -0.125,0.125 -0.375,0.25 -0.5,0.25"
             style="fill:#231f20;fill-opacity:1;fill-rule:nonzero;stroke:none"
             id="path3049" /><path
             d="m 186.824,282.277 c -2.89,9.289 -5.148,21.965 -1.883,29.75 0.5,0 0.879,0 1.504,0 2.262,-5.398 -0.625,-19.961 1.633,-29.5 -0.754,-0.629 -0.754,-0.629 -1.254,-0.25"
             style="fill:#231f20;fill-opacity:1;fill-rule:nonzero;stroke:none"
             id="path3051" /><path
             d="m 179.039,294.703 c 0.504,9.793 -5.648,32.512 1.508,38.414 0.75,-0.379 0.75,-38.414 -1.508,-38.414"
             style="fill:#231f20;fill-opacity:1;fill-rule:nonzero;stroke:none"
             id="path3053" /><path
             d="m 172.133,307.129 c -1.504,10.547 -1.758,35.402 2.89,42.305 0.75,-1.629 -1.757,-36.278 -1.757,-42.43 -0.754,-0.375 -0.754,-0.375 -1.133,0.125"
             style="fill:#231f20;fill-opacity:1;fill-rule:nonzero;stroke:none"
             id="path3055" /><path
             d="m 163.848,320.941 c 0.25,12.551 1.632,21.59 4.898,32.887 1.004,-7.906 -3.266,-21.969 -3.769,-32.512 -0.375,-0.125 -0.879,-0.25 -1.129,-0.375"
             style="fill:#231f20;fill-opacity:1;fill-rule:nonzero;stroke:none"
             id="path3057" /><path
             d="m 430.012,331.484 c -10.293,5.899 -6.153,8.914 -1.883,17.45 0.375,0 1.004,0 1.633,0 0.375,-10.293 0.375,-10.293 1.379,-17.325 -0.625,-0.375 -0.625,-0.375 -1.129,-0.125"
             style="fill:#c0973c;fill-opacity:1;fill-rule:nonzero;stroke:none"
             id="path3059" /><path
             d="m 158.324,333.117 c 0,17.699 3.766,32.262 8.914,47.699 0.5,0.129 0.879,0.379 1.508,0.504 -1.633,-5.773 -9.922,-48.582 -10.422,-48.203"
             style="fill:#231f20;fill-opacity:1;fill-rule:nonzero;stroke:none"
             id="path3061" /><path
             d="m 632.523,402.785 c -1.882,19.836 -1.757,39.543 -3.39,57.871 -2.887,-0.375 -2.887,-0.375 -5.899,0 -0.125,0.754 -0.254,1.508 -0.254,2.262 3.266,2.258 3.266,2.258 5.778,3.262 0,7.531 0,15.066 0,22.472 -6.781,-0.504 -12.43,-4.019 -17.703,-5.777 -1.129,0.754 -1.129,0.754 -1.383,2.637 0.754,0.879 0.754,0.879 18.082,7.66 1.758,9.035 0.879,19.332 1.379,27.613 -6.903,-1.004 -12.555,-6.777 -18.707,-7.781 -0.125,0.629 -0.25,1.383 -0.25,2.008 5.273,3.265 13.058,6.027 18.582,9.793 1.129,9.414 1.129,9.414 1.508,18.828 -8.789,-2.887 -26.368,-10.793 -32.52,-15.942 -0.754,0.125 -1.508,0.25 -2.133,0.5 -0.125,0.504 -0.254,1.133 -0.254,1.633 6.907,6.906 24.36,12.555 34.278,17.074 3.765,16.571 0.125,47.075 9.918,58.75 -1.633,-8.414 -5.649,-20.085 -4.52,-30.128 4.145,22.093 4.145,22.093 4.895,22.722 1.004,-13.683 -7.657,-33.894 -4.895,-48.207 2.512,0.254 2.512,0.254 16.445,5.903 3.141,24.476 5.149,76.824 17.954,94.902 0.379,-0.879 -3.262,-13.809 -2.887,-15.192 0.25,0.125 0.629,0.254 1.004,0.379 1.633,-21.718 -8.66,-52.347 -11.297,-77.582 17.699,5.903 16.445,2.137 19.461,17.703 1.004,11.797 1.379,56.364 11.926,66.782 0.625,-0.25 1.129,-0.5 1.757,-1.004 -3.64,-25.106 -8.539,-48.957 -11.55,-75.196 3.136,0.504 12.304,4.52 15.191,3.895 0.754,3.387 24.859,9.664 29.629,10.168 0.379,0.754 0.879,1.379 1.383,2.008 3.262,0 22.347,4.265 23.726,6.023 3.141,0 7.157,1.133 11.301,0.629 -1.758,-3.012 -35.531,-9.918 -44.32,-12.426 -0.125,-0.504 -0.25,-1.007 -0.375,-1.632 -5.903,-2.137 -11.676,-4.395 -17.703,-4.899 -2.637,-3.262 -15.192,-5.648 -19.082,-7.277 -0.879,-6.531 -1.758,-13.434 -2.637,-20.211 7.031,0 16.695,6.777 25.484,7.531 -0.754,-1.258 -21.218,-7.785 -25.484,-9.164 -5.527,-25.484 9.039,-62.766 2.383,-85.363 -2.762,7.91 -3.766,16.82 -3.891,24.101 -7.031,-0.5 -11.676,-3.89 -17.953,-6.402 -0.25,-15.566 -0.629,-31.383 -2.262,-47.699 -0.625,15.187 -1.129,30.25 -1.758,45.316 -6.652,0 -12.175,-4.769 -17.828,-7.406 0,-19.082 -1.379,-40.672 2.512,-60.508 -1.254,-0.125 -2.387,-0.25 -3.641,-0.629"
             style="fill:#231f20;fill-opacity:1;fill-rule:nonzero;stroke:none"
             id="path3063" /><path
             d="m 633.652,407.809 c -0.754,7.406 -0.754,7.406 -0.375,11.8 0.5,-2.511 0.5,-2.511 0.375,-11.8"
             style="fill:#8c6f42;fill-opacity:1;fill-rule:nonzero;stroke:none"
             id="path3065" /><path
             d="m 835.41,443.586 c -0.75,0.25 -1.504,0.625 -2.133,0.879 -0.125,1.129 -0.25,2.258 -0.25,3.262 2.762,1.757 2.762,1.757 3.891,1.757 0.879,-1.004 0.879,-1.004 1.129,-4.269 -2.258,-1.883 -2.258,-1.883 -2.637,-1.629"
             style="fill:#231f20;fill-opacity:1;fill-rule:nonzero;stroke:none"
             id="path3067" /><path
             d="m 631.645,454.004 c 0,1.379 0,2.762 0.125,4.016 0.503,-3.516 0.503,-3.516 -0.125,-4.016"
             style="fill:#8c6f42;fill-opacity:1;fill-rule:nonzero;stroke:none"
             id="path3069" /><path
             d="m 633.152,468.816 c -0.125,7.532 -0.125,15.063 -0.125,22.598 5.649,2.762 11.297,6.527 17.828,6.902 0,-7.406 0,-14.687 0.125,-22.093 -6.027,-2.383 -11.929,-4.895 -17.828,-7.407"
             style="fill:#8c6f42;fill-opacity:1;fill-rule:nonzero;stroke:none"
             id="path3071" /><path
             d="m 657.258,477.98 c -0.629,0.125 -1.004,0.125 -1.508,0.125 0,7.657 0,15.192 0,22.723 1.004,0.629 2.008,1.004 3.141,1.504 0,0.629 0.125,1.008 0.25,1.508 1.507,0.125 3.011,0.25 4.394,0.375 -0.125,0.629 -0.25,1.008 -0.379,1.508 -5.523,-1.633 -5.898,-2.258 -7.906,-2.512 0,30.004 -8.539,26.613 14.184,36.031 -0.5,-9.668 -0.879,-19.961 -0.75,-31.008 -0.504,-0.25 -1.008,-0.629 -1.383,-1.004 0,-0.378 0.125,-0.628 0.25,-1.132 0.629,0.379 1.133,0.504 1.883,0.629 4.898,-19.457 5.148,-26.864 -12.176,-28.747"
             style="fill:#8c6f42;fill-opacity:1;fill-rule:nonzero;stroke:none"
             id="path3073" /><path
             d="m 633.152,495.805 c 0.125,5.273 0.25,10.672 0.5,15.82 -0.5,-0.754 -0.754,-1.633 -1.129,-2.512 -0.25,1.504 -0.25,1.504 0.629,14.813 9.289,4.265 9.289,4.265 16.696,6.902 0.754,-22.594 0.754,-22.594 0.379,-28.242 -4.645,0 -12.18,-5.523 -17.075,-6.781"
             style="fill:#8c6f42;fill-opacity:1;fill-rule:nonzero;stroke:none"
             id="path3075" /><path
             d="m 104.84,511.121 c 3.89,6.777 7.156,13.055 10.168,19.707 0.125,-0.125 0.379,-0.375 0.754,-0.5 0,-4.894 -6.278,-15.441 -10.547,-19.711 -0.125,0.254 -0.25,0.379 -0.375,0.504"
             style="fill:#231f20;fill-opacity:1;fill-rule:nonzero;stroke:none"
             id="path3077" /><path
             d="m 633.652,513.508 c 0.125,1.379 0.254,2.633 0.379,4.015 0,-4.015 0,-4.015 -0.379,-4.015"
             style="fill:#231f20;fill-opacity:1;fill-rule:nonzero;stroke:none"
             id="path3079" /><path
             d="m 633.152,526.813 c 0.625,15.941 -1.004,24.226 18.203,26.109 -1.757,-12.176 -1.757,-12.176 -2.257,-19.203 -3.266,-1.633 -6.657,-3.641 -9.543,-3.641 -0.375,-0.629 -0.629,-1.258 -0.754,-1.758 -0.375,0.25 -0.629,0.375 -0.754,0.5 -1.633,-0.5 -3.262,-1.254 -4.895,-2.007"
             style="fill:#8c6f42;fill-opacity:1;fill-rule:nonzero;stroke:none"
             id="path3081" /><path
             d="m 655.25,536.73 c -3.645,20.461 1.379,18.704 17.828,24.606 -0.379,-2.387 -2.012,-18.582 -4.648,-21.215 -0.25,0.375 -0.625,0.75 -0.879,1.004 -3.891,-2.762 -6.153,-0.379 -6.903,-3.391 -1.757,-0.25 -3.515,-0.629 -5.398,-1.004"
             style="fill:#8c6f42;fill-opacity:1;fill-rule:nonzero;stroke:none"
             id="path3083" /><path
             d="m 317.395,551.293 c -7.407,3.012 -16.446,32.887 -18.707,38.41 -8.161,3.266 -19.836,18.832 -24.356,25.235 -20.59,0.878 -19.461,7.027 -25.738,23.597 -0.629,0.129 -1.129,0.254 -1.633,0.254 -4.77,-5.148 -20.965,-16.32 -19.207,-1.883 0.625,0 1.254,0 1.883,0 0.375,-0.254 0.625,-0.629 1.129,-1.004 15.316,2.508 12.554,27.239 26.113,23.848 0.379,-0.625 0.879,-1.504 1.508,-2.508 -22.977,-32.515 20.465,-45.57 45.699,-20.336 11.93,18.074 10.043,20.961 10.797,43.434 -24.106,-1.508 -55.367,-4.27 -58.629,25.609 -4.899,0 -16.199,-23.851 -16.949,-30.004 -1.008,-0.504 -2.137,-0.879 -3.141,-1.507 0.754,12.179 7.66,20.839 12.68,31.132 -8.41,0 -20.965,-21.215 -25.485,-20.211 2.887,15.067 28.121,26.364 37.914,36.907 11.426,30.254 84.872,53.101 101.696,15.566 8.285,-2.258 40.051,-7.281 39.047,-21.465 -10.422,7.531 -18.207,13.684 -29.129,15.188 0.125,-0.5 0.25,-0.879 0.379,-1.504 8.16,-4.02 20.464,-7.785 22.472,-20.211 -0.754,-0.379 -23.605,17.07 -28.75,17.07 -0.754,-1.254 -0.754,-1.254 -2.636,-12.676 -9.168,-20.464 -23.356,-26.867 -44.571,-31.886 6.903,-25.61 15.946,-36.028 44.192,-42.43 15.57,-15.566 31.511,28.496 32.519,36.027 -5.652,1.633 -11.051,4.77 -11.051,9.414 2.887,2.887 29.629,-1.757 32.016,-7.406 -3.891,-3.89 -8.664,-2.637 -12.93,-2.637 -2.89,-9.164 -26.242,-67.91 -32.394,-72.179 -7.031,-49.586 4.773,-51.844 -54.738,-51.844"
             style="fill:#231f20;fill-opacity:1;fill-rule:nonzero;stroke:none"
             id="path3085" /><path
             d="m 702.957,551.418 c 2.133,0.754 3.516,2.133 5.902,1.504 -2.511,-1.129 -2.511,-1.129 -5.902,-1.504"
             style="fill:#231f20;fill-opacity:1;fill-rule:nonzero;stroke:none"
             id="path3087" /><path
             d="m 322.668,557.695 c -16.949,11.797 -26.492,43.934 -28.875,63.141 11.926,6.402 18.707,14.937 25.484,26.109 0.504,0 0.879,0 1.508,0 3.391,-15.437 4.52,-32.511 9.289,-49.332 0,18.828 -6.027,37.41 -4.394,53.727 2.136,-5.649 32.394,-19.332 40.175,-20.586 2.262,-14.688 -2.507,-42.055 -3.011,-57.621 -3.516,-18.953 -25.36,-14.938 -40.176,-15.438"
             style="fill:#ffffff;fill-opacity:1;fill-rule:nonzero;stroke:none"
             id="path3089" /><path
             d="m 866.422,596.484 c -7.406,12.051 -23.227,24.602 -27.117,34.645 0.5,0.254 1.254,0.379 2.008,0.379 10.296,-9.668 31.261,-31.887 25.109,-35.024"
             style="fill:#876b43;fill-opacity:1;fill-rule:nonzero;stroke:none"
             id="path3091" /><path
             d="m 659.141,598.242 c 0.754,4.016 1.632,8.031 2.511,11.797 -1.382,-10.293 -1.382,-10.293 -2.011,-11.797 -0.25,0 -0.375,0 -0.5,0"
             style="fill:#8c6f42;fill-opacity:1;fill-rule:nonzero;stroke:none"
             id="path3093" /><path
             d="m 661.652,610.918 c 0.754,6.527 0.754,6.527 1.883,9.918 0.375,-1.004 0.375,-1.004 -1.883,-9.918"
             style="fill:#8c6f42;fill-opacity:1;fill-rule:nonzero;stroke:none"
             id="path3095" /><path
             d="m 850.227,628.117 c -6.653,6.028 -20.715,17.074 -22.098,25.231 0.379,0.379 0.629,0.754 1.129,1.007 4.648,-1.882 21.472,-20.964 21.472,-26.113 -0.253,0 -0.378,0 -0.503,-0.125"
             style="fill:#876b43;fill-opacity:1;fill-rule:nonzero;stroke:none"
             id="path3097" /><path
             d="m 272.07,655.484 c -0.754,0.754 -0.754,0.754 -0.754,3.262 0.879,0.879 0.879,0.879 3.641,1.258 1.383,-1.383 0.379,-2.762 -1.004,-4.52 -0.75,0 -1.254,0 -1.883,0"
             style="fill:#231f20;fill-opacity:1;fill-rule:nonzero;stroke:none"
             id="path3099" /><path
             d="m 290.152,660.004 c -1.007,1.004 -2.011,1.883 -2.89,2.762 1.883,1.882 3.515,1.757 7.031,0.879 -0.5,-3.391 -1.379,-3.266 -4.141,-3.641"
             style="fill:#231f20;fill-opacity:1;fill-rule:nonzero;stroke:none"
             id="path3101" /><path
             d="m 822.102,661.762 c -2.383,2.383 -2.383,2.886 -2.887,4.39 1.383,0 2.637,-0.879 5.023,-3.011 -0.25,-0.5 -0.25,-1.129 -0.25,-1.758 -0.629,0.25 -1.258,0.379 -1.886,0.379"
             style="fill:#876b43;fill-opacity:1;fill-rule:nonzero;stroke:none"
             id="path3103" /><path
             d="m 273.578,670.297 c -0.25,1.129 -0.375,2.258 -0.375,3.262 0.75,0.754 0.75,0.754 2.887,0.754 0.375,-0.625 0.879,-1.254 1.379,-1.758 -0.5,-0.754 -1.004,-1.504 -1.379,-2.258 -0.879,0 -1.758,0 -2.512,0"
             style="fill:#231f20;fill-opacity:1;fill-rule:nonzero;stroke:none"
             id="path3105" /><path
             d="m 364.602,670.922 c -3.641,1.758 -1.254,4.394 1.882,4.394 0.754,-0.753 1.633,-2.507 0.504,-4.394 -0.879,0 -1.633,0 -2.386,0"
             style="fill:#231f20;fill-opacity:1;fill-rule:nonzero;stroke:none"
             id="path3107" /><path
             d="m 352.172,677.703 c -1.633,1.633 -1.129,2.387 -1.129,3.641 0.754,0.629 1.504,1.004 2.258,1.508 0.379,-0.254 1.004,-0.629 1.633,-1.008 0,-2.383 0,-2.383 -1.004,-3.891 -0.504,0 -1.129,-0.125 -1.758,-0.25"
             style="fill:#231f20;fill-opacity:1;fill-rule:nonzero;stroke:none"
             id="path3109" /><path
             d="m 290.152,686.113 c -50.847,8.41 -20.718,45.696 9.539,60.004 20.465,5.774 41.559,8.789 56.122,-10.168 11.175,-39.418 -36.911,-49.836 -65.661,-49.836"
             style="fill:#4f4c4c;fill-opacity:1;fill-rule:nonzero;stroke:none"
             id="path3111" /><path
             d="m 364.602,687.117 c -2.262,1.508 -1.633,2.262 -1.758,3.516 1.129,0.879 1.129,0.879 3.265,0.879 0.125,-0.25 0.375,-5.774 -1.507,-4.395"
             style="fill:#231f20;fill-opacity:1;fill-rule:nonzero;stroke:none"
             id="path3113" /><path
             d="m 283.371,758.422 c -11.801,5.898 -4.394,15.437 -0.25,23.348 1.004,0.125 2.133,0.25 3.262,0.25 1.004,-4.395 16.949,-19.582 -3.012,-23.598"
             style="fill:#231f20;fill-opacity:1;fill-rule:nonzero;stroke:none"
             id="path3115" /><path
             d="m 308.984,763.316 c -20.843,6.903 -1.757,36.028 11.047,12.551 0,-10.039 -1.004,-12.051 -11.047,-12.551"
             style="fill:#231f20;fill-opacity:1;fill-rule:nonzero;stroke:none"
             id="path3117" /><path
             d="m 282.867,763.816 c -3.137,2.512 -0.125,8.161 1.004,10.043 1.758,0 2.012,1.133 4.395,-0.75 0,-4.648 -0.125,-8.414 -5.399,-9.293"
             style="fill:#ffffff;fill-opacity:1;fill-rule:nonzero;stroke:none"
             id="path3119" /><path
             d="m 309.359,768.715 c -6.277,4.644 -5.902,6.527 -1.382,11.422 2.511,0 3.894,-1.633 6.906,-4.016 0,-2.637 0.125,-4.898 -1.504,-7.406 -1.258,0 -2.637,0 -4.02,0"
             style="fill:#ffffff;fill-opacity:1;fill-rule:nonzero;stroke:none"
             id="path3121" /><path
             d="m 213.441,789.426 c -22.222,12.679 -34.277,31.762 -10.296,51.219 4.644,0.25 9.164,0.628 15.316,-1.508 0.25,-0.754 0.629,-1.508 0.879,-2.383 0.629,-0.129 1.383,-0.254 2.133,-0.504 4.019,-20.086 -33.27,-27.113 -4.016,-43.434 0,-0.753 0,-1.507 0.125,-2.261 -1.633,-1.629 -3.012,-1.004 -4.141,-1.129"
             style="fill:#231f20;fill-opacity:1;fill-rule:nonzero;stroke:none"
             id="path3123" /><path
             d="m 200.758,804.617 c -8.914,10.793 -2.258,29.375 12.305,28.367 0,-9.035 -7.282,-13.933 -12.18,-20.711 0.504,-7.406 0.504,-7.406 -0.125,-7.656"
             style="fill:#c0973c;fill-opacity:1;fill-rule:nonzero;stroke:none"
             id="path3125" /><path
             d="m 353.301,831.73 c -5.899,5.899 4.269,8.536 5.523,13.934 -15.191,13.559 -37.664,17.828 -8.535,27.367 22.598,0 42.184,-37.91 27.996,-37.91 -4.394,14.184 -15.691,34.899 -32.015,28.871 0,-3.64 18.082,-7.781 18.082,-20.211 -2.262,-4.015 -5.528,-11.672 -11.051,-12.051"
             style="fill:#231f20;fill-opacity:1;fill-rule:nonzero;stroke:none"
             id="path3127" /></g></g></g></g></svg>